{
.appVersion = "3151";
.formatVersion = 3;
axes = (
{
name = Color;
tag = COLR;
},
{
name = Weight;
tag = wght;
}
);
classes = (
{
automatic = 1;
code = "A Aacute Abreve Acircumflex Adieresis Agrave Amacron Aogonek Aring Atilde AE B C Cacute Ccaron Ccedilla D Eth Dcaron Dcroat E Eacute Ecaron Ecircumflex Edieresis Edotaccent Egrave Emacron Eogonek F G Gcommaaccent H I IJ Iacute Icircumflex Idieresis Idotaccent Igrave Imacron Iogonek J Jacute K Kcommaaccent L Lacute Lcaron Lcommaaccent Lslash M N Nacute Ncaron Ncommaaccent Ntilde O Oacute Ocircumflex Odieresis Ograve Ohungarumlaut Omacron Oslash Otilde OE P Thorn Q R Racute Rcaron Rcommaaccent S Sacute Scaron Scedilla Germandbls T Tcaron Tcedilla U Uacute Ucircumflex Udieresis Ugrave Uhungarumlaut Umacron Uogonek Uring V W Wacute Wcircumflex Wdieresis Wgrave X Y Yacute Ycircumflex Ydieresis Ygrave Z Zacute Zcaron Zdotaccent D.ss01 Q.ss01 R.ss01";
name = Uppercase;
}
);
customParameters = (
{
name = "Enforce Compatibility Check";
value = 0;
}
);
date = "2023-03-29 09:01:27 +0000";
familyName = Astrograph;
featurePrefixes = (
{
automatic = 1;
code = "languagesystem DFLT dflt;
languagesystem DFLT MAH;

languagesystem latn dflt;
languagesystem latn ROM;
languagesystem latn MOL;
languagesystem latn MAH;
languagesystem latn CAT;
languagesystem latn NLD;
";
name = Languagesystems;
}
);
features = (
{
automatic = 1;
code = "feature locl;
feature subs;
feature sinf;
feature sups;
feature frac;
feature case;
feature ss01;
";
tag = aalt;
},
{
automatic = 1;
code = "lookup locl_noScript_0 {
	language MAH;
	sub commaaccentcomb by commaaccentcomb.loclMAH;
} locl_noScript_0;

lookup locl_latn_0 {
	script latn;
	language ROM;
	sub Scedilla by Scommaaccent;
	sub Tcedilla by Tcommaaccent;
	language MOL;
	sub Scedilla by Scommaaccent;
	sub Tcedilla by Tcommaaccent;
} locl_latn_0;

lookup locl_latn_1 {
	script latn;
	language MAH;
	sub Lcommaaccent by Lcommaaccent.loclMAH;
	sub Ncommaaccent by Ncommaaccent.loclMAH;
} locl_latn_1;


glyphs = (
{
glyphname = A;
kernLeft = A;
kernRight = A;
lastChange = "2023-04-05 05:19:33 +0000";
layers = (
{
anchors = (
{
name = bottom;
pos = (506,0);
},
{
name = bottom_2;
pos = (794,0);
},
{
name = top;
pos = (506,680);
}
);
hints = (
{
horizontal = 1;
origin = (1,3);
target = (1,2);
type = Stem;
},
{
horizontal = 1;
origin = (0,20);
target = (0,5);
type = Stem;
},
{
place = (50, 913);
place = (50, 913);
type = Stem;
}
);
layerId = m01;
shapes = (
{
closed = 1;
nodes = (
(219,0,ls),
(227,0,o),
(232,3,o),
(235,10,cs),
(504,551,l),
(460,524,l),
(554,524,l),
(510,551,l),
(778,10,ls),
(782,3,o),
(786,0,o),
(794,0,cs),
(952,0,ls),
(962,0,o),
(966,7,o),
(961,16,cs),
(637,670,ls),
(633,677,o),
(629,680,o),
(621,680,cs),
(393,680,ls),
(385,680,o),
(381,677,o),
(377,670,cs),
(52,16,ls),
(47,7,o),
(51,0,o),
(62,0,cs)
);
},
{
closed = 1;
nodes = (
(774,126,l),
(774,282,l),
(238,282,l),
(238,126,l)
);
}
);
width = 1013;
},
{
anchors = (
{
name = bottom;
pos = (506,0);
},
{
name = bottom_2;
pos = (794,0);
},
{
name = top;
pos = (506,680);
}
);
hints = (
{
horizontal = 1;
origin = (1,25);
target = (0,25);
type = Stem;
},
{
horizontal = 1;
origin = (0,4);
target = (1,20);
type = Stem;
},
{
horizontal = 1;
origin = (4,3);
target = (5,3);
type = Stem;
},
{
horizontal = 1;
origin = (5,0);
target = (4,2);
type = Stem;
},
{
horizontal = 1;
origin = (1,6);
target = (0,18);
type = Stem;
},
{
horizontal = 1;
origin = (2,7);
target = (1,20);
type = Stem;
},
{
horizontal = 1;
origin = (2,1);
target = (3,3);
type = Stem;
},
{
horizontal = 1;
origin = (3,0);
target = (2,6);
type = Stem;
},
{
place = (30, 953);
place = (30, 953);
type = Stem;
}
);
layerId = "E09D4F69-3ABD-4349-AFCF-7CB4B65C8749";
shapes = (
{
closed = 1;
nodes = (
(219,-20,ls),
(235,-20,o),
(246,-12,o),
(253,2,cs),
(305,106,l),
(708,106,l),
(760,1,ls),
(767,-13,o),
(779,-20,o),
(794,-20,cs),
(952,-20,ls),
(977,-20,o),
(990,3,o),
(979,25,cs),
(655,679,ls),
(648,693,o),
(636,700,o),
(621,700,cs),
(393,700,ls),
(378,700,o),
(366,693,o),
(359,679,cs),
(34,25,ls),
(23,3,o),
(36,-20,o),
(62,-20,cs)
);
},
{
closed = 1;
nodes = (
(51,0,o),
(47,7,o),
(52,16,cs),
(377,670,ls),
(381,677,o),
(385,680,o),
(393,680,cs),
(621,680,ls),
(629,680,o),
(633,677,o),
(637,670,cs),
(961,16,ls),
(966,7,o),
(962,0,o),
(952,0,cs),
(794,0,ls),
(786,0,o),
(782,3,o),
(778,10,cs),
(720,126,l),
(293,126,l),
(235,10,ls),
(232,3,o),
(227,0,o),
(219,0,cs),
(62,0,ls)
);
},
{
closed = 1;
nodes = (
(218,20,l),
(281,146,l),
(732,146,l),
(796,20,l),
(937,20,l),
(619,660,l),
(395,660,l),
(76,20,l)
);
},
{
closed = 1;
nodes = (
(479,544,l),
(535,544,l),
(675,262,l),
(338,262,l)
);
},
{
closed = 1;
nodes = (
(643,282,l),
(523,524,l),
(491,524,l),
(370,282,l)
);
},
{
closed = 1;
nodes = (
(503,504,l),
(511,504,l),
(611,302,l),
(402,302,l)
);
}
);
width = 1013;
},
{
anchors = (
{
name = bottom;
pos = (506,0);
},
{
name = bottom_2;
pos = (794,0);
},
{
name = top;
pos = (506,680);
}
);
hints = (
{
horizontal = 1;
origin = (1,25);
target = (0,25);
type = Stem;
},
{
horizontal = 1;
origin = (0,4);
target = (1,20);
type = Stem;
},
{
horizontal = 1;
origin = (2,3);
target = (3,3);
type = Stem;
},
{
horizontal = 1;
origin = (3,0);
target = (2,2);
type = Stem;
},
{
horizontal = 1;
origin = (1,6);
target = (0,18);
type = Stem;
},
{
place = (30, 953);
place = (30, 953);
type = Stem;
}
);
layerId = m003;
shapes = (
{
closed = 1;
nodes = (
(219,-20,ls),
(235,-20,o),
(246,-12,o),
(253,2,cs),
(305,106,l),
(708,106,l),
(760,1,ls),
(767,-13,o),
(779,-20,o),
(794,-20,cs),
(952,-20,ls),
(977,-20,o),
(990,3,o),
(979,25,cs),
(655,679,ls),
(648,693,o),
(636,700,o),
(621,700,cs),
(393,700,ls),
(378,700,o),
(366,693,o),
(359,679,cs),
(34,25,ls),
(23,3,o),
(36,-20,o),
(62,-20,cs)
);
},
{
closed = 1;
nodes = (
(51,0,o),
(47,7,o),
(52,16,cs),
(377,670,ls),
(381,677,o),
(385,680,o),
(393,680,cs),
(621,680,ls),
(629,680,o),
(633,677,o),
(637,670,cs),
(961,16,ls),
(966,7,o),
(962,0,o),
(952,0,cs),
(794,0,ls),
(786,0,o),
(782,3,o),
(778,10,cs),
(720,126,l),
(293,126,l),
(235,10,ls),
(232,3,o),
(227,0,o),
(219,0,cs),
(62,0,ls)
);
},
{
closed = 1;
nodes = (
(643,282,l),
(523,524,l),
(491,524,l),
(370,282,l)
);
},
{
closed = 1;
nodes = (
(503,504,l),
(511,504,l),
(611,302,l),
(402,302,l)
);
}
);
width = 1013;
},
{
anchors = (
{
name = bottom;
pos = (506,0);
},
{
name = bottom_2;
pos = (794,0);
},
{
name = top;
pos = (506,680);
}
);
hints = (
{
horizontal = 1;
origin = (0,1);
target = (1,3);
type = Stem;
},
{
horizontal = 1;
origin = (1,0);
target = (0,6);
type = Stem;
},
{
origin = (0,7);
target = (0,4);
type = Stem;
}
);
layerId = m004;
shapes = (
{
closed = 1;
nodes = (
(218,20,l),
(281,146,l),
(732,146,l),
(796,20,l),
(937,20,l),
(619,660,l),
(395,660,l),
(76,20,l)
);
},
{
closed = 1;
nodes = (
(479,544,l),
(535,544,l),
(675,262,l),
(338,262,l)
);
}
);
width = 1013;
}
);
unicode = (65,97);
},
{
glyphname = Aogonek;
kernLeft = A;
kernRight = A;
lastChange = "2023-04-05 05:14:12 +0000";
layers = (
{
layerId = m01;
shapes = (
{
ref = A;
},
{
anchor = bottom_2;
pos = (605,0);
ref = ogonekcomb;
}
);
width = 1013;
},
{
anchors = (
{
name = bottom;
pos = (506,0);
},
{
name = bottom_2;
pos = (794,0);
},
{
name = top;
pos = (506,680);
}
);
hints = (
{
horizontal = 1;
origin = (0,45);
target = (1,45);
type = Stem;
},
{
horizontal = 1;
origin = (1,36);
target = (0,8);
type = Stem;
},
{
horizontal = 1;
origin = (1,13);
target = (0,31);
type = Stem;
},
{
horizontal = 1;
origin = (0,36);
target = (1,8);
type = Stem;
},
{
horizontal = 1;
origin = (4,3);
target = (5,3);
type = Stem;
},
{
horizontal = 1;
origin = (5,0);
target = (4,2);
type = Stem;
},
{
horizontal = 1;
origin = (1,20);
target = (0,24);
type = Stem;
},
{
horizontal = 1;
origin = (2,13);
target = (1,8);
type = Stem;
},
{
horizontal = 1;
origin = (2,24);
target = (2,2);
type = Stem;
},
{
horizontal = 1;
origin = (2,15);
target = (3,3);
type = Stem;
},
{
horizontal = 1;
origin = (3,0);
target = (2,12);
type = Stem;
},
{
place = (627, 20);
place = (627, 20);
type = Stem;
},
{
place = (728, 19);
place = (728, 19);
type = Stem;
},
{
origin = (1,41);
target = (0,3);
type = Stem;
},
{
place = (666, 43);
place = (666, 43);
type = Stem;
}
);
layerId = "E09D4F69-3ABD-4349-AFCF-7CB4B65C8749";
shapes = (
{
closed = 1;
nodes = (
(873,-324,ls),
(893,-324,o),
(907,-310,o),
(907,-290,cs),
(907,-218,ls),
(907,-198,o),
(893,-184,o),
(873,-184,cs),
(798,-184,ls),
(783,-184,o),
(770,-182,o),
(760,-173,c),
(741,-152,o),
(742,-121,o),
(764,-99,cs),
(843,-20,l),
(952,-20,ls),
(977,-20,o),
(990,3,o),
(979,25,cs),
(655,679,ls),
(648,693,o),
(636,700,o),
(621,700,cs),
(393,700,ls),
(378,700,o),
(366,693,o),
(359,679,cs),
(34,25,ls),
(23,3,o),
(36,-20,o),
(62,-20,cs),
(219,-20,ls),
(235,-20,o),
(246,-12,o),
(253,2,cs),
(305,106,l),
(708,106,l),
(746,29,l),
(676,-41,ls),
(611,-106,o),
(611,-211,o),
(676,-276,cs),
(710,-308,o),
(751,-324,o),
(793,-324,cs)
);
},
{
closed = 1;
nodes = (
(756,-304,o),
(720,-290,o),
(690,-262,cs),
(633,-205,o),
(633,-112,o),
(690,-55,cs),
(770,25,l),
(720,126,l),
(293,126,l),
(235,10,ls),
(232,3,o),
(227,0,o),
(219,0,cs),
(62,0,ls),
(51,0,o),
(47,7,o),
(52,16,cs),
(377,670,ls),
(381,677,o),
(385,680,o),
(393,680,cs),
(621,680,ls),
(629,680,o),
(633,677,o),
(637,670,cs),
(961,16,ls),
(966,7,o),
(962,0,o),
(952,0,cs),
(835,0,l),
(750,-85,ls),
(723,-112,o),
(720,-160,o),
(746,-187,cs),
(761,-201,o),
(781,-204,o),
(798,-204,cs),
(873,-204,ls),
(882,-204,o),
(887,-209,o),
(887,-218,cs),
(887,-290,ls),
(887,-299,o),
(882,-304,o),
(873,-304,cs),
(793,-304,ls)
);
},
{
closed = 1;
nodes = (
(867,-284,l),
(867,-224,l),
(798,-224,ls),
(779,-224,o),
(752,-220,o),
(732,-201,cs),
(698,-166,o),
(702,-105,o),
(736,-71,cs),
(827,20,l),
(937,20,l),
(619,660,l),
(395,660,l),
(76,20,l),
(218,20,l),
(281,146,l),
(732,146,l),
(795,22,l),
(704,-69,ls),
(653,-120,o),
(653,-197,o),
(704,-248,cs),
(731,-273,o),
(760,-284,o),
(793,-284,cs)
);
},
{
closed = 1;
nodes = (
(479,544,l),
(535,544,l),
(675,262,l),
(338,262,l)
);
},
{
closed = 1;
nodes = (
(643,282,l),
(523,524,l),
(491,524,l),
(370,282,l)
);
},
{
closed = 1;
nodes = (
(503,504,l),
(511,504,l),
(611,302,l),
(402,302,l)
);
}
);
width = 1013;
},
{
anchors = (
{
name = bottom;
pos = (506,0);
},
{
name = bottom_2;
pos = (794,0);
},
{
name = top;
pos = (506,680);
}
);
hints = (
{
horizontal = 1;
origin = (0,45);
target = (1,45);
type = Stem;
},
{
horizontal = 1;
origin = (1,36);
target = (0,8);
type = Stem;
},
{
horizontal = 1;
origin = (1,13);
target = (0,31);
type = Stem;
},
{
horizontal = 1;
origin = (0,36);
target = (1,8);
type = Stem;
},
{
horizontal = 1;
origin = (2,3);
target = (3,3);
type = Stem;
},
{
horizontal = 1;
origin = (3,0);
target = (2,2);
type = Stem;
},
{
horizontal = 1;
origin = (1,20);
target = (0,24);
type = Stem;
},
{
place = (627, 20);
place = (627, 20);
type = Stem;
},
{
place = (728, 19);
place = (728, 19);
type = Stem;
},
{
origin = (1,41);
target = (0,3);
type = Stem;
}
);
layerId = m003;
shapes = (
{
closed = 1;
nodes = (
(873,-324,ls),
(893,-324,o),
(907,-310,o),
(907,-290,cs),
(907,-218,ls),
(907,-198,o),
(893,-184,o),
(873,-184,cs),
(798,-184,ls),
(783,-184,o),
(770,-182,o),
(760,-173,c),
(741,-152,o),
(742,-121,o),
(764,-99,cs),
(843,-20,l),
(952,-20,ls),
(977,-20,o),
(990,3,o),
(979,25,cs),
(655,679,ls),
(648,693,o),
(636,700,o),
(621,700,cs),
(393,700,ls),
(378,700,o),
(366,693,o),
(359,679,cs),
(34,25,ls),
(23,3,o),
(36,-20,o),
(62,-20,cs),
(219,-20,ls),
(235,-20,o),
(246,-12,o),
(253,2,cs),
(305,106,l),
(708,106,l),
(746,29,l),
(676,-41,ls),
(611,-106,o),
(611,-211,o),
(676,-276,cs),
(710,-308,o),
(751,-324,o),
(793,-324,cs)
);
},
{
closed = 1;
nodes = (
(756,-304,o),
(720,-290,o),
(690,-262,cs),
(633,-205,o),
(633,-112,o),
(690,-55,cs),
(770,25,l),
(720,126,l),
(293,126,l),
(235,10,ls),
(232,3,o),
(227,0,o),
(219,0,cs),
(62,0,ls),
(51,0,o),
(47,7,o),
(52,16,cs),
(377,670,ls),
(381,677,o),
(385,680,o),
(393,680,cs),
(621,680,ls),
(629,680,o),
(633,677,o),
(637,670,cs),
(961,16,ls),
(966,7,o),
(962,0,o),
(952,0,cs),
(835,0,l),
(750,-85,ls),
(723,-112,o),
(720,-160,o),
(746,-187,cs),
(761,-201,o),
(781,-204,o),
(798,-204,cs),
(873,-204,ls),
(882,-204,o),
(887,-209,o),
(887,-218,cs),
(887,-290,ls),
(887,-299,o),
(882,-304,o),
(873,-304,cs),
(793,-304,ls)
);
},
{
closed = 1;
nodes = (
(643,282,l),
(523,524,l),
(491,524,l),
(370,282,l)
);
},
{
closed = 1;
nodes = (
(503,504,l),
(511,504,l),
(611,302,l),
(402,302,l)
);
}
);
width = 1013;
},
{
anchors = (
{
name = bottom;
pos = (506,0);
},
{
name = bottom_2;
pos = (794,0);
},
{
name = top;
pos = (506,680);
}
);
hints = (
{
horizontal = 1;
origin = (0,24);
target = (0,2);
type = Stem;
},
{
horizontal = 1;
origin = (0,15);
target = (1,3);
type = Stem;
},
{
horizontal = 1;
origin = (1,0);
target = (0,12);
type = Stem;
},
{
place = (666, 43);
place = (666, 43);
type = Stem;
}
);
layerId = m004;
shapes = (
{
closed = 1;
nodes = (
(867,-284,l),
(867,-224,l),
(798,-224,ls),
(779,-224,o),
(752,-220,o),
(732,-201,cs),
(698,-166,o),
(702,-105,o),
(736,-71,cs),
(827,20,l),
(937,20,l),
(619,660,l),
(395,660,l),
(76,20,l),
(218,20,l),
(281,146,l),
(732,146,l),
(795,22,l),
(704,-69,ls),
(653,-120,o),
(653,-197,o),
(704,-248,cs),
(731,-273,o),
(760,-284,o),
(793,-284,cs)
);
},
{
closed = 1;
nodes = (
(479,544,l),
(535,544,l),
(675,262,l),
(338,262,l)
);
}
);
width = 1013;
}
);
unicode = (260,261);
},
{
glyphname = AE;
kernLeft = A;
kernRight = E;
lastChange = "2023-04-05 05:14:12 +0000";
layers = (
{
hints = (
{
horizontal = 1;
origin = (0,21);
target = (3,8);
type = Stem;
},
{
horizontal = 1;
origin = (4,15);
target = (4,8);
type = Stem;
},
{
horizontal = 1;
origin = (0,14);
target = (0,5);
type = Stem;
},
{
horizontal = 1;
origin = (1,15);
target = (1,8);
type = Stem;
},
{
origin = (2,12);
target = (2,3);
type = Stem;
}
);
layerId = m01;
shapes = (
{
closed = 1;
nodes = (
(225,0,ls),
(231,0,o),
(237,2,o),
(241,8,cs),
(631,550,l),
(580,533,l),
(1427,533,ls),
(1436,533,o),
(1441,538,o),
(1441,547,cs),
(1441,666,ls),
(1441,675,o),
(1436,680,o),
(1427,680,cs),
(512,680,ls),
(506,680,o),
(500,677,o),
(496,671,cs),
(53,16,ls),
(47,7,o),
(51,0,o),
(61,0,cs)
);
},
{
closed = 1;
nodes = (
(722,125,ls),
(731,125,o),
(735,130,o),
(735,139,cs),
(735,268,ls),
(735,277,o),
(731,282,o),
(722,282,cs),
(282,282,ls),
(273,282,o),
(268,277,o),
(268,268,cs),
(268,139,ls),
(268,130,o),
(273,125,o),
(282,125,cs)
);
},
{
closed = 1;
nodes = (
(848,0,ls),
(856,0,o),
(861,5,o),
(861,14,cs),
(861,666,ls),
(861,675,o),
(856,680,o),
(848,680,cs),
(705,680,ls),
(696,680,o),
(691,675,o),
(691,666,cs),
(691,14,ls),
(691,5,o),
(696,0,o),
(705,0,cs)
);
},
{
closed = 1;
nodes = (
(1427,0,ls),
(1436,0,o),
(1441,4,o),
(1441,13,cs),
(1441,132,ls),
(1441,141,o),
(1436,146,o),
(1427,146,cs),
(822,146,ls),
(813,146,o),
(808,141,o),
(808,132,cs),
(808,13,ls),
(808,4,o),
(813,0,o),
(822,0,cs)
);
},
{
closed = 1;
nodes = (
(1342,272,ls),
(1351,272,o),
(1356,276,o),
(1356,285,cs),
(1356,394,ls),
(1356,403,o),
(1351,408,o),
(1342,408,cs),
(822,408,ls),
(813,408,o),
(808,403,o),
(808,394,cs),
(808,285,ls),
(808,276,o),
(813,272,o),
(822,272,cs)
);
}
);
width = 1491;
},
{
hints = (
{
horizontal = 1;
origin = (4,45);
target = (0,45);
type = Stem;
},
{
horizontal = 1;
origin = (4,26);
target = (0,18);
type = Stem;
},
{
horizontal = 1;
origin = (2,3);
target = (3,3);
type = Stem;
},
{
horizontal = 1;
origin = (4,16);
target = (0,28);
type = Stem;
},
{
horizontal = 1;
origin = (3,0);
target = (2,2);
type = Stem;
},
{
horizontal = 1;
origin = (4,6);
target = (0,38);
type = Stem;
},
{
horizontal = 1;
origin = (0,4);
target = (4,40);
type = Stem;
},
{
horizontal = 1;
origin = (0,19);
target = (4,25);
type = Stem;
},
{
horizontal = 1;
origin = (5,15);
target = (4,40);
type = Stem;
},
{
horizontal = 1;
origin = (5,1);
target = (1,3);
type = Stem;
},
{
horizontal = 1;
origin = (5,15);
target = (5,6);
type = Stem;
},
{
horizontal = 1;
origin = (5,7);
target = (5,10);
type = Stem;
},
{
horizontal = 1;
origin = (1,0);
target = (5,14);
type = Stem;
},
{
place = (30, 20);
place = (30, 20);
type = Stem;
},
{
origin = (0,6);
target = (4,38);
type = Stem;
},
{
origin = (4,26);
target = (0,18);
type = Stem;
},
{
origin = (4,21);
target = (0,23);
type = Stem;
},
{
origin = (4,31);
target = (0,13);
type = Stem;
},
{
origin = (5,3);
target = (5,6);
type = Stem;
}
);
layerId = "E09D4F69-3ABD-4349-AFCF-7CB4B65C8749";
shapes = (
{
closed = 1;
nodes = (
(225,-20,ls),
(238,-20,o),
(250,-15,o),
(257,-3,c),
(335,105,l),
(671,105,l),
(671,14,ls),
(671,-6,o),
(685,-20,o),
(705,-20,c),
(1427,-20,l),
(1447,-20,o),
(1461,-7,o),
(1461,13,cs),
(1461,132,ls),
(1461,152,o),
(1447,166,o),
(1427,166,cs),
(881,166,l),
(881,252,l),
(1342,252,ls),
(1362,252,o),
(1376,265,o),
(1376,285,cs),
(1376,394,ls),
(1376,414,o),
(1362,428,o),
(1342,428,cs),
(881,428,l),
(881,513,l),
(1427,513,ls),
(1447,513,o),
(1461,527,o),
(1461,547,cs),
(1461,666,ls),
(1461,686,o),
(1447,700,o),
(1427,700,cs),
(512,700,ls),
(500,700,o),
(487,693,o),
(479,682,cs),
(36,27,ls),
(21,5,o),
(35,-20,o),
(61,-20,cs)
);
},
{
closed = 1;
nodes = (
(609,553,l),
(711,553,l),
(711,262,l),
(399,262,l)
);
},
{
closed = 1;
nodes = (
(691,282,l),
(691,533,l),
(619,533,l),
(438,282,l)
);
},
{
closed = 1;
nodes = (
(629,513,l),
(671,513,l),
(671,302,l),
(477,302,l)
);
},
{
closed = 1;
nodes = (
(51,0,o),
(47,7,o),
(53,16,cs),
(496,671,ls),
(500,677,o),
(506,680,o),
(512,680,cs),
(1427,680,ls),
(1436,680,o),
(1441,675,o),
(1441,666,cs),
(1441,547,ls),
(1441,538,o),
(1436,533,o),
(1427,533,cs),
(861,533,l),
(861,408,l),
(1342,408,ls),
(1351,408,o),
(1356,403,o),
(1356,394,cs),
(1356,285,ls),
(1356,276,o),
(1351,272,o),
(1342,272,cs),
(861,272,l),
(861,146,l),
(1427,146,ls),
(1436,146,o),
(1441,141,o),
(1441,132,cs),
(1441,13,ls),
(1441,4,o),
(1436,0,o),
(1427,0,c),
(705,0,l),
(696,0,o),
(691,5,o),
(691,14,cs),
(691,125,l),
(325,125,l),
(241,8,ls),
(237,2,o),
(231,0,o),
(225,0,cs),
(61,0,ls)
);
},
{
closed = 1;
nodes = (
(226,20,l),
(315,145,l),
(711,145,l),
(711,20,l),
(1421,20,l),
(1421,126,l),
(841,126,l),
(841,292,l),
(1336,292,l),
(1336,388,l),
(841,388,l),
(841,553,l),
(1421,553,l),
(1421,660,l),
(513,660,l),
(80,20,l)
);
}
);
width = 1491;
},
{
hints = (
{
horizontal = 1;
origin = (3,45);
target = (0,45);
type = Stem;
},
{
horizontal = 1;
origin = (3,26);
target = (0,18);
type = Stem;
},
{
horizontal = 1;
origin = (1,3);
target = (2,3);
type = Stem;
},
{
horizontal = 1;
origin = (3,16);
target = (0,28);
type = Stem;
},
{
horizontal = 1;
origin = (2,0);
target = (1,2);
type = Stem;
},
{
horizontal = 1;
origin = (3,6);
target = (0,38);
type = Stem;
},
{
horizontal = 1;
origin = (0,4);
target = (3,40);
type = Stem;
},
{
horizontal = 1;
origin = (0,19);
target = (3,25);
type = Stem;
},
{
place = (30, 20);
place = (30, 20);
type = Stem;
},
{
origin = (0,6);
target = (3,38);
type = Stem;
},
{
origin = (3,26);
target = (0,18);
type = Stem;
},
{
origin = (3,21);
target = (0,23);
type = Stem;
},
{
origin = (3,31);
target = (0,13);
type = Stem;
}
);
layerId = m003;
shapes = (
{
closed = 1;
nodes = (
(225,-20,ls),
(238,-20,o),
(250,-15,o),
(257,-3,c),
(335,105,l),
(671,105,l),
(671,14,ls),
(671,-6,o),
(685,-20,o),
(705,-20,c),
(1427,-20,l),
(1447,-20,o),
(1461,-7,o),
(1461,13,cs),
(1461,132,ls),
(1461,152,o),
(1447,166,o),
(1427,166,cs),
(881,166,l),
(881,252,l),
(1342,252,ls),
(1362,252,o),
(1376,265,o),
(1376,285,cs),
(1376,394,ls),
(1376,414,o),
(1362,428,o),
(1342,428,cs),
(881,428,l),
(881,513,l),
(1427,513,ls),
(1447,513,o),
(1461,527,o),
(1461,547,cs),
(1461,666,ls),
(1461,686,o),
(1447,700,o),
(1427,700,cs),
(512,700,ls),
(500,700,o),
(487,693,o),
(479,682,cs),
(36,27,ls),
(21,5,o),
(35,-20,o),
(61,-20,cs)
);
},
{
closed = 1;
nodes = (
(691,282,l),
(691,533,l),
(619,533,l),
(438,282,l)
);
},
{
closed = 1;
nodes = (
(629,513,l),
(671,513,l),
(671,302,l),
(477,302,l)
);
},
{
closed = 1;
nodes = (
(51,0,o),
(47,7,o),
(53,16,cs),
(496,671,ls),
(500,677,o),
(506,680,o),
(512,680,cs),
(1427,680,ls),
(1436,680,o),
(1441,675,o),
(1441,666,cs),
(1441,547,ls),
(1441,538,o),
(1436,533,o),
(1427,533,cs),
(861,533,l),
(861,408,l),
(1342,408,ls),
(1351,408,o),
(1356,403,o),
(1356,394,cs),
(1356,285,ls),
(1356,276,o),
(1351,272,o),
(1342,272,cs),
(861,272,l),
(861,146,l),
(1427,146,ls),
(1436,146,o),
(1441,141,o),
(1441,132,cs),
(1441,13,ls),
(1441,4,o),
(1436,0,o),
(1427,0,c),
(705,0,l),
(696,0,o),
(691,5,o),
(691,14,cs),
(691,125,l),
(325,125,l),
(241,8,ls),
(237,2,o),
(231,0,o),
(225,0,cs),
(61,0,ls)
);
}
);
width = 1491;
},
{
hints = (
{
horizontal = 1;
origin = (0,15);
target = (1,3);
type = Stem;
},
{
horizontal = 1;
origin = (0,7);
target = (0,10);
type = Stem;
},
{
horizontal = 1;
origin = (1,0);
target = (0,14);
type = Stem;
},
{
horizontal = 1;
origin = (0,15);
target = (0,6);
type = Stem;
},
{
horizontal = 1;
origin = (0,1);
target = (1,3);
type = Stem;
},
{
origin = (0,3);
target = (0,6);
type = Stem;
}
);
layerId = m004;
shapes = (
{
closed = 1;
nodes = (
(226,20,l),
(315,145,l),
(711,145,l),
(711,20,l),
(1421,20,l),
(1421,126,l),
(841,126,l),
(841,292,l),
(1336,292,l),
(1336,388,l),
(841,388,l),
(841,553,l),
(1421,553,l),
(1421,660,l),
(513,660,l),
(80,20,l)
);
},
{
closed = 1;
nodes = (
(609,553,l),
(711,553,l),
(711,262,l),
(399,262,l)
);
}
);
width = 1491;
}
);
unicode = (198,230);
},
{
glyphname = B;
kernLeft = E;
kernRight = B;
lastChange = "2023-04-05 05:25:07 +0000";
layers = (
{
anchors = (
{
name = top;
pos = (417,680);
}
);
hints = (
{
horizontal = 1;
origin = (1,9);
target = (0,16);
type = Stem;
},
{
horizontal = 1;
origin = (0,8);
target = (2,16);
type = Stem;
},
{
horizontal = 1;
origin = (1,2);
target = (2,8);
type = Stem;
},
{
horizontal = 1;
place = (273, 71);
place = (273, 71);
type = Stem;
},
{
origin = (1,6);
target = (1,0);
type = Stem;
},
{
origin = (0,12);
target = (0,3);
type = Stem;
},
{
origin = (2,12);
target = (2,3);
type = Stem;
}
);
layerId = m01;
shapes = (
{
closed = 1;
nodes = (
(635,0,ls),
(781,0,o),
(837,48,o),
(837,173,cs),
(837,303,o),
(787,347,o),
(637,347,cs),
(94,347,l),
(94,273,l),
(608,273,ls),
(640,273,o),
(665,248,o),
(665,216,cs),
(665,183,o),
(640,156,o),
(608,156,cs),
(94,156,l),
(94,0,l)
);
},
{
closed = 1;
nodes = (
(220,0,l),
(220,680,l),
(64,680,ls),
(55,680,o),
(50,675,o),
(50,666,cs),
(50,14,ls),
(50,5,o),
(55,0,o),
(64,0,cs)
);
},
{
closed = 1;
nodes = (
(603,335,ls),
(753,335,o),
(803,377,o),
(803,503,cs),
(803,631,o),
(747,680,o),
(601,680,cs),
(94,680,l),
(94,524,l),
(572,524,ls),
(604,524,o),
(629,498,o),
(629,466,cs),
(629,433,o),
(604,409,o),
(572,409,cs),
(94,409,l),
(94,335,l)
);
}
);
width = 887;
},
{
anchors = (
{
name = top;
pos = (417,680);
}
);
hints = (
{
horizontal = 1;
origin = (4,20);
target = (0,20);
type = Stem;
},
{
horizontal = 1;
origin = (2,8);
target = (3,8);
type = Stem;
},
{
horizontal = 1;
origin = (3,0);
target = (2,7);
type = Stem;
},
{
horizontal = 1;
origin = (7,8);
target = (8,8);
type = Stem;
},
{
horizontal = 1;
origin = (8,0);
target = (7,7);
type = Stem;
},
{
horizontal = 1;
origin = (4,6);
target = (0,13);
type = Stem;
},
{
horizontal = 1;
origin = (5,20);
target = (1,8);
type = Stem;
},
{
horizontal = 1;
origin = (1,0);
target = (6,8);
type = Stem;
},
{
horizontal = 1;
origin = (6,0);
target = (5,19);
type = Stem;
},
{
origin = (0,17);
target = (4,2);
type = Stem;
},
{
origin = (2,8);
target = (3,8);
type = Stem;
},
{
origin = (3,4);
target = (2,3);
type = Stem;
},
{
origin = (4,16);
target = (0,3);
type = Stem;
},
{
origin = (4,10);
target = (0,9);
type = Stem;
},
{
origin = (5,20);
target = (1,8);
type = Stem;
},
{
origin = (1,4);
target = (5,3);
type = Stem;
},
{
origin = (6,4);
target = (5,15);
type = Stem;
},
{
origin = (8,4);
target = (7,3);
type = Stem;
}
);
layerId = "E09D4F69-3ABD-4349-AFCF-7CB4B65C8749";
shapes = (
{
closed = 1;
nodes = (
(635,-20,ls),
(791,-20,o),
(857,36,o),
(857,173,cs),
(857,267,o),
(831,324,o),
(763,350,c),
(806,379,o),
(823,429,o),
(823,503,cs),
(823,643,o),
(758,700,o),
(601,700,cs),
(64,700,ls),
(44,700,o),
(30,686,o),
(30,666,cs),
(30,14,ls),
(30,-6,o),
(44,-20,o),
(64,-20,cs)
);
},
{
closed = 1;
nodes = (
(200,293,l),
(608,293,ls),
(651,293,o),
(685,259,o),
(685,216,cs),
(685,173,o),
(651,136,o),
(608,136,cs),
(200,136,l)
);
},
{
closed = 1;
nodes = (
(608,156,ls),
(640,156,o),
(665,183,o),
(665,216,cs),
(665,248,o),
(640,273,o),
(608,273,cs),
(220,273,l),
(220,156,l)
);
},
{
closed = 1;
nodes = (
(240,253,l),
(608,253,ls),
(632,253,o),
(645,240,o),
(645,216,cs),
(645,191,o),
(631,176,o),
(608,176,cs),
(240,176,l)
);
},
{
closed = 1;
nodes = (
(55,0,o),
(50,5,o),
(50,14,cs),
(50,666,ls),
(50,675,o),
(55,680,o),
(64,680,cs),
(601,680,ls),
(747,680,o),
(803,631,o),
(803,503,cs),
(803,409,o),
(775,362,o),
(699,344,c),
(801,332,o),
(837,283,o),
(837,173,cs),
(837,48,o),
(781,0,o),
(635,0,cs),
(64,0,ls)
);
},
{
closed = 1;
nodes = (
(635,20,ls),
(774,20,o),
(817,57,o),
(817,173,cs),
(817,276,o),
(787,311,o),
(694,325,cs),
(682,327,o),
(676,334,o),
(676,344,cs),
(676,354,o),
(682,360,o),
(694,363,cs),
(762,380,o),
(783,415,o),
(783,503,cs),
(783,622,o),
(739,660,o),
(601,660,cs),
(70,660,l),
(70,20,l)
);
},
{
closed = 1;
nodes = (
(200,544,l),
(572,544,ls),
(615,544,o),
(649,509,o),
(649,466,cs),
(649,422,o),
(615,389,o),
(572,389,cs),
(200,389,l)
);
},
{
closed = 1;
nodes = (
(572,409,ls),
(604,409,o),
(629,433,o),
(629,466,cs),
(629,498,o),
(604,524,o),
(572,524,cs),
(220,524,l),
(220,409,l)
);
},
{
closed = 1;
nodes = (
(240,504,l),
(572,504,ls),
(595,504,o),
(609,490,o),
(609,466,cs),
(609,442,o),
(596,429,o),
(572,429,cs),
(240,429,l)
);
}
);
width = 887;
},
{
anchors = (
{
name = top;
pos = (417,680);
}
);
hints = (
{
horizontal = 1;
origin = (3,20);
target = (0,20);
type = Stem;
},
{
horizontal = 1;
origin = (1,8);
target = (2,8);
type = Stem;
},
{
horizontal = 1;
origin = (2,0);
target = (1,7);
type = Stem;
},
{
horizontal = 1;
origin = (4,8);
target = (5,8);
type = Stem;
},
{
horizontal = 1;
origin = (5,0);
target = (4,7);
type = Stem;
},
{
horizontal = 1;
origin = (3,6);
target = (0,13);
type = Stem;
},
{
origin = (0,17);
target = (3,2);
type = Stem;
},
{
origin = (1,8);
target = (2,8);
type = Stem;
},
{
origin = (2,4);
target = (1,3);
type = Stem;
},
{
origin = (3,16);
target = (0,3);
type = Stem;
},
{
origin = (3,10);
target = (0,9);
type = Stem;
},
{
origin = (5,4);
target = (4,3);
type = Stem;
}
);
layerId = m003;
shapes = (
{
closed = 1;
nodes = (
(635,-20,ls),
(791,-20,o),
(857,36,o),
(857,173,cs),
(857,267,o),
(831,324,o),
(763,350,c),
(806,379,o),
(823,429,o),
(823,503,cs),
(823,643,o),
(758,700,o),
(601,700,cs),
(64,700,ls),
(44,700,o),
(30,686,o),
(30,666,cs),
(30,14,ls),
(30,-6,o),
(44,-20,o),
(64,-20,cs)
);
},
{
closed = 1;
nodes = (
(608,156,ls),
(640,156,o),
(665,183,o),
(665,216,cs),
(665,248,o),
(640,273,o),
(608,273,cs),
(220,273,l),
(220,156,l)
);
},
{
closed = 1;
nodes = (
(240,253,l),
(608,253,ls),
(632,253,o),
(645,240,o),
(645,216,cs),
(645,191,o),
(631,176,o),
(608,176,cs),
(240,176,l)
);
},
{
closed = 1;
nodes = (
(55,0,o),
(50,5,o),
(50,14,cs),
(50,666,ls),
(50,675,o),
(55,680,o),
(64,680,cs),
(601,680,ls),
(747,680,o),
(803,631,o),
(803,503,cs),
(803,409,o),
(775,362,o),
(699,344,c),
(801,332,o),
(837,283,o),
(837,173,cs),
(837,48,o),
(781,0,o),
(635,0,cs),
(64,0,ls)
);
},
{
closed = 1;
nodes = (
(572,409,ls),
(604,409,o),
(629,433,o),
(629,466,cs),
(629,498,o),
(604,524,o),
(572,524,cs),
(220,524,l),
(220,409,l)
);
},
{
closed = 1;
nodes = (
(240,504,l),
(572,504,ls),
(595,504,o),
(609,490,o),
(609,466,cs),
(609,442,o),
(596,429,o),
(572,429,cs),
(240,429,l)
);
}
);
width = 887;
},
{
anchors = (
{
name = top;
pos = (417,680);
}
);
hints = (
{
horizontal = 1;
origin = (0,20);
target = (1,8);
type = Stem;
},
{
horizontal = 1;
origin = (1,0);
target = (2,8);
type = Stem;
},
{
horizontal = 1;
origin = (2,0);
target = (0,19);
type = Stem;
},
{
origin = (0,20);
target = (1,8);
type = Stem;
},
{
origin = (1,4);
target = (0,3);
type = Stem;
},
{
origin = (2,4);
target = (0,15);
type = Stem;
}
);
layerId = m004;
shapes = (
{
closed = 1;
nodes = (
(635,20,ls),
(774,20,o),
(817,57,o),
(817,173,cs),
(817,276,o),
(787,311,o),
(694,325,cs),
(682,327,o),
(676,334,o),
(676,344,cs),
(676,354,o),
(682,360,o),
(694,363,cs),
(762,380,o),
(783,415,o),
(783,503,cs),
(783,622,o),
(739,660,o),
(601,660,cs),
(70,660,l),
(70,20,l)
);
},
{
closed = 1;
nodes = (
(200,293,l),
(608,293,ls),
(651,293,o),
(685,259,o),
(685,216,cs),
(685,173,o),
(651,136,o),
(608,136,cs),
(200,136,l)
);
},
{
closed = 1;
nodes = (
(200,544,l),
(572,544,ls),
(615,544,o),
(649,509,o),
(649,466,cs),
(649,422,o),
(615,389,o),
(572,389,cs),
(200,389,l)
);
}
);
width = 887;
}
);
unicode = (66,98);
},
{
glyphname = C;
kernLeft = O;
kernRight = O;
lastChange = "2023-04-05 05:14:12 +0000";
layers = (
{
anchors = (
{
name = bottom;
pos = (485,0);
},
{
name = top;
pos = (485,680);
}
);
hints = (
{
horizontal = 1;
origin = (0,47);
target = (0,16);
type = Stem;
},
{
horizontal = 1;
origin = (0,40);
target = (0,23);
type = Stem;
},
{
origin = (0,44);
target = (0,19);
type = Stem;
},
{
origin = (0,12);
target = (0,3);
type = Stem;
}
);
layerId = m01;
shapes = (
{
closed = 1;
nodes = (
(710,0,ls),
(852,0,o),
(920,69,o),
(920,211,cs),
(920,238,ls),
(920,247,o),
(916,252,o),
(907,252,cs),
(764,252,ls),
(755,252,o),
(750,247,o),
(750,238,cs),
(750,211,ls),
(750,188,o),
(733,170,o),
(710,170,cs),
(261,170,ls),
(238,170,o),
(220,188,o),
(220,211,cs),
(220,469,ls),
(220,492,o),
(238,510,o),
(261,510,cs),
(710,510,ls),
(733,510,o),
(750,492,o),
(750,469,cs),
(750,442,ls),
(750,433,o),
(755,428,o),
(764,428,cs),
(907,428,ls),
(916,428,o),
(920,433,o),
(920,442,cs),
(920,469,ls),
(920,611,o),
(852,680,o),
(710,680,cs),
(261,680,ls),
(119,680,o),
(50,611,o),
(50,469,cs),
(50,211,ls),
(50,69,o),
(119,0,o),
(261,0,cs)
);
}
);
width = 970;
},
{
anchors = (
{
name = bottom;
pos = (485,0);
},
{
name = top;
pos = (485,680);
}
);
hints = (
{
horizontal = 1;
origin = (1,47);
target = (0,47);
type = Stem;
},
{
horizontal = 1;
origin = (1,30);
target = (0,16);
type = Stem;
},
{
horizontal = 1;
origin = (1,38);
target = (0,8);
type = Stem;
},
{
horizontal = 1;
origin = (0,31);
target = (1,15);
type = Stem;
},
{
horizontal = 1;
origin = (0,23);
target = (1,23);
type = Stem;
},
{
horizontal = 1;
origin = (1,6);
target = (0,40);
type = Stem;
},
{
horizontal = 1;
origin = (2,35);
target = (2,10);
type = Stem;
},
{
horizontal = 1;
origin = (1,30);
target = (2,5);
type = Stem;
},
{
horizontal = 1;
origin = (2,17);
target = (2,28);
type = Stem;
},
{
horizontal = 1;
origin = (2,22);
target = (1,23);
type = Stem;
},
{
origin = (0,44);
target = (1,2);
type = Stem;
},
{
origin = (1,27);
target = (0,19);
type = Stem;
},
{
origin = (0,12);
target = (1,34);
type = Stem;
},
{
origin = (1,43);
target = (0,3);
type = Stem;
},
{
origin = (2,32);
target = (2,13);
type = Stem;
},
{
origin = (2,6);
target = (2,3);
type = Stem;
}
);
layerId = "E09D4F69-3ABD-4349-AFCF-7CB4B65C8749";
shapes = (
{
closed = 1;
nodes = (
(710,-20,ls),
(863,-20,o),
(940,58,o),
(940,211,cs),
(940,238,ls),
(940,258,o),
(927,272,o),
(907,272,cs),
(764,272,ls),
(744,272,o),
(730,258,o),
(730,238,cs),
(730,211,ls),
(730,196,o),
(724,190,o),
(710,190,cs),
(261,190,ls),
(246,190,o),
(240,196,o),
(240,211,cs),
(240,469,ls),
(240,484,o),
(246,490,o),
(261,490,cs),
(710,490,ls),
(724,490,o),
(730,484,o),
(730,469,cs),
(730,442,ls),
(730,422,o),
(744,408,o),
(764,408,cs),
(907,408,ls),
(927,408,o),
(940,422,o),
(940,442,cs),
(940,469,ls),
(940,622,o),
(863,700,o),
(710,700,cs),
(261,700,ls),
(108,700,o),
(30,622,o),
(30,469,cs),
(30,211,ls),
(30,58,o),
(108,-20,o),
(261,-20,cs)
);
},
{
closed = 1;
nodes = (
(119,0,o),
(50,69,o),
(50,211,cs),
(50,469,ls),
(50,611,o),
(119,680,o),
(261,680,cs),
(710,680,ls),
(852,680,o),
(920,611,o),
(920,469,cs),
(920,442,ls),
(920,433,o),
(916,428,o),
(907,428,cs),
(764,428,ls),
(755,428,o),
(750,433,o),
(750,442,cs),
(750,469,ls),
(750,492,o),
(733,510,o),
(710,510,cs),
(261,510,ls),
(238,510,o),
(220,492,o),
(220,469,cs),
(220,211,ls),
(220,188,o),
(238,170,o),
(261,170,cs),
(710,170,ls),
(733,170,o),
(750,188,o),
(750,211,cs),
(750,238,ls),
(750,247,o),
(755,252,o),
(764,252,cs),
(907,252,ls),
(916,252,o),
(920,247,o),
(920,238,cs),
(920,211,ls),
(920,69,o),
(852,0,o),
(710,0,cs),
(261,0,ls)
);
},
{
closed = 1;
nodes = (
(710,20,ls),
(844,20,o),
(900,77,o),
(900,211,cs),
(900,232,l),
(770,232,l),
(770,211,ls),
(770,177,o),
(744,150,o),
(710,150,cs),
(261,150,ls),
(227,150,o),
(200,177,o),
(200,211,cs),
(200,469,ls),
(200,503,o),
(227,530,o),
(261,530,cs),
(710,530,ls),
(744,530,o),
(770,503,o),
(770,469,cs),
(770,449,l),
(900,449,l),
(900,469,ls),
(900,603,o),
(844,660,o),
(710,660,cs),
(261,660,ls),
(127,660,o),
(70,603,o),
(70,469,cs),
(70,211,ls),
(70,77,o),
(127,20,o),
(261,20,cs)
);
}
);
width = 970;
},
{
anchors = (
{
name = bottom;
pos = (485,0);
},
{
name = top;
pos = (485,680);
}
);
hints = (
{
horizontal = 1;
origin = (1,47);
target = (0,47);
type = Stem;
},
{
horizontal = 1;
origin = (1,30);
target = (0,16);
type = Stem;
},
{
horizontal = 1;
origin = (1,38);
target = (0,8);
type = Stem;
},
{
horizontal = 1;
origin = (0,31);
target = (1,15);
type = Stem;
},
{
horizontal = 1;
origin = (0,23);
target = (1,23);
type = Stem;
},
{
horizontal = 1;
origin = (1,6);
target = (0,40);
type = Stem;
},
{
origin = (0,44);
target = (1,2);
type = Stem;
},
{
origin = (1,27);
target = (0,19);
type = Stem;
},
{
origin = (0,12);
target = (1,34);
type = Stem;
},
{
origin = (1,43);
target = (0,3);
type = Stem;
}
);
layerId = m003;
shapes = (
{
closed = 1;
nodes = (
(710,-20,ls),
(863,-20,o),
(940,58,o),
(940,211,cs),
(940,238,ls),
(940,258,o),
(927,272,o),
(907,272,cs),
(764,272,ls),
(744,272,o),
(730,258,o),
(730,238,cs),
(730,211,ls),
(730,196,o),
(724,190,o),
(710,190,cs),
(261,190,ls),
(246,190,o),
(240,196,o),
(240,211,cs),
(240,469,ls),
(240,484,o),
(246,490,o),
(261,490,cs),
(710,490,ls),
(724,490,o),
(730,484,o),
(730,469,cs),
(730,442,ls),
(730,422,o),
(744,408,o),
(764,408,cs),
(907,408,ls),
(927,408,o),
(940,422,o),
(940,442,cs),
(940,469,ls),
(940,622,o),
(863,700,o),
(710,700,cs),
(261,700,ls),
(108,700,o),
(30,622,o),
(30,469,cs),
(30,211,ls),
(30,58,o),
(108,-20,o),
(261,-20,cs)
);
},
{
closed = 1;
nodes = (
(119,0,o),
(50,69,o),
(50,211,cs),
(50,469,ls),
(50,611,o),
(119,680,o),
(261,680,cs),
(710,680,ls),
(852,680,o),
(920,611,o),
(920,469,cs),
(920,442,ls),
(920,433,o),
(916,428,o),
(907,428,cs),
(764,428,ls),
(755,428,o),
(750,433,o),
(750,442,cs),
(750,469,ls),
(750,492,o),
(733,510,o),
(710,510,cs),
(261,510,ls),
(238,510,o),
(220,492,o),
(220,469,cs),
(220,211,ls),
(220,188,o),
(238,170,o),
(261,170,cs),
(710,170,ls),
(733,170,o),
(750,188,o),
(750,211,cs),
(750,238,ls),
(750,247,o),
(755,252,o),
(764,252,cs),
(907,252,ls),
(916,252,o),
(920,247,o),
(920,238,cs),
(920,211,ls),
(920,69,o),
(852,0,o),
(710,0,cs),
(261,0,ls)
);
}
);
width = 970;
},
{
anchors = (
{
name = bottom;
pos = (485,0);
},
{
name = top;
pos = (485,680);
}
);
hints = (
{
horizontal = 1;
origin = (0,35);
target = (0,10);
type = Stem;
},
{
horizontal = 1;
origin = (0,17);
target = (0,28);
type = Stem;
},
{
origin = (0,32);
target = (0,13);
type = Stem;
},
{
origin = (0,6);
target = (0,3);
type = Stem;
}
);
layerId = m004;
shapes = (
{
closed = 1;
nodes = (
(710,20,ls),
(844,20,o),
(900,77,o),
(900,211,cs),
(900,232,l),
(770,232,l),
(770,211,ls),
(770,177,o),
(744,150,o),
(710,150,cs),
(261,150,ls),
(227,150,o),
(200,177,o),
(200,211,cs),
(200,469,ls),
(200,503,o),
(227,530,o),
(261,530,cs),
(710,530,ls),
(744,530,o),
(770,503,o),
(770,469,cs),
(770,449,l),
(900,449,l),
(900,469,ls),
(900,603,o),
(844,660,o),
(710,660,cs),
(261,660,ls),
(127,660,o),
(70,603,o),
(70,469,cs),
(70,211,ls),
(70,77,o),
(127,20,o),
(261,20,cs)
);
}
);
width = 970;
}
);
unicode = (67,99);
},
{
glyphname = Ccedilla;
kernLeft = O;
kernRight = O;
lastChange = "2023-04-05 05:14:12 +0000";
layers = (
{
layerId = m01;
shapes = (
{
ref = C;
},
{
pos = (345,0);
ref = cedillacomb;
}
);
width = 970;
},
{
anchors = (
{
name = bottom;
pos = (485,0);
},
{
name = top;
pos = (485,680);
}
);
hints = (
{
horizontal = 1;
origin = (0,72);
target = (1,72);
type = Stem;
},
{
horizontal = 1;
origin = (1,6);
target = (0,65);
type = Stem;
},
{
horizontal = 1;
origin = (0,62);
target = (1,9);
type = Stem;
},
{
horizontal = 1;
origin = (1,14);
target = (0,57);
type = Stem;
},
{
horizontal = 1;
origin = (1,45);
target = (0,26);
type = Stem;
},
{
horizontal = 1;
origin = (1,53);
target = (0,18);
type = Stem;
},
{
horizontal = 1;
origin = (0,41);
target = (1,30);
type = Stem;
},
{
horizontal = 1;
origin = (0,33);
target = (1,38);
type = Stem;
},
{
horizontal = 1;
origin = (1,21);
target = (0,50);
type = Stem;
},
{
horizontal = 1;
origin = (1,63);
target = (0,8);
type = Stem;
},
{
horizontal = 1;
origin = (2,51);
target = (2,50);
type = Stem;
},
{
horizontal = 1;
origin = (2,47);
target = (2,8);
type = Stem;
},
{
horizontal = 1;
origin = (2,45);
target = (2,20);
type = Stem;
},
{
horizontal = 1;
origin = (1,45);
target = (2,15);
type = Stem;
},
{
horizontal = 1;
origin = (2,27);
target = (2,38);
type = Stem;
},
{
horizontal = 1;
origin = (2,32);
target = (1,38);
type = Stem;
},
{
origin = (0,54);
target = (1,17);
type = Stem;
},
{
origin = (1,42);
target = (0,29);
type = Stem;
},
{
origin = (0,69);
target = (1,2);
type = Stem;
},
{
origin = (0,59);
target = (1,12);
type = Stem;
},
{
origin = (0,64);
target = (1,7);
type = Stem;
},
{
origin = (1,68);
target = (0,3);
type = Stem;
},
{
origin = (0,22);
target = (1,49);
type = Stem;
},
{
origin = (1,58);
target = (0,13);
type = Stem;
},
{
origin = (1,63);
target = (0,8);
type = Stem;
},
{
origin = (2,42);
target = (2,23);
type = Stem;
},
{
origin = (2,47);
target = (2,8);
type = Stem;
},
{
origin = (2,49);
target = (2,3);
type = Stem;
},
{
origin = (2,16);
target = (2,13);
type = Stem;
}
);
layerId = "E09D4F69-3ABD-4349-AFCF-7CB4B65C8749";
shapes = (
{
closed = 1;
nodes = (
(584,-326,ls),
(639,-326,o),
(672,-293,o),
(672,-239,cs),
(672,-133,ls),
(672,-79,o),
(639,-45,o),
(584,-45,cs),
(539,-45,l),
(539,-20,l),
(710,-20,ls),
(863,-20,o),
(940,58,o),
(940,211,cs),
(940,238,ls),
(940,258,o),
(927,272,o),
(907,272,cs),
(764,272,ls),
(744,272,o),
(730,258,o),
(730,238,cs),
(730,211,ls),
(730,196,o),
(724,190,o),
(710,190,cs),
(261,190,ls),
(246,190,o),
(240,196,o),
(240,211,cs),
(240,469,ls),
(240,484,o),
(246,490,o),
(261,490,cs),
(710,490,ls),
(724,490,o),
(730,484,o),
(730,469,cs),
(730,442,ls),
(730,422,o),
(744,408,o),
(764,408,cs),
(907,408,ls),
(927,408,o),
(940,422,o),
(940,442,cs),
(940,469,ls),
(940,622,o),
(863,700,o),
(710,700,cs),
(261,700,ls),
(108,700,o),
(30,622,o),
(30,469,cs),
(30,211,ls),
(30,58,o),
(108,-20,o),
(261,-20,cs),
(431,-20,l),
(431,-116,ls),
(431,-138,o),
(447,-154,o),
(469,-154,cs),
(563,-154,l),
(563,-186,l),
(409,-186,ls),
(389,-186,o),
(375,-200,o),
(375,-220,cs),
(375,-292,ls),
(375,-312,o),
(389,-326,o),
(409,-326,cs)
);
},
{
closed = 1;
nodes = (
(400,-306,o),
(395,-301,o),
(395,-292,cs),
(395,-220,ls),
(395,-211,o),
(400,-206,o),
(409,-206,cs),
(583,-206,l),
(583,-134,l),
(469,-134,ls),
(458,-134,o),
(451,-127,o),
(451,-116,cs),
(451,0,l),
(261,0,ls),
(119,0,o),
(50,69,o),
(50,211,cs),
(50,469,ls),
(50,611,o),
(119,680,o),
(261,680,cs),
(710,680,ls),
(852,680,o),
(920,611,o),
(920,469,cs),
(920,442,ls),
(920,433,o),
(916,428,o),
(907,428,cs),
(764,428,ls),
(755,428,o),
(750,433,o),
(750,442,cs),
(750,469,ls),
(750,492,o),
(733,510,o),
(710,510,cs),
(261,510,ls),
(238,510,o),
(220,492,o),
(220,469,cs),
(220,211,ls),
(220,188,o),
(238,170,o),
(261,170,cs),
(710,170,ls),
(733,170,o),
(750,188,o),
(750,211,cs),
(750,238,ls),
(750,247,o),
(755,252,o),
(764,252,cs),
(907,252,ls),
(916,252,o),
(920,247,o),
(920,238,cs),
(920,211,ls),
(920,69,o),
(852,0,o),
(710,0,cs),
(519,0,l),
(519,-65,l),
(584,-65,ls),
(628,-65,o),
(652,-90,o),
(652,-133,cs),
(652,-239,ls),
(652,-282,o),
(628,-306,o),
(584,-306,cs),
(409,-306,ls)
);
},
{
closed = 1;
nodes = (
(584,-286,ls),
(620,-286,o),
(632,-274,o),
(632,-239,cs),
(632,-133,ls),
(632,-98,o),
(619,-85,o),
(584,-85,cs),
(499,-85,l),
(499,20,l),
(710,20,ls),
(844,20,o),
(900,77,o),
(900,211,cs),
(900,232,l),
(770,232,l),
(770,211,ls),
(770,177,o),
(744,150,o),
(710,150,cs),
(261,150,ls),
(227,150,o),
(200,177,o),
(200,211,cs),
(200,469,ls),
(200,503,o),
(227,530,o),
(261,530,cs),
(710,530,ls),
(744,530,o),
(770,503,o),
(770,469,cs),
(770,449,l),
(900,449,l),
(900,469,ls),
(900,603,o),
(844,660,o),
(710,660,cs),
(261,660,ls),
(127,660,o),
(70,603,o),
(70,469,cs),
(70,211,ls),
(70,77,o),
(127,20,o),
(261,20,cs),
(471,20,l),
(471,-114,l),
(603,-114,l),
(603,-226,l),
(415,-226,l),
(415,-286,l)
);
}
);
width = 970;
},
{
anchors = (
{
name = bottom;
pos = (485,0);
},
{
name = top;
pos = (485,680);
}
);
hints = (
{
horizontal = 1;
origin = (0,72);
target = (1,72);
type = Stem;
},
{
horizontal = 1;
origin = (1,6);
target = (0,65);
type = Stem;
},
{
horizontal = 1;
origin = (0,62);
target = (1,9);
type = Stem;
},
{
horizontal = 1;
origin = (1,14);
target = (0,57);
type = Stem;
},
{
horizontal = 1;
origin = (1,45);
target = (0,26);
type = Stem;
},
{
horizontal = 1;
origin = (1,53);
target = (0,18);
type = Stem;
},
{
horizontal = 1;
origin = (0,41);
target = (1,30);
type = Stem;
},
{
horizontal = 1;
origin = (0,33);
target = (1,38);
type = Stem;
},
{
horizontal = 1;
origin = (1,21);
target = (0,50);
type = Stem;
},
{
horizontal = 1;
origin = (1,63);
target = (0,8);
type = Stem;
},
{
origin = (0,54);
target = (1,17);
type = Stem;
},
{
origin = (1,42);
target = (0,29);
type = Stem;
},
{
origin = (0,69);
target = (1,2);
type = Stem;
},
{
origin = (0,59);
target = (1,12);
type = Stem;
},
{
origin = (0,64);
target = (1,7);
type = Stem;
},
{
origin = (1,68);
target = (0,3);
type = Stem;
},
{
origin = (0,22);
target = (1,49);
type = Stem;
},
{
origin = (1,58);
target = (0,13);
type = Stem;
},
{
origin = (1,63);
target = (0,8);
type = Stem;
}
);
layerId = m003;
shapes = (
{
closed = 1;
nodes = (
(584,-326,ls),
(639,-326,o),
(672,-293,o),
(672,-239,cs),
(672,-133,ls),
(672,-79,o),
(639,-45,o),
(584,-45,cs),
(539,-45,l),
(539,-20,l),
(710,-20,ls),
(863,-20,o),
(940,58,o),
(940,211,cs),
(940,238,ls),
(940,258,o),
(927,272,o),
(907,272,cs),
(764,272,ls),
(744,272,o),
(730,258,o),
(730,238,cs),
(730,211,ls),
(730,196,o),
(724,190,o),
(710,190,cs),
(261,190,ls),
(246,190,o),
(240,196,o),
(240,211,cs),
(240,469,ls),
(240,484,o),
(246,490,o),
(261,490,cs),
(710,490,ls),
(724,490,o),
(730,484,o),
(730,469,cs),
(730,442,ls),
(730,422,o),
(744,408,o),
(764,408,cs),
(907,408,ls),
(927,408,o),
(940,422,o),
(940,442,cs),
(940,469,ls),
(940,622,o),
(863,700,o),
(710,700,cs),
(261,700,ls),
(108,700,o),
(30,622,o),
(30,469,cs),
(30,211,ls),
(30,58,o),
(108,-20,o),
(261,-20,cs),
(431,-20,l),
(431,-116,ls),
(431,-138,o),
(447,-154,o),
(469,-154,cs),
(563,-154,l),
(563,-186,l),
(409,-186,ls),
(389,-186,o),
(375,-200,o),
(375,-220,cs),
(375,-292,ls),
(375,-312,o),
(389,-326,o),
(409,-326,cs)
);
},
{
closed = 1;
nodes = (
(400,-306,o),
(395,-301,o),
(395,-292,cs),
(395,-220,ls),
(395,-211,o),
(400,-206,o),
(409,-206,cs),
(583,-206,l),
(583,-134,l),
(469,-134,ls),
(458,-134,o),
(451,-127,o),
(451,-116,cs),
(451,0,l),
(261,0,ls),
(119,0,o),
(50,69,o),
(50,211,cs),
(50,469,ls),
(50,611,o),
(119,680,o),
(261,680,cs),
(710,680,ls),
(852,680,o),
(920,611,o),
(920,469,cs),
(920,442,ls),
(920,433,o),
(916,428,o),
(907,428,cs),
(764,428,ls),
(755,428,o),
(750,433,o),
(750,442,cs),
(750,469,ls),
(750,492,o),
(733,510,o),
(710,510,cs),
(261,510,ls),
(238,510,o),
(220,492,o),
(220,469,cs),
(220,211,ls),
(220,188,o),
(238,170,o),
(261,170,cs),
(710,170,ls),
(733,170,o),
(750,188,o),
(750,211,cs),
(750,238,ls),
(750,247,o),
(755,252,o),
(764,252,cs),
(907,252,ls),
(916,252,o),
(920,247,o),
(920,238,cs),
(920,211,ls),
(920,69,o),
(852,0,o),
(710,0,cs),
(519,0,l),
(519,-65,l),
(584,-65,ls),
(628,-65,o),
(652,-90,o),
(652,-133,cs),
(652,-239,ls),
(652,-282,o),
(628,-306,o),
(584,-306,cs),
(409,-306,ls)
);
}
);
width = 970;
},
{
anchors = (
{
name = bottom;
pos = (485,0);
},
{
name = top;
pos = (485,680);
}
);
hints = (
{
horizontal = 1;
origin = (0,51);
target = (0,50);
type = Stem;
},
{
horizontal = 1;
origin = (0,47);
target = (0,8);
type = Stem;
},
{
horizontal = 1;
origin = (0,45);
target = (0,20);
type = Stem;
},
{
horizontal = 1;
origin = (0,27);
target = (0,38);
type = Stem;
},
{
origin = (0,42);
target = (0,23);
type = Stem;
},
{
origin = (0,47);
target = (0,8);
type = Stem;
},
{
origin = (0,49);
target = (0,3);
type = Stem;
},
{
origin = (0,16);
target = (0,13);
type = Stem;
}
);
layerId = m004;
shapes = (
{
closed = 1;
nodes = (
(584,-286,ls),
(620,-286,o),
(632,-274,o),
(632,-239,cs),
(632,-133,ls),
(632,-98,o),
(619,-85,o),
(584,-85,cs),
(499,-85,l),
(499,20,l),
(710,20,ls),
(844,20,o),
(900,77,o),
(900,211,cs),
(900,232,l),
(770,232,l),
(770,211,ls),
(770,177,o),
(744,150,o),
(710,150,cs),
(261,150,ls),
(227,150,o),
(200,177,o),
(200,211,cs),
(200,469,ls),
(200,503,o),
(227,530,o),
(261,530,cs),
(710,530,ls),
(744,530,o),
(770,503,o),
(770,469,cs),
(770,449,l),
(900,449,l),
(900,469,ls),
(900,603,o),
(844,660,o),
(710,660,cs),
(261,660,ls),
(127,660,o),
(70,603,o),
(70,469,cs),
(70,211,ls),
(70,77,o),
(127,20,o),
(261,20,cs),
(471,20,l),
(471,-114,l),
(603,-114,l),
(603,-226,l),
(415,-226,l),
(415,-286,l)
);
}
);
width = 970;
}
);
unicode = (199,231);
},
{
glyphname = D;
kernLeft = I;
kernRight = O;
lastChange = "2023-04-05 05:14:12 +0000";
layers = (
{
anchors = (
{
name = top;
pos = (475,680);
}
);
hints = (
{
horizontal = 1;
origin = (0,15);
target = (1,10);
type = Stem;
},
{
horizontal = 1;
origin = (0,8);
target = (1,1);
type = Stem;
},
{
origin = (0,12);
target = (1,11);
type = Stem;
},
{
origin = (1,6);
target = (0,3);
type = Stem;
}
);
layerId = m01;
shapes = (
{
closed = 1;
nodes = (
(710,0,ls),
(852,0,o),
(920,69,o),
(920,211,cs),
(920,469,ls),
(920,611,o),
(852,680,o),
(710,680,cs),
(64,680,ls),
(55,680,o),
(50,675,o),
(50,666,cs),
(50,14,ls),
(50,5,o),
(55,0,o),
(64,0,cs)
);
},
{
closed = 1;
nodes = (
(220,541,l),
(189,510,l),
(710,510,ls),
(733,510,o),
(750,492,o),
(750,469,cs),
(750,211,ls),
(750,188,o),
(733,170,o),
(710,170,cs),
(189,170,l),
(220,139,l)
);
}
);
width = 970;
},
{
anchors = (
{
name = top;
pos = (475,680);
}
);
hints = (
{
horizontal = 1;
origin = (1,15);
target = (0,15);
type = Stem;
},
{
horizontal = 1;
origin = (4,9);
target = (5,9);
type = Stem;
},
{
horizontal = 1;
origin = (5,0);
target = (4,8);
type = Stem;
},
{
horizontal = 1;
origin = (1,6);
target = (0,8);
type = Stem;
},
{
horizontal = 1;
origin = (2,9);
target = (3,9);
type = Stem;
},
{
horizontal = 1;
origin = (3,0);
target = (2,8);
type = Stem;
},
{
origin = (0,12);
target = (1,2);
type = Stem;
},
{
origin = (4,9);
target = (5,9);
type = Stem;
},
{
origin = (5,5);
target = (4,3);
type = Stem;
},
{
origin = (1,11);
target = (0,3);
type = Stem;
},
{
origin = (2,9);
target = (3,9);
type = Stem;
},
{
origin = (3,5);
target = (2,3);
type = Stem;
}
);
layerId = "E09D4F69-3ABD-4349-AFCF-7CB4B65C8749";
shapes = (
{
closed = 1;
nodes = (
(710,-20,ls),
(863,-20,o),
(940,58,o),
(940,211,cs),
(940,469,ls),
(940,622,o),
(863,700,o),
(710,700,cs),
(64,700,ls),
(44,700,o),
(30,686,o),
(30,666,cs),
(30,14,ls),
(30,-6,o),
(44,-20,o),
(64,-20,cs)
);
},
{
closed = 1;
nodes = (
(55,0,o),
(50,5,o),
(50,14,cs),
(50,666,ls),
(50,675,o),
(55,680,o),
(64,680,cs),
(710,680,ls),
(852,680,o),
(920,611,o),
(920,469,cs),
(920,211,ls),
(920,69,o),
(852,0,o),
(710,0,cs),
(64,0,ls)
);
},
{
closed = 1;
nodes = (
(710,20,ls),
(844,20,o),
(900,77,o),
(900,211,cs),
(900,469,ls),
(900,603,o),
(844,660,o),
(710,660,cs),
(70,660,l),
(70,20,l)
);
},
{
closed = 1;
nodes = (
(200,530,l),
(710,530,ls),
(744,530,o),
(770,503,o),
(770,469,cs),
(770,211,ls),
(770,177,o),
(744,150,o),
(710,150,cs),
(200,150,l)
);
},
{
closed = 1;
nodes = (
(710,170,ls),
(733,170,o),
(750,188,o),
(750,211,cs),
(750,469,ls),
(750,492,o),
(733,510,o),
(710,510,cs),
(220,510,l),
(220,170,l)
);
},
{
closed = 1;
nodes = (
(240,490,l),
(710,490,ls),
(724,490,o),
(730,484,o),
(730,469,cs),
(730,211,ls),
(730,196,o),
(724,190,o),
(710,190,cs),
(240,190,l)
);
}
);
width = 970;
},
{
anchors = (
{
name = top;
pos = (475,680);
}
);
hints = (
{
horizontal = 1;
origin = (1,15);
target = (0,15);
type = Stem;
},
{
horizontal = 1;
origin = (2,9);
target = (3,9);
type = Stem;
},
{
horizontal = 1;
origin = (3,0);
target = (2,8);
type = Stem;
},
{
horizontal = 1;
origin = (1,6);
target = (0,8);
type = Stem;
},
{
origin = (0,12);
target = (1,2);
type = Stem;
},
{
origin = (2,9);
target = (3,9);
type = Stem;
},
{
origin = (3,5);
target = (2,3);
type = Stem;
},
{
origin = (1,11);
target = (0,3);
type = Stem;
}
);
layerId = m003;
shapes = (
{
closed = 1;
nodes = (
(710,-20,ls),
(863,-20,o),
(940,58,o),
(940,211,cs),
(940,469,ls),
(940,622,o),
(863,700,o),
(710,700,cs),
(64,700,ls),
(44,700,o),
(30,686,o),
(30,666,cs),
(30,14,ls),
(30,-6,o),
(44,-20,o),
(64,-20,cs)
);
},
{
closed = 1;
nodes = (
(55,0,o),
(50,5,o),
(50,14,cs),
(50,666,ls),
(50,675,o),
(55,680,o),
(64,680,cs),
(710,680,ls),
(852,680,o),
(920,611,o),
(920,469,cs),
(920,211,ls),
(920,69,o),
(852,0,o),
(710,0,cs),
(64,0,ls)
);
},
{
closed = 1;
nodes = (
(710,170,ls),
(733,170,o),
(750,188,o),
(750,211,cs),
(750,469,ls),
(750,492,o),
(733,510,o),
(710,510,cs),
(220,510,l),
(220,170,l)
);
},
{
closed = 1;
nodes = (
(240,490,l),
(710,490,ls),
(724,490,o),
(730,484,o),
(730,469,cs),
(730,211,ls),
(730,196,o),
(724,190,o),
(710,190,cs),
(240,190,l)
);
}
);
width = 970;
},
{
anchors = (
{
name = top;
pos = (475,680);
}
);
hints = (
{
horizontal = 1;
origin = (0,9);
target = (1,9);
type = Stem;
},
{
horizontal = 1;
origin = (1,0);
target = (0,8);
type = Stem;
},
{
origin = (0,9);
target = (1,9);
type = Stem;
},
{
origin = (1,5);
target = (0,3);
type = Stem;
}
);
layerId = m004;
shapes = (
{
closed = 1;
nodes = (
(710,20,ls),
(844,20,o),
(900,77,o),
(900,211,cs),
(900,469,ls),
(900,603,o),
(844,660,o),
(710,660,cs),
(70,660,l),
(70,20,l)
);
},
{
closed = 1;
nodes = (
(200,530,l),
(710,530,ls),
(744,530,o),
(770,503,o),
(770,469,cs),
(770,211,ls),
(770,177,o),
(744,150,o),
(710,150,cs),
(200,150,l)
);
}
);
width = 970;
}
);
unicode = (68,100);
},
{
glyphname = D.ss01;
kernLeft = I;
kernRight = O;
lastChange = "2023-04-05 05:14:12 +0000";
layers = (
{
anchors = (
{
name = top;
pos = (492,680);
}
);
hints = (
{
horizontal = 1;
origin = (0,31);
target = (0,24);
type = Stem;
},
{
horizontal = 1;
origin = (0,8);
target = (0,15);
type = Stem;
},
{
origin = (1,3);
target = (1,0);
type = Stem;
},
{
origin = (0,20);
target = (0,3);
type = Stem;
}
);
layerId = m01;
shapes = (
{
closed = 1;
nodes = (
(731,0,ls),
(873,0,o),
(942,69,o),
(942,211,cs),
(942,469,ls),
(942,611,o),
(873,680,o),
(731,680,cs),
(64,680,ls),
(55,680,o),
(50,675,o),
(50,666,cs),
(50,524,ls),
(50,515,o),
(55,510,o),
(64,510,cs),
(731,510,ls),
(754,510,o),
(772,492,o),
(772,469,cs),
(772,211,ls),
(772,188,o),
(754,170,o),
(731,170,cs),
(64,170,ls),
(55,170,o),
(50,165,o),
(50,156,cs),
(50,14,ls),
(50,5,o),
(55,0,o),
(64,0,cs)
);
},
{
closed = 1;
nodes = (
(280,85,l),
(280,595,l),
(110,595,l),
(110,85,l)
);
}
);
width = 992;
},
{
anchors = (
{
name = top;
pos = (492,680);
}
);
hints = (
{
horizontal = 1;
origin = (1,25);
target = (0,25);
type = Stem;
},
{
horizontal = 1;
origin = (1,6);
target = (0,18);
type = Stem;
},
{
horizontal = 1;
origin = (0,15);
target = (1,9);
type = Stem;
},
{
horizontal = 1;
origin = (1,16);
target = (0,8);
type = Stem;
},
{
horizontal = 1;
origin = (2,13);
target = (2,12);
type = Stem;
},
{
horizontal = 1;
origin = (2,9);
target = (2,8);
type = Stem;
},
{
origin = (0,22);
target = (1,2);
type = Stem;
},
{
origin = (0,17);
target = (1,7);
type = Stem;
},
{
origin = (4,9);
target = (5,9);
type = Stem;
},
{
origin = (5,5);
target = (4,3);
type = Stem;
},
{
origin = (1,21);
target = (0,3);
type = Stem;
},
{
origin = (2,13);
target = (1,7);
type = Stem;
},
{
origin = (3,5);
target = (2,3);
type = Stem;
},
{
origin = (2,11);
target = (3,9);
type = Stem;
}
);
layerId = "E09D4F69-3ABD-4349-AFCF-7CB4B65C8749";
shapes = (
{
closed = 1;
nodes = (
(731,-20,ls),
(884,-20,o),
(962,58,o),
(962,211,cs),
(962,469,ls),
(962,622,o),
(884,700,o),
(731,700,cs),
(64,700,ls),
(44,700,o),
(30,686,o),
(30,666,cs),
(30,524,ls),
(30,504,o),
(44,490,o),
(64,490,cs),
(90,490,l),
(90,190,l),
(64,190,ls),
(44,190,o),
(30,176,o),
(30,156,cs),
(30,14,ls),
(30,-6,o),
(44,-20,o),
(64,-20,cs)
);
},
{
closed = 1;
nodes = (
(55,0,o),
(50,5,o),
(50,14,cs),
(50,156,ls),
(50,165,o),
(55,170,o),
(64,170,cs),
(110,170,l),
(110,510,l),
(64,510,ls),
(55,510,o),
(50,515,o),
(50,524,cs),
(50,666,ls),
(50,675,o),
(55,680,o),
(64,680,cs),
(731,680,ls),
(873,680,o),
(942,611,o),
(942,469,cs),
(942,211,ls),
(942,69,o),
(873,0,o),
(731,0,cs),
(64,0,ls)
);
},
{
closed = 1;
nodes = (
(731,20,ls),
(865,20,o),
(922,77,o),
(922,211,cs),
(922,469,ls),
(922,603,o),
(865,660,o),
(731,660,cs),
(70,660,l),
(70,530,l),
(130,530,l),
(130,150,l),
(70,150,l),
(70,20,l)
);
},
{
closed = 1;
nodes = (
(260,530,l),
(731,530,ls),
(765,530,o),
(792,503,o),
(792,469,cs),
(792,211,ls),
(792,177,o),
(765,150,o),
(731,150,cs),
(260,150,l)
);
},
{
closed = 1;
nodes = (
(731,170,ls),
(754,170,o),
(772,188,o),
(772,211,cs),
(772,469,ls),
(772,492,o),
(754,510,o),
(731,510,cs),
(280,510,l),
(280,170,l)
);
},
{
closed = 1;
nodes = (
(300,490,l),
(731,490,ls),
(746,490,o),
(752,484,o),
(752,469,cs),
(752,211,ls),
(752,196,o),
(746,190,o),
(731,190,cs),
(300,190,l)
);
}
);
width = 992;
},
{
anchors = (
{
name = top;
pos = (492,680);
}
);
hints = (
{
horizontal = 1;
origin = (1,25);
target = (0,25);
type = Stem;
},
{
horizontal = 1;
origin = (1,6);
target = (0,18);
type = Stem;
},
{
horizontal = 1;
origin = (0,15);
target = (1,9);
type = Stem;
},
{
horizontal = 1;
origin = (1,16);
target = (0,8);
type = Stem;
},
{
origin = (0,22);
target = (1,2);
type = Stem;
},
{
origin = (0,17);
target = (1,7);
type = Stem;
},
{
origin = (2,9);
target = (3,9);
type = Stem;
},
{
origin = (3,5);
target = (2,3);
type = Stem;
},
{
origin = (1,21);
target = (0,3);
type = Stem;
}
);
layerId = m003;
shapes = (
{
closed = 1;
nodes = (
(731,-20,ls),
(884,-20,o),
(962,58,o),
(962,211,cs),
(962,469,ls),
(962,622,o),
(884,700,o),
(731,700,cs),
(64,700,ls),
(44,700,o),
(30,686,o),
(30,666,cs),
(30,524,ls),
(30,504,o),
(44,490,o),
(64,490,cs),
(90,490,l),
(90,190,l),
(64,190,ls),
(44,190,o),
(30,176,o),
(30,156,cs),
(30,14,ls),
(30,-6,o),
(44,-20,o),
(64,-20,cs)
);
},
{
closed = 1;
nodes = (
(55,0,o),
(50,5,o),
(50,14,cs),
(50,156,ls),
(50,165,o),
(55,170,o),
(64,170,cs),
(110,170,l),
(110,510,l),
(64,510,ls),
(55,510,o),
(50,515,o),
(50,524,cs),
(50,666,ls),
(50,675,o),
(55,680,o),
(64,680,cs),
(731,680,ls),
(873,680,o),
(942,611,o),
(942,469,cs),
(942,211,ls),
(942,69,o),
(873,0,o),
(731,0,cs),
(64,0,ls)
);
},
{
closed = 1;
nodes = (
(731,170,ls),
(754,170,o),
(772,188,o),
(772,211,cs),
(772,469,ls),
(772,492,o),
(754,510,o),
(731,510,cs),
(280,510,l),
(280,170,l)
);
},
{
closed = 1;
nodes = (
(300,490,l),
(731,490,ls),
(746,490,o),
(752,484,o),
(752,469,cs),
(752,211,ls),
(752,196,o),
(746,190,o),
(731,190,cs),
(300,190,l)
);
}
);
width = 992;
},
{
anchors = (
{
name = top;
pos = (492,680);
}
);
hints = (
{
horizontal = 1;
origin = (0,13);
target = (0,12);
type = Stem;
},
{
horizontal = 1;
origin = (0,9);
target = (0,8);
type = Stem;
},
{
origin = (0,11);
target = (1,9);
type = Stem;
},
{
origin = (1,5);
target = (0,3);
type = Stem;
}
);
layerId = m004;
shapes = (
{
closed = 1;
nodes = (
(731,20,ls),
(865,20,o),
(922,77,o),
(922,211,cs),
(922,469,ls),
(922,603,o),
(865,660,o),
(731,660,cs),
(70,660,l),
(70,530,l),
(130,530,l),
(130,150,l),
(70,150,l),
(70,20,l)
);
},
{
closed = 1;
nodes = (
(260,530,l),
(731,530,ls),
(765,530,o),
(792,503,o),
(792,469,cs),
(792,211,ls),
(792,177,o),
(765,150,o),
(731,150,cs),
(260,150,l)
);
}
);
width = 992;
}
);
},
{
glyphname = Eth;
kernRight = O;
lastChange = "2023-04-05 05:14:12 +0000";
layers = (
{
hints = (
{
horizontal = 1;
origin = (0,15);
target = (0,8);
type = Stem;
},
{
origin = (0,12);
target = (0,3);
type = Stem;
}
);
layerId = m01;
shapes = (
{
closed = 1;
nodes = (
(376,296,ls),
(385,296,o),
(390,301,o),
(390,309,cs),
(390,371,ls),
(390,379,o),
(385,384,o),
(376,384,cs),
(64,384,ls),
(55,384,o),
(50,379,o),
(50,371,cs),
(50,309,ls),
(50,301,o),
(55,296,o),
(64,296,cs)
);
},
{
pos = (85,0);
ref = D;
}
);
width = 1055;
},
{
anchors = (
{
name = top;
pos = (560,680);
}
);
hints = (
{
horizontal = 1;
origin = (1,25);
target = (0,25);
type = Stem;
},
{
horizontal = 1;
origin = (4,19);
target = (5,19);
type = Stem;
},
{
horizontal = 1;
origin = (0,20);
target = (1,4);
type = Stem;
},
{
horizontal = 1;
origin = (1,11);
target = (0,13);
type = Stem;
},
{
horizontal = 1;
origin = (5,10);
target = (4,8);
type = Stem;
},
{
horizontal = 1;
origin = (1,16);
target = (0,8);
type = Stem;
},
{
horizontal = 1;
origin = (2,11);
target = (2,10);
type = Stem;
},
{
horizontal = 1;
origin = (2,13);
target = (3,13);
type = Stem;
},
{
horizontal = 1;
origin = (3,4);
target = (2,8);
type = Stem;
},
{
origin = (0,17);
target = (1,7);
type = Stem;
},
{
origin = (0,22);
target = (1,2);
type = Stem;
},
{
origin = (4,19);
target = (5,19);
type = Stem;
},
{
origin = (4,14);
target = (5,4);
type = Stem;
},
{
origin = (5,15);
target = (4,3);
type = Stem;
},
{
origin = (1,21);
target = (0,3);
type = Stem;
},
{
origin = (2,11);
target = (1,2);
type = Stem;
},
{
origin = (2,13);
target = (3,13);
type = Stem;
},
{
origin = (3,9);
target = (2,3);
type = Stem;
},
{
origin = (4,19);
target = (3,1);
type = Stem;
}
);
layerId = "E09D4F69-3ABD-4349-AFCF-7CB4B65C8749";
shapes = (
{
closed = 1;
nodes = (
(795,-20,ls),
(948,-20,o),
(1025,58,o),
(1025,211,cs),
(1025,469,ls),
(1025,622,o),
(948,700,o),
(795,700,cs),
(149,700,ls),
(129,700,o),
(115,686,o),
(115,666,cs),
(115,404,l),
(64,404,ls),
(44,404,o),
(30,390,o),
(30,371,cs),
(30,309,ls),
(30,290,o),
(44,276,o),
(64,276,cs),
(115,276,l),
(115,14,ls),
(115,-6,o),
(129,-20,o),
(149,-20,cs)
);
},
{
closed = 1;
nodes = (
(140,0,o),
(135,5,o),
(135,14,cs),
(135,296,l),
(64,296,ls),
(55,296,o),
(50,301,o),
(50,309,cs),
(50,371,ls),
(50,379,o),
(55,384,o),
(64,384,cs),
(135,384,l),
(135,666,ls),
(135,675,o),
(140,680,o),
(149,680,cs),
(795,680,ls),
(937,680,o),
(1005,611,o),
(1005,469,cs),
(1005,211,ls),
(1005,69,o),
(937,0,o),
(795,0,cs),
(149,0,ls)
);
},
{
closed = 1;
nodes = (
(795,20,ls),
(929,20,o),
(985,77,o),
(985,211,cs),
(985,469,ls),
(985,603,o),
(929,660,o),
(795,660,cs),
(155,660,l),
(155,364,l),
(70,364,l),
(70,316,l),
(155,316,l),
(155,20,l)
);
},
{
closed = 1;
nodes = (
(285,316,l),
(370,316,l),
(370,364,l),
(285,364,l),
(285,530,l),
(795,530,ls),
(829,530,o),
(855,503,o),
(855,469,cs),
(855,211,ls),
(855,177,o),
(829,150,o),
(795,150,cs),
(285,150,l)
);
},
{
closed = 1;
nodes = (
(795,170,ls),
(818,170,o),
(835,188,o),
(835,211,cs),
(835,469,ls),
(835,492,o),
(818,510,o),
(795,510,cs),
(305,510,l),
(305,384,l),
(376,384,ls),
(385,384,o),
(390,379,o),
(390,371,cs),
(390,309,ls),
(390,301,o),
(385,296,o),
(376,296,cs),
(305,296,l),
(305,170,l)
);
},
{
closed = 1;
nodes = (
(325,276,l),
(376,276,ls),
(396,276,o),
(410,290,o),
(410,309,cs),
(410,371,ls),
(410,390,o),
(396,404,o),
(376,404,cs),
(325,404,l),
(325,490,l),
(795,490,ls),
(809,490,o),
(815,484,o),
(815,469,cs),
(815,211,ls),
(815,196,o),
(809,190,o),
(795,190,cs),
(325,190,l)
);
}
);
width = 1055;
},
{
anchors = (
{
name = top;
pos = (560,680);
}
);
hints = (
{
horizontal = 1;
origin = (1,25);
target = (0,25);
type = Stem;
},
{
horizontal = 1;
origin = (2,19);
target = (3,19);
type = Stem;
},
{
horizontal = 1;
origin = (0,20);
target = (1,4);
type = Stem;
},
{
horizontal = 1;
origin = (1,11);
target = (0,13);
type = Stem;
},
{
horizontal = 1;
origin = (3,10);
target = (2,8);
type = Stem;
},
{
horizontal = 1;
origin = (1,16);
target = (0,8);
type = Stem;
},
{
origin = (0,17);
target = (1,7);
type = Stem;
},
{
origin = (0,22);
target = (1,2);
type = Stem;
},
{
origin = (2,19);
target = (3,19);
type = Stem;
},
{
origin = (2,14);
target = (3,4);
type = Stem;
},
{
origin = (3,15);
target = (2,3);
type = Stem;
},
{
origin = (1,21);
target = (0,3);
type = Stem;
}
);
layerId = m003;
shapes = (
{
closed = 1;
nodes = (
(795,-20,ls),
(948,-20,o),
(1025,58,o),
(1025,211,cs),
(1025,469,ls),
(1025,622,o),
(948,700,o),
(795,700,cs),
(149,700,ls),
(129,700,o),
(115,686,o),
(115,666,cs),
(115,404,l),
(64,404,ls),
(44,404,o),
(30,390,o),
(30,371,cs),
(30,309,ls),
(30,290,o),
(44,276,o),
(64,276,cs),
(115,276,l),
(115,14,ls),
(115,-6,o),
(129,-20,o),
(149,-20,cs)
);
},
{
closed = 1;
nodes = (
(140,0,o),
(135,5,o),
(135,14,cs),
(135,296,l),
(64,296,ls),
(55,296,o),
(50,301,o),
(50,309,cs),
(50,371,ls),
(50,379,o),
(55,384,o),
(64,384,cs),
(135,384,l),
(135,666,ls),
(135,675,o),
(140,680,o),
(149,680,cs),
(795,680,ls),
(937,680,o),
(1005,611,o),
(1005,469,cs),
(1005,211,ls),
(1005,69,o),
(937,0,o),
(795,0,cs),
(149,0,ls)
);
},
{
closed = 1;
nodes = (
(795,170,ls),
(818,170,o),
(835,188,o),
(835,211,cs),
(835,469,ls),
(835,492,o),
(818,510,o),
(795,510,cs),
(305,510,l),
(305,384,l),
(376,384,ls),
(385,384,o),
(390,379,o),
(390,371,cs),
(390,309,ls),
(390,301,o),
(385,296,o),
(376,296,cs),
(305,296,l),
(305,170,l)
);
},
{
closed = 1;
nodes = (
(325,276,l),
(376,276,ls),
(396,276,o),
(410,290,o),
(410,309,cs),
(410,371,ls),
(410,390,o),
(396,404,o),
(376,404,cs),
(325,404,l),
(325,490,l),
(795,490,ls),
(809,490,o),
(815,484,o),
(815,469,cs),
(815,211,ls),
(815,196,o),
(809,190,o),
(795,190,cs),
(325,190,l)
);
}
);
width = 1055;
},
{
anchors = (
{
name = top;
pos = (560,680);
}
);
hints = (
{
horizontal = 1;
origin = (0,13);
target = (1,13);
type = Stem;
},
{
horizontal = 1;
origin = (0,11);
target = (0,10);
type = Stem;
},
{
horizontal = 1;
origin = (1,4);
target = (0,8);
type = Stem;
},
{
origin = (0,13);
target = (1,13);
type = Stem;
},
{
origin = (1,9);
target = (0,3);
type = Stem;
}
);
layerId = m004;
shapes = (
{
closed = 1;
nodes = (
(795,20,ls),
(929,20,o),
(985,77,o),
(985,211,cs),
(985,469,ls),
(985,603,o),
(929,660,o),
(795,660,cs),
(155,660,l),
(155,364,l),
(70,364,l),
(70,316,l),
(155,316,l),
(155,20,l)
);
},
{
closed = 1;
nodes = (
(285,316,l),
(370,316,l),
(370,364,l),
(285,364,l),
(285,530,l),
(795,530,ls),
(829,530,o),
(855,503,o),
(855,469,cs),
(855,211,ls),
(855,177,o),
(829,150,o),
(795,150,cs),
(285,150,l)
);
}
);
width = 1055;
}
);
unicode = (208,240);
},
{
glyphname = Eth.ss01;
kernRight = O;
lastChange = "2023-04-05 05:14:12 +0000";
layers = (
{
hints = (
{
horizontal = 1;
origin = (0,15);
target = (0,8);
type = Stem;
},
{
origin = (0,12);
target = (0,3);
type = Stem;
}
);
layerId = m01;
shapes = (
{
closed = 1;
nodes = (
(376,296,ls),
(385,296,o),
(390,301,o),
(390,309,cs),
(390,371,ls),
(390,379,o),
(385,384,o),
(376,384,cs),
(64,384,ls),
(55,384,o),
(50,379,o),
(50,371,cs),
(50,309,ls),
(50,301,o),
(55,296,o),
(64,296,cs)
);
},
{
pos = (20,0);
ref = D.ss01;
}
);
width = 1012;
},
{
anchors = (
{
name = top;
pos = (517,680);
}
);
hints = (
{
horizontal = 1;
origin = (1,35);
target = (0,35);
type = Stem;
},
{
horizontal = 1;
origin = (1,6);
target = (0,28);
type = Stem;
},
{
horizontal = 1;
origin = (0,25);
target = (1,9);
type = Stem;
},
{
horizontal = 1;
origin = (1,16);
target = (0,18);
type = Stem;
},
{
horizontal = 1;
origin = (0,15);
target = (1,19);
type = Stem;
},
{
horizontal = 1;
origin = (1,26);
target = (0,8);
type = Stem;
},
{
horizontal = 1;
origin = (2,13);
target = (2,12);
type = Stem;
},
{
horizontal = 1;
origin = (2,17);
target = (2,16);
type = Stem;
},
{
horizontal = 1;
origin = (2,9);
target = (2,8);
type = Stem;
},
{
origin = (0,32);
target = (1,2);
type = Stem;
},
{
origin = (0,27);
target = (1,7);
type = Stem;
},
{
origin = (4,19);
target = (5,19);
type = Stem;
},
{
origin = (4,14);
target = (5,4);
type = Stem;
},
{
origin = (5,15);
target = (4,3);
type = Stem;
},
{
origin = (1,31);
target = (0,3);
type = Stem;
},
{
origin = (0,22);
target = (1,12);
type = Stem;
},
{
origin = (2,13);
target = (1,7);
type = Stem;
},
{
origin = (2,15);
target = (3,13);
type = Stem;
},
{
origin = (2,17);
target = (1,7);
type = Stem;
},
{
origin = (3,9);
target = (2,3);
type = Stem;
},
{
origin = (4,19);
target = (3,1);
type = Stem;
}
);
layerId = "E09D4F69-3ABD-4349-AFCF-7CB4B65C8749";
shapes = (
{
closed = 1;
nodes = (
(751,-20,ls),
(904,-20,o),
(982,58,o),
(982,211,cs),
(982,469,ls),
(982,622,o),
(904,700,o),
(751,700,cs),
(84,700,ls),
(64,700,o),
(50,686,o),
(50,666,cs),
(50,524,ls),
(50,504,o),
(64,490,o),
(84,490,cs),
(110,490,l),
(110,404,l),
(59,404,ls),
(39,404,o),
(25,390,o),
(25,371,cs),
(25,309,ls),
(25,290,o),
(39,276,o),
(59,276,cs),
(110,276,l),
(110,190,l),
(84,190,ls),
(64,190,o),
(50,176,o),
(50,156,cs),
(50,14,ls),
(50,-6,o),
(64,-20,o),
(84,-20,cs)
);
},
{
closed = 1;
nodes = (
(75,0,o),
(70,5,o),
(70,14,cs),
(70,156,ls),
(70,165,o),
(75,170,o),
(84,170,cs),
(130,170,l),
(130,296,l),
(59,296,ls),
(50,296,o),
(45,301,o),
(45,309,cs),
(45,371,ls),
(45,379,o),
(50,384,o),
(59,384,cs),
(130,384,l),
(130,510,l),
(84,510,ls),
(75,510,o),
(70,515,o),
(70,524,cs),
(70,666,ls),
(70,675,o),
(75,680,o),
(84,680,cs),
(751,680,ls),
(893,680,o),
(962,611,o),
(962,469,cs),
(962,211,ls),
(962,69,o),
(893,0,o),
(751,0,cs),
(84,0,ls)
);
},
{
closed = 1;
nodes = (
(751,20,ls),
(885,20,o),
(942,77,o),
(942,211,cs),
(942,469,ls),
(942,603,o),
(885,660,o),
(751,660,cs),
(90,660,l),
(90,530,l),
(150,530,l),
(150,364,l),
(65,364,l),
(65,316,l),
(150,316,l),
(150,150,l),
(90,150,l),
(90,20,l)
);
},
{
closed = 1;
nodes = (
(280,316,l),
(365,316,l),
(365,364,l),
(280,364,l),
(280,530,l),
(751,530,ls),
(785,530,o),
(812,503,o),
(812,469,cs),
(812,211,ls),
(812,177,o),
(785,150,o),
(751,150,cs),
(280,150,l)
);
},
{
closed = 1;
nodes = (
(751,170,ls),
(774,170,o),
(792,188,o),
(792,211,cs),
(792,469,ls),
(792,492,o),
(774,510,o),
(751,510,cs),
(300,510,l),
(300,384,l),
(371,384,ls),
(380,384,o),
(385,379,o),
(385,371,cs),
(385,309,ls),
(385,301,o),
(380,296,o),
(371,296,cs),
(300,296,l),
(300,170,l)
);
},
{
closed = 1;
nodes = (
(320,276,l),
(371,276,ls),
(391,276,o),
(405,290,o),
(405,309,cs),
(405,371,ls),
(405,390,o),
(391,404,o),
(371,404,cs),
(320,404,l),
(320,490,l),
(751,490,ls),
(766,490,o),
(772,484,o),
(772,469,cs),
(772,211,ls),
(772,196,o),
(766,190,o),
(751,190,cs),
(320,190,l)
);
}
);
width = 1012;
},
{
anchors = (
{
name = top;
pos = (517,680);
}
);
hints = (
{
horizontal = 1;
origin = (1,35);
target = (0,35);
type = Stem;
},
{
horizontal = 1;
origin = (1,6);
target = (0,28);
type = Stem;
},
{
horizontal = 1;
origin = (0,25);
target = (1,9);
type = Stem;
},
{
horizontal = 1;
origin = (1,16);
target = (0,18);
type = Stem;
},
{
horizontal = 1;
origin = (0,15);
target = (1,19);
type = Stem;
},
{
horizontal = 1;
origin = (1,26);
target = (0,8);
type = Stem;
},
{
origin = (0,32);
target = (1,2);
type = Stem;
},
{
origin = (0,27);
target = (1,7);
type = Stem;
},
{
origin = (2,19);
target = (3,19);
type = Stem;
},
{
origin = (2,14);
target = (3,4);
type = Stem;
},
{
origin = (3,15);
target = (2,3);
type = Stem;
},
{
origin = (1,31);
target = (0,3);
type = Stem;
},
{
origin = (0,22);
target = (1,12);
type = Stem;
}
);
layerId = m003;
shapes = (
{
closed = 1;
nodes = (
(751,-20,ls),
(904,-20,o),
(982,58,o),
(982,211,cs),
(982,469,ls),
(982,622,o),
(904,700,o),
(751,700,cs),
(84,700,ls),
(64,700,o),
(50,686,o),
(50,666,cs),
(50,524,ls),
(50,504,o),
(64,490,o),
(84,490,cs),
(110,490,l),
(110,404,l),
(59,404,ls),
(39,404,o),
(25,390,o),
(25,371,cs),
(25,309,ls),
(25,290,o),
(39,276,o),
(59,276,cs),
(110,276,l),
(110,190,l),
(84,190,ls),
(64,190,o),
(50,176,o),
(50,156,cs),
(50,14,ls),
(50,-6,o),
(64,-20,o),
(84,-20,cs)
);
},
{
closed = 1;
nodes = (
(75,0,o),
(70,5,o),
(70,14,cs),
(70,156,ls),
(70,165,o),
(75,170,o),
(84,170,cs),
(130,170,l),
(130,296,l),
(59,296,ls),
(50,296,o),
(45,301,o),
(45,309,cs),
(45,371,ls),
(45,379,o),
(50,384,o),
(59,384,cs),
(130,384,l),
(130,510,l),
(84,510,ls),
(75,510,o),
(70,515,o),
(70,524,cs),
(70,666,ls),
(70,675,o),
(75,680,o),
(84,680,cs),
(751,680,ls),
(893,680,o),
(962,611,o),
(962,469,cs),
(962,211,ls),
(962,69,o),
(893,0,o),
(751,0,cs),
(84,0,ls)
);
},
{
closed = 1;
nodes = (
(751,170,ls),
(774,170,o),
(792,188,o),
(792,211,cs),
(792,469,ls),
(792,492,o),
(774,510,o),
(751,510,cs),
(300,510,l),
(300,384,l),
(371,384,ls),
(380,384,o),
(385,379,o),
(385,371,cs),
(385,309,ls),
(385,301,o),
(380,296,o),
(371,296,cs),
(300,296,l),
(300,170,l)
);
},
{
closed = 1;
nodes = (
(320,276,l),
(371,276,ls),
(391,276,o),
(405,290,o),
(405,309,cs),
(405,371,ls),
(405,390,o),
(391,404,o),
(371,404,cs),
(320,404,l),
(320,490,l),
(751,490,ls),
(766,490,o),
(772,484,o),
(772,469,cs),
(772,211,ls),
(772,196,o),
(766,190,o),
(751,190,cs),
(320,190,l)
);
}
);
width = 1012;
},
{
anchors = (
{
name = top;
pos = (517,680);
}
);
hints = (
{
horizontal = 1;
origin = (0,17);
target = (0,16);
type = Stem;
},
{
horizontal = 1;
origin = (0,13);
target = (0,12);
type = Stem;
},
{
horizontal = 1;
origin = (0,9);
target = (0,8);
type = Stem;
},
{
origin = (0,15);
target = (1,13);
type = Stem;
},
{
origin = (1,9);
target = (0,3);
type = Stem;
}
);
layerId = m004;
shapes = (
{
closed = 1;
nodes = (
(751,20,ls),
(885,20,o),
(942,77,o),
(942,211,cs),
(942,469,ls),
(942,603,o),
(885,660,o),
(751,660,cs),
(90,660,l),
(90,530,l),
(150,530,l),
(150,364,l),
(65,364,l),
(65,316,l),
(150,316,l),
(150,150,l),
(90,150,l),
(90,20,l)
);
},
{
closed = 1;
nodes = (
(280,316,l),
(365,316,l),
(365,364,l),
(280,364,l),
(280,530,l),
(751,530,ls),
(785,530,o),
(812,503,o),
(812,469,cs),
(812,211,ls),
(812,177,o),
(785,150,o),
(751,150,cs),
(280,150,l)
);
}
);
width = 1012;
}
);
},
{
glyphname = E;
kernLeft = E;
kernRight = E;
lastChange = "2023-04-05 05:14:12 +0000";
layers = (
{
anchors = (
{
name = bottom;
pos = (432,0);
},
{
name = top;
pos = (432,680);
}
);
hints = (
{
horizontal = 1;
origin = (0,27);
target = (0,8);
type = Stem;
},
{
horizontal = 1;
origin = (1,15);
target = (1,8);
type = Stem;
},
{
horizontal = 1;
origin = (0,20);
target = (0,11);
type = Stem;
},
{
origin = (0,24);
target = (0,9);
type = Stem;
}
);
layerId = m01;
shapes = (
{
closed = 1;
nodes = (
(791,0,ls),
(799,0,o),
(804,5,o),
(804,14,cs),
(804,133,ls),
(804,141,o),
(799,146,o),
(791,146,cs),
(189,146,l),
(220,116,l),
(220,564,l),
(189,534,l),
(791,534,ls),
(799,534,o),
(804,539,o),
(804,547,cs),
(804,666,ls),
(804,675,o),
(799,680,o),
(791,680,cs),
(64,680,ls),
(55,680,o),
(50,675,o),
(50,666,cs),
(50,14,ls),
(50,5,o),
(55,0,o),
(64,0,cs)
);
},
{
closed = 1;
nodes = (
(706,272,ls),
(714,272,o),
(719,277,o),
(719,286,cs),
(719,394,ls),
(719,403,o),
(714,408,o),
(706,408,cs),
(149,408,ls),
(140,408,o),
(135,403,o),
(135,394,cs),
(135,286,ls),
(135,277,o),
(140,272,o),
(149,272,cs)
);
}
);
width = 854;
},
{
anchors = (
{
name = bottom;
pos = (432,0);
},
{
name = top;
pos = (432,680);
}
);
hints = (
{
horizontal = 1;
origin = (1,35);
target = (0,35);
type = Stem;
},
{
horizontal = 1;
origin = (1,26);
target = (0,8);
type = Stem;
},
{
horizontal = 1;
origin = (0,9);
target = (1,25);
type = Stem;
},
{
horizontal = 1;
origin = (1,16);
target = (0,18);
type = Stem;
},
{
horizontal = 1;
origin = (0,19);
target = (1,15);
type = Stem;
},
{
horizontal = 1;
origin = (1,6);
target = (0,28);
type = Stem;
},
{
horizontal = 1;
origin = (2,11);
target = (2,2);
type = Stem;
},
{
horizontal = 1;
origin = (2,3);
target = (2,6);
type = Stem;
},
{
horizontal = 1;
origin = (2,7);
target = (2,10);
type = Stem;
},
{
origin = (0,32);
target = (1,2);
type = Stem;
},
{
origin = (1,26);
target = (0,8);
type = Stem;
},
{
origin = (1,21);
target = (0,13);
type = Stem;
},
{
origin = (1,31);
target = (0,3);
type = Stem;
},
{
origin = (2,11);
target = (2,2);
type = Stem;
}
);
layerId = "E09D4F69-3ABD-4349-AFCF-7CB4B65C8749";
shapes = (
{
closed = 1;
nodes = (
(791,-20,ls),
(810,-20,o),
(824,-6,o),
(824,14,cs),
(824,133,ls),
(824,152,o),
(810,166,o),
(791,166,cs),
(240,166,l),
(240,252,l),
(706,252,ls),
(725,252,o),
(739,266,o),
(739,286,cs),
(739,394,ls),
(739,414,o),
(725,428,o),
(706,428,cs),
(240,428,l),
(240,514,l),
(791,514,ls),
(810,514,o),
(824,528,o),
(824,547,cs),
(824,666,ls),
(824,686,o),
(810,700,o),
(791,700,cs),
(64,700,ls),
(44,700,o),
(30,686,o),
(30,666,cs),
(30,14,ls),
(30,-6,o),
(44,-20,o),
(64,-20,cs)
);
},
{
closed = 1;
nodes = (
(55,0,o),
(50,5,o),
(50,14,cs),
(50,666,ls),
(50,675,o),
(55,680,o),
(64,680,cs),
(791,680,ls),
(799,680,o),
(804,675,o),
(804,666,cs),
(804,547,ls),
(804,539,o),
(799,534,o),
(791,534,cs),
(220,534,l),
(220,408,l),
(706,408,ls),
(714,408,o),
(719,403,o),
(719,394,cs),
(719,286,ls),
(719,277,o),
(714,272,o),
(706,272,cs),
(220,272,l),
(220,146,l),
(791,146,ls),
(799,146,o),
(804,141,o),
(804,133,cs),
(804,14,ls),
(804,5,o),
(799,0,o),
(791,0,cs),
(64,0,ls)
);
},
{
closed = 1;
nodes = (
(784,20,l),
(784,126,l),
(200,126,l),
(200,292,l),
(699,292,l),
(699,388,l),
(200,388,l),
(200,554,l),
(784,554,l),
(784,660,l),
(70,660,l),
(70,20,l)
);
}
);
width = 854;
},
{
anchors = (
{
name = bottom;
pos = (432,0);
},
{
name = top;
pos = (432,680);
}
);
hints = (
{
horizontal = 1;
origin = (1,35);
target = (0,35);
type = Stem;
},
{
horizontal = 1;
origin = (1,26);
target = (0,8);
type = Stem;
},
{
horizontal = 1;
origin = (0,9);
target = (1,25);
type = Stem;
},
{
horizontal = 1;
origin = (1,16);
target = (0,18);
type = Stem;
},
{
horizontal = 1;
origin = (0,19);
target = (1,15);
type = Stem;
},
{
horizontal = 1;
origin = (1,6);
target = (0,28);
type = Stem;
},
{
origin = (0,32);
target = (1,2);
type = Stem;
},
{
origin = (1,26);
target = (0,8);
type = Stem;
},
{
origin = (1,21);
target = (0,13);
type = Stem;
},
{
origin = (1,31);
target = (0,3);
type = Stem;
}
);
layerId = m003;
shapes = (
{
closed = 1;
nodes = (
(791,-20,ls),
(810,-20,o),
(824,-6,o),
(824,14,cs),
(824,133,ls),
(824,152,o),
(810,166,o),
(791,166,cs),
(240,166,l),
(240,252,l),
(706,252,ls),
(725,252,o),
(739,266,o),
(739,286,cs),
(739,394,ls),
(739,414,o),
(725,428,o),
(706,428,cs),
(240,428,l),
(240,514,l),
(791,514,ls),
(810,514,o),
(824,528,o),
(824,547,cs),
(824,666,ls),
(824,686,o),
(810,700,o),
(791,700,cs),
(64,700,ls),
(44,700,o),
(30,686,o),
(30,666,cs),
(30,14,ls),
(30,-6,o),
(44,-20,o),
(64,-20,cs)
);
},
{
closed = 1;
nodes = (
(55,0,o),
(50,5,o),
(50,14,cs),
(50,666,ls),
(50,675,o),
(55,680,o),
(64,680,cs),
(791,680,ls),
(799,680,o),
(804,675,o),
(804,666,cs),
(804,547,ls),
(804,539,o),
(799,534,o),
(791,534,cs),
(220,534,l),
(220,408,l),
(706,408,ls),
(714,408,o),
(719,403,o),
(719,394,cs),
(719,286,ls),
(719,277,o),
(714,272,o),
(706,272,cs),
(220,272,l),
(220,146,l),
(791,146,ls),
(799,146,o),
(804,141,o),
(804,133,cs),
(804,14,ls),
(804,5,o),
(799,0,o),
(791,0,cs),
(64,0,ls)
);
}
);
width = 854;
},
{
anchors = (
{
name = bottom;
pos = (432,0);
},
{
name = top;
pos = (432,680);
}
);
hints = (
{
horizontal = 1;
origin = (0,11);
target = (0,2);
type = Stem;
},
{
horizontal = 1;
origin = (0,3);
target = (0,6);
type = Stem;
},
{
horizontal = 1;
origin = (0,7);
target = (0,10);
type = Stem;
},
{
origin = (0,11);
target = (0,2);
type = Stem;
}
);
layerId = m004;
shapes = (
{
closed = 1;
nodes = (
(784,20,l),
(784,126,l),
(200,126,l),
(200,292,l),
(699,292,l),
(699,388,l),
(200,388,l),
(200,554,l),
(784,554,l),
(784,660,l),
(70,660,l),
(70,20,l)
);
}
);
width = 854;
}
);
unicode = (69,101);
},
{
glyphname = Eogonek;
kernLeft = E;
kernRight = E;
lastChange = "2023-04-05 05:14:12 +0000";
layers = (
{
layerId = m01;
shapes = (
{
ref = E;
},
{
pos = (243,0);
ref = ogonekcomb;
}
);
width = 854;
},
{
anchors = (
{
name = bottom;
pos = (462,0);
},
{
name = top;
pos = (462,680);
}
);
hints = (
{
horizontal = 1;
origin = (0,59);
target = (1,59);
type = Stem;
},
{
horizontal = 1;
origin = (1,50);
target = (0,8);
type = Stem;
},
{
horizontal = 1;
origin = (1,7);
target = (0,51);
type = Stem;
},
{
horizontal = 1;
origin = (1,34);
target = (0,24);
type = Stem;
},
{
horizontal = 1;
origin = (0,25);
target = (1,33);
type = Stem;
},
{
horizontal = 1;
origin = (1,24);
target = (0,34);
type = Stem;
},
{
horizontal = 1;
origin = (0,35);
target = (1,23);
type = Stem;
},
{
horizontal = 1;
origin = (1,14);
target = (0,44);
type = Stem;
},
{
horizontal = 1;
origin = (2,29);
target = (2,2);
type = Stem;
},
{
horizontal = 1;
origin = (2,21);
target = (2,12);
type = Stem;
},
{
horizontal = 1;
origin = (2,13);
target = (2,16);
type = Stem;
},
{
horizontal = 1;
origin = (2,17);
target = (2,20);
type = Stem;
},
{
origin = (0,48);
target = (1,10);
type = Stem;
},
{
origin = (1,34);
target = (0,24);
type = Stem;
},
{
place = (366, 19);
place = (366, 19);
type = Stem;
},
{
origin = (1,55);
target = (0,3);
type = Stem;
},
{
origin = (1,29);
target = (0,29);
type = Stem;
},
{
origin = (1,39);
target = (0,19);
type = Stem;
},
{
place = (265, 20);
place = (265, 20);
type = Stem;
},
{
origin = (2,21);
target = (2,12);
type = Stem;
},
{
place = (304, 43);
place = (304, 43);
type = Stem;
}
);
layerId = "E09D4F69-3ABD-4349-AFCF-7CB4B65C8749";
shapes = (
{
closed = 1;
nodes = (
(511,-324,ls),
(531,-324,o),
(545,-310,o),
(545,-290,cs),
(545,-218,ls),
(545,-198,o),
(531,-184,o),
(511,-184,cs),
(436,-184,ls),
(421,-184,o),
(408,-182,o),
(398,-173,c),
(379,-152,o),
(380,-121,o),
(402,-99,cs),
(481,-20,l),
(791,-20,ls),
(810,-20,o),
(824,-6,o),
(824,14,cs),
(824,133,ls),
(824,152,o),
(810,166,o),
(791,166,cs),
(240,166,l),
(240,252,l),
(706,252,ls),
(725,252,o),
(739,266,o),
(739,286,cs),
(739,394,ls),
(739,414,o),
(725,428,o),
(706,428,cs),
(240,428,l),
(240,514,l),
(791,514,ls),
(810,514,o),
(824,528,o),
(824,547,cs),
(824,666,ls),
(824,686,o),
(810,700,o),
(791,700,cs),
(64,700,ls),
(44,700,o),
(30,686,o),
(30,666,cs),
(30,14,ls),
(30,-6,o),
(44,-20,o),
(64,-20,cs),
(335,-20,l),
(314,-41,ls),
(249,-106,o),
(249,-211,o),
(314,-276,cs),
(348,-308,o),
(389,-324,o),
(431,-324,cs)
);
},
{
closed = 1;
nodes = (
(394,-304,o),
(358,-290,o),
(328,-262,cs),
(271,-205,o),
(271,-112,o),
(328,-55,cs),
(383,0,l),
(64,0,ls),
(55,0,o),
(50,5,o),
(50,14,cs),
(50,666,ls),
(50,675,o),
(55,680,o),
(64,680,cs),
(791,680,ls),
(799,680,o),
(804,675,o),
(804,666,cs),
(804,547,ls),
(804,539,o),
(799,534,o),
(791,534,cs),
(220,534,l),
(220,408,l),
(706,408,ls),
(714,408,o),
(719,403,o),
(719,394,cs),
(719,286,ls),
(719,277,o),
(714,272,o),
(706,272,cs),
(220,272,l),
(220,146,l),
(791,146,ls),
(799,146,o),
(804,141,o),
(804,133,cs),
(804,14,ls),
(804,5,o),
(799,0,o),
(791,0,cs),
(473,0,l),
(388,-85,ls),
(361,-112,o),
(358,-160,o),
(384,-187,cs),
(399,-201,o),
(419,-204,o),
(436,-204,cs),
(511,-204,ls),
(520,-204,o),
(525,-209,o),
(525,-218,cs),
(525,-290,ls),
(525,-299,o),
(520,-304,o),
(511,-304,cs),
(431,-304,ls)
);
},
{
closed = 1;
nodes = (
(505,-284,l),
(505,-224,l),
(436,-224,ls),
(417,-224,o),
(390,-220,o),
(370,-201,cs),
(336,-166,o),
(340,-105,o),
(374,-71,cs),
(465,20,l),
(784,20,l),
(784,126,l),
(200,126,l),
(200,292,l),
(699,292,l),
(699,388,l),
(200,388,l),
(200,554,l),
(784,554,l),
(784,660,l),
(70,660,l),
(70,20,l),
(431,20,l),
(342,-69,ls),
(291,-120,o),
(291,-197,o),
(342,-248,cs),
(369,-273,o),
(398,-284,o),
(431,-284,cs)
);
}
);
width = 854;
},
{
anchors = (
{
name = bottom;
pos = (462,0);
},
{
name = top;
pos = (462,680);
}
);
hints = (
{
horizontal = 1;
origin = (0,59);
target = (1,59);
type = Stem;
},
{
horizontal = 1;
origin = (1,50);
target = (0,8);
type = Stem;
},
{
horizontal = 1;
origin = (1,7);
target = (0,51);
type = Stem;
},
{
horizontal = 1;
origin = (1,34);
target = (0,24);
type = Stem;
},
{
horizontal = 1;
origin = (0,25);
target = (1,33);
type = Stem;
},
{
horizontal = 1;
origin = (1,24);
target = (0,34);
type = Stem;
},
{
horizontal = 1;
origin = (0,35);
target = (1,23);
type = Stem;
},
{
horizontal = 1;
origin = (1,14);
target = (0,44);
type = Stem;
},
{
origin = (0,48);
target = (1,10);
type = Stem;
},
{
origin = (1,34);
target = (0,24);
type = Stem;
},
{
place = (366, 19);
place = (366, 19);
type = Stem;
},
{
origin = (1,55);
target = (0,3);
type = Stem;
},
{
origin = (1,29);
target = (0,29);
type = Stem;
},
{
origin = (1,39);
target = (0,19);
type = Stem;
},
{
place = (265, 20);
place = (265, 20);
type = Stem;
}
);
layerId = m003;
shapes = (
{
closed = 1;
nodes = (
(511,-324,ls),
(531,-324,o),
(545,-310,o),
(545,-290,cs),
(545,-218,ls),
(545,-198,o),
(531,-184,o),
(511,-184,cs),
(436,-184,ls),
(421,-184,o),
(408,-182,o),
(398,-173,c),
(379,-152,o),
(380,-121,o),
(402,-99,cs),
(481,-20,l),
(791,-20,ls),
(810,-20,o),
(824,-6,o),
(824,14,cs),
(824,133,ls),
(824,152,o),
(810,166,o),
(791,166,cs),
(240,166,l),
(240,252,l),
(706,252,ls),
(725,252,o),
(739,266,o),
(739,286,cs),
(739,394,ls),
(739,414,o),
(725,428,o),
(706,428,cs),
(240,428,l),
(240,514,l),
(791,514,ls),
(810,514,o),
(824,528,o),
(824,547,cs),
(824,666,ls),
(824,686,o),
(810,700,o),
(791,700,cs),
(64,700,ls),
(44,700,o),
(30,686,o),
(30,666,cs),
(30,14,ls),
(30,-6,o),
(44,-20,o),
(64,-20,cs),
(335,-20,l),
(314,-41,ls),
(249,-106,o),
(249,-211,o),
(314,-276,cs),
(348,-308,o),
(389,-324,o),
(431,-324,cs)
);
},
{
closed = 1;
nodes = (
(394,-304,o),
(358,-290,o),
(328,-262,cs),
(271,-205,o),
(271,-112,o),
(328,-55,cs),
(383,0,l),
(64,0,ls),
(55,0,o),
(50,5,o),
(50,14,cs),
(50,666,ls),
(50,675,o),
(55,680,o),
(64,680,cs),
(791,680,ls),
(799,680,o),
(804,675,o),
(804,666,cs),
(804,547,ls),
(804,539,o),
(799,534,o),
(791,534,cs),
(220,534,l),
(220,408,l),
(706,408,ls),
(714,408,o),
(719,403,o),
(719,394,cs),
(719,286,ls),
(719,277,o),
(714,272,o),
(706,272,cs),
(220,272,l),
(220,146,l),
(791,146,ls),
(799,146,o),
(804,141,o),
(804,133,cs),
(804,14,ls),
(804,5,o),
(799,0,o),
(791,0,cs),
(473,0,l),
(388,-85,ls),
(361,-112,o),
(358,-160,o),
(384,-187,cs),
(399,-201,o),
(419,-204,o),
(436,-204,cs),
(511,-204,ls),
(520,-204,o),
(525,-209,o),
(525,-218,cs),
(525,-290,ls),
(525,-299,o),
(520,-304,o),
(511,-304,cs),
(431,-304,ls)
);
}
);
width = 854;
},
{
anchors = (
{
name = bottom;
pos = (462,0);
},
{
name = top;
pos = (462,680);
}
);
hints = (
{
horizontal = 1;
origin = (0,29);
target = (0,2);
type = Stem;
},
{
horizontal = 1;
origin = (0,21);
target = (0,12);
type = Stem;
},
{
horizontal = 1;
origin = (0,13);
target = (0,16);
type = Stem;
},
{
horizontal = 1;
origin = (0,17);
target = (0,20);
type = Stem;
},
{
origin = (0,21);
target = (0,12);
type = Stem;
},
{
place = (304, 43);
place = (304, 43);
type = Stem;
}
);
layerId = m004;
shapes = (
{
closed = 1;
nodes = (
(505,-284,l),
(505,-224,l),
(436,-224,ls),
(417,-224,o),
(390,-220,o),
(370,-201,cs),
(336,-166,o),
(340,-105,o),
(374,-71,cs),
(465,20,l),
(784,20,l),
(784,126,l),
(200,126,l),
(200,292,l),
(699,292,l),
(699,388,l),
(200,388,l),
(200,554,l),
(784,554,l),
(784,660,l),
(70,660,l),
(70,20,l),
(431,20,l),
(342,-69,ls),
(291,-120,o),
(291,-197,o),
(342,-248,cs),
(369,-273,o),
(398,-284,o),
(431,-284,cs)
);
}
);
width = 854;
}
);
unicode = (280,281);
},
{
glyphname = Schwa;
lastChange = "2023-04-05 05:14:12 +0000";
layers = (
{
anchors = (
{
name = bottom;
pos = (485,0);
},
{
name = top;
pos = (485,680);
}
);
hints = (
{
horizontal = 1;
origin = (0,52);
target = (0,32);
type = Stem;
},
{
horizontal = 1;
origin = (0,36);
target = (0,45);
type = Stem;
},
{
horizontal = 1;
origin = (0,8);
target = (0,23);
type = Stem;
},
{
origin = (0,49);
target = (0,35);
type = Stem;
},
{
origin = (0,28);
target = (0,3);
type = Stem;
},
{
origin = (0,48);
target = (0,36);
type = Stem;
}
);
layerId = m01;
shapes = (
{
closed = 1;
nodes = (
(709,0,ls),
(851,0,o),
(920,69,o),
(920,211,cs),
(920,469,ls),
(920,611,o),
(851,680,o),
(709,680,cs),
(239,680,ls),
(133,680,o),
(52,637,o),
(52,500,cs),
(52,483,ls),
(52,474,o),
(56,469,o),
(65,469,cs),
(208,469,ls),
(217,469,o),
(222,474,o),
(222,483,cs),
(222,492,ls),
(222,515,o),
(227,524,o),
(244,524,cs),
(709,524,ls),
(732,524,o),
(750,506,o),
(750,483,cs),
(750,211,ls),
(750,188,o),
(732,170,o),
(709,170,cs),
(260,170,ls),
(237,170,o),
(220,188,o),
(220,211,cs),
(220,252,l),
(825,252,ls),
(833,252,o),
(838,257,o),
(838,266,cs),
(838,374,ls),
(838,383,o),
(833,388,o),
(825,388,cs),
(64,388,ls),
(55,388,o),
(50,383,o),
(50,374,cs),
(50,211,ls),
(50,69,o),
(118,0,o),
(260,0,cs)
);
}
);
width = 970;
},
{
hints = (
{
horizontal = 1;
origin = (3,36);
target = (0,36);
type = Stem;
},
{
horizontal = 1;
origin = (1,9);
target = (2,9);
type = Stem;
},
{
horizontal = 1;
origin = (2,3);
target = (1,5);
type = Stem;
},
{
horizontal = 1;
origin = (3,6);
target = (0,29);
type = Stem;
},
{
horizontal = 1;
origin = (0,15);
target = (3,20);
type = Stem;
},
{
horizontal = 1;
origin = (0,23);
target = (3,12);
type = Stem;
},
{
horizontal = 1;
origin = (3,27);
target = (0,8);
type = Stem;
},
{
origin = (0,33);
target = (3,2);
type = Stem;
},
{
origin = (1,6);
target = (2,2);
type = Stem;
},
{
origin = (2,5);
target = (1,3);
type = Stem;
},
{
origin = (3,32);
target = (0,3);
type = Stem;
},
{
origin = (0,12);
target = (3,23);
type = Stem;
},
{
origin = (3,16);
target = (0,19);
type = Stem;
}
);
layerId = m003;
shapes = (
{
closed = 1;
nodes = (
(709,-20,ls),
(862,-20,o),
(940,58,o),
(940,211,cs),
(940,469,ls),
(940,622,o),
(862,700,o),
(709,700,cs),
(239,700,ls),
(126,700,o),
(32,651,o),
(32,500,cs),
(32,483,ls),
(32,463,o),
(45,449,o),
(65,449,cs),
(208,449,ls),
(228,449,o),
(242,463,o),
(242,483,cs),
(242,492,ls),
(242,504,o),
(242,504,o),
(244,504,cs),
(709,504,ls),
(724,504,o),
(730,498,o),
(730,483,cs),
(730,408,l),
(64,408,ls),
(44,408,o),
(30,394,o),
(30,374,cs),
(30,211,ls),
(30,58,o),
(107,-20,o),
(260,-20,cs)
);
},
{
closed = 1;
nodes = (
(709,170,ls),
(732,170,o),
(750,188,o),
(750,211,cs),
(750,252,l),
(220,252,l),
(220,211,ls),
(220,188,o),
(237,170,o),
(260,170,cs)
);
},
{
closed = 1;
nodes = (
(246,190,o),
(240,196,o),
(240,211,cs),
(240,232,l),
(730,232,l),
(730,211,ls),
(730,196,o),
(724,190,o),
(709,190,cs),
(260,190,ls)
);
},
{
closed = 1;
nodes = (
(118,0,o),
(50,69,o),
(50,211,cs),
(50,374,ls),
(50,383,o),
(55,388,o),
(64,388,cs),
(750,388,l),
(750,483,ls),
(750,506,o),
(732,524,o),
(709,524,cs),
(244,524,ls),
(227,524,o),
(222,515,o),
(222,492,cs),
(222,483,ls),
(222,474,o),
(217,469,o),
(208,469,cs),
(65,469,ls),
(56,469,o),
(52,474,o),
(52,483,cs),
(52,500,ls),
(52,637,o),
(133,680,o),
(239,680,cs),
(709,680,ls),
(851,680,o),
(920,611,o),
(920,469,cs),
(920,211,ls),
(920,69,o),
(851,0,o),
(709,0,cs),
(260,0,ls)
);
}
);
width = 970;
},
{
hints = (
{
horizontal = 1;
origin = (0,26);
target = (1,9);
type = Stem;
},
{
horizontal = 1;
origin = (1,3);
target = (0,22);
type = Stem;
},
{
horizontal = 1;
origin = (0,16);
target = (0,8);
type = Stem;
},
{
origin = (0,23);
target = (1,2);
type = Stem;
},
{
origin = (1,5);
target = (0,3);
type = Stem;
},
{
origin = (0,12);
target = (0,13);
type = Stem;
}
);
layerId = m004;
shapes = (
{
closed = 1;
nodes = (
(709,20,ls),
(843,20,o),
(900,77,o),
(900,211,cs),
(900,469,ls),
(900,603,o),
(843,660,o),
(709,660,cs),
(239,660,ls),
(138,660,o),
(72,625,o),
(72,500,cs),
(72,489,l),
(202,489,l),
(201,528,o),
(217,544,o),
(244,544,cs),
(709,544,ls),
(743,544,o),
(770,517,o),
(770,483,cs),
(770,368,l),
(70,368,l),
(70,211,ls),
(70,77,o),
(126,20,o),
(260,20,cs)
);
},
{
closed = 1;
nodes = (
(226,150,o),
(200,177,o),
(200,211,cs),
(200,272,l),
(770,272,l),
(770,211,ls),
(770,177,o),
(743,150,o),
(709,150,cs),
(260,150,ls)
);
}
);
width = 970;
},
{
hints = (
{
horizontal = 1;
origin = (4,36);
target = (0,36);
type = Stem;
},
{
horizontal = 1;
origin = (2,9);
target = (3,9);
type = Stem;
},
{
horizontal = 1;
origin = (3,3);
target = (2,5);
type = Stem;
},
{
horizontal = 1;
origin = (4,6);
target = (0,29);
type = Stem;
},
{
horizontal = 1;
origin = (0,15);
target = (4,20);
type = Stem;
},
{
horizontal = 1;
origin = (0,23);
target = (4,12);
type = Stem;
},
{
horizontal = 1;
origin = (4,27);
target = (0,8);
type = Stem;
},
{
horizontal = 1;
origin = (5,26);
target = (1,9);
type = Stem;
},
{
horizontal = 1;
origin = (5,16);
target = (5,8);
type = Stem;
},
{
horizontal = 1;
origin = (5,12);
target = (4,12);
type = Stem;
},
{
horizontal = 1;
origin = (1,3);
target = (5,22);
type = Stem;
},
{
origin = (0,33);
target = (4,2);
type = Stem;
},
{
origin = (2,6);
target = (3,2);
type = Stem;
},
{
origin = (3,5);
target = (2,3);
type = Stem;
},
{
origin = (4,32);
target = (0,3);
type = Stem;
},
{
origin = (0,12);
target = (4,23);
type = Stem;
},
{
origin = (4,16);
target = (0,19);
type = Stem;
},
{
origin = (5,23);
target = (1,2);
type = Stem;
},
{
origin = (1,5);
target = (5,3);
type = Stem;
},
{
origin = (5,12);
target = (5,13);
type = Stem;
}
);
layerId = "E09D4F69-3ABD-4349-AFCF-7CB4B65C8749";
shapes = (
{
closed = 1;
nodes = (
(709,-20,ls),
(862,-20,o),
(940,58,o),
(940,211,cs),
(940,469,ls),
(940,622,o),
(862,700,o),
(709,700,cs),
(239,700,ls),
(126,700,o),
(32,651,o),
(32,500,cs),
(32,483,ls),
(32,463,o),
(45,449,o),
(65,449,cs),
(208,449,ls),
(228,449,o),
(242,463,o),
(242,483,cs),
(242,492,ls),
(242,504,o),
(242,504,o),
(244,504,cs),
(709,504,ls),
(724,504,o),
(730,498,o),
(730,483,cs),
(730,408,l),
(64,408,ls),
(44,408,o),
(30,394,o),
(30,374,cs),
(30,211,ls),
(30,58,o),
(107,-20,o),
(260,-20,cs)
);
},
{
closed = 1;
nodes = (
(226,150,o),
(200,177,o),
(200,211,cs),
(200,272,l),
(770,272,l),
(770,211,ls),
(770,177,o),
(743,150,o),
(709,150,cs),
(260,150,ls)
);
},
{
closed = 1;
nodes = (
(709,170,ls),
(732,170,o),
(750,188,o),
(750,211,cs),
(750,252,l),
(220,252,l),
(220,211,ls),
(220,188,o),
(237,170,o),
(260,170,cs)
);
},
{
closed = 1;
nodes = (
(246,190,o),
(240,196,o),
(240,211,cs),
(240,232,l),
(730,232,l),
(730,211,ls),
(730,196,o),
(724,190,o),
(709,190,cs),
(260,190,ls)
);
},
{
closed = 1;
nodes = (
(118,0,o),
(50,69,o),
(50,211,cs),
(50,374,ls),
(50,383,o),
(55,388,o),
(64,388,cs),
(750,388,l),
(750,483,ls),
(750,506,o),
(732,524,o),
(709,524,cs),
(244,524,ls),
(227,524,o),
(222,515,o),
(222,492,cs),
(222,483,ls),
(222,474,o),
(217,469,o),
(208,469,cs),
(65,469,ls),
(56,469,o),
(52,474,o),
(52,483,cs),
(52,500,ls),
(52,637,o),
(133,680,o),
(239,680,cs),
(709,680,ls),
(851,680,o),
(920,611,o),
(920,469,cs),
(920,211,ls),
(920,69,o),
(851,0,o),
(709,0,cs),
(260,0,ls)
);
},
{
closed = 1;
nodes = (
(709,20,ls),
(843,20,o),
(900,77,o),
(900,211,cs),
(900,469,ls),
(900,603,o),
(843,660,o),
(709,660,cs),
(239,660,ls),
(138,660,o),
(72,625,o),
(72,500,cs),
(72,489,l),
(202,489,l),
(201,528,o),
(217,544,o),
(244,544,cs),
(709,544,ls),
(743,544,o),
(770,517,o),
(770,483,cs),
(770,368,l),
(70,368,l),
(70,211,ls),
(70,77,o),
(126,20,o),
(260,20,cs)
);
}
);
width = 970;
}
);
unicode = (399,601);
},
{
glyphname = F;
kernLeft = E;
kernRight = F;
lastChange = "2023-04-05 05:14:12 +0000";
layers = (
{
anchors = (
{
name = top;
pos = (422,680);
}
);
hints = (
{
horizontal = 1;
origin = (1,15);
target = (1,8);
type = Stem;
},
{
horizontal = 1;
origin = (0,14);
target = (0,5);
type = Stem;
},
{
origin = (0,18);
target = (0,3);
type = Stem;
}
);
layerId = m01;
shapes = (
{
closed = 1;
nodes = (
(206,0,ls),
(215,0,o),
(220,5,o),
(220,14,cs),
(220,564,l),
(189,534,l),
(781,534,ls),
(789,534,o),
(794,539,o),
(794,547,cs),
(794,666,ls),
(794,675,o),
(789,680,o),
(781,680,cs),
(64,680,ls),
(55,680,o),
(50,675,o),
(50,666,cs),
(50,14,ls),
(50,5,o),
(55,0,o),
(64,0,cs)
);
},
{
closed = 1;
nodes = (
(696,272,ls),
(704,272,o),
(709,277,o),
(709,286,cs),
(709,394,ls),
(709,403,o),
(704,408,o),
(696,408,cs),
(149,408,ls),
(140,408,o),
(135,403,o),
(135,394,cs),
(135,286,ls),
(135,277,o),
(140,272,o),
(149,272,cs)
);
}
);
width = 844;
},
{
anchors = (
{
name = top;
pos = (422,680);
}
);
hints = (
{
horizontal = 1;
origin = (1,30);
target = (0,30);
type = Stem;
},
{
horizontal = 1;
origin = (0,4);
target = (1,25);
type = Stem;
},
{
horizontal = 1;
origin = (1,16);
target = (0,13);
type = Stem;
},
{
horizontal = 1;
origin = (0,14);
target = (1,15);
type = Stem;
},
{
horizontal = 1;
origin = (1,6);
target = (0,23);
type = Stem;
},
{
horizontal = 1;
origin = (2,1);
target = (2,4);
type = Stem;
},
{
horizontal = 1;
origin = (2,5);
target = (2,8);
type = Stem;
},
{
origin = (0,27);
target = (1,2);
type = Stem;
},
{
origin = (1,26);
target = (0,3);
type = Stem;
},
{
origin = (1,21);
target = (0,8);
type = Stem;
},
{
origin = (1,11);
target = (0,18);
type = Stem;
},
{
origin = (2,9);
target = (2,0);
type = Stem;
}
);
layerId = "E09D4F69-3ABD-4349-AFCF-7CB4B65C8749";
shapes = (
{
closed = 1;
nodes = (
(206,-20,ls),
(226,-20,o),
(240,-6,o),
(240,14,cs),
(240,252,l),
(696,252,ls),
(715,252,o),
(729,266,o),
(729,286,cs),
(729,394,ls),
(729,414,o),
(715,428,o),
(696,428,cs),
(240,428,l),
(240,514,l),
(781,514,ls),
(800,514,o),
(814,528,o),
(814,547,cs),
(814,666,ls),
(814,686,o),
(800,700,o),
(781,700,cs),
(64,700,ls),
(44,700,o),
(30,686,o),
(30,666,cs),
(30,14,ls),
(30,-6,o),
(44,-20,o),
(64,-20,cs)
);
},
{
closed = 1;
nodes = (
(55,0,o),
(50,5,o),
(50,14,cs),
(50,666,ls),
(50,675,o),
(55,680,o),
(64,680,cs),
(781,680,ls),
(789,680,o),
(794,675,o),
(794,666,cs),
(794,547,ls),
(794,539,o),
(789,534,o),
(781,534,cs),
(220,534,l),
(220,408,l),
(696,408,ls),
(704,408,o),
(709,403,o),
(709,394,cs),
(709,286,ls),
(709,277,o),
(704,272,o),
(696,272,cs),
(220,272,l),
(220,14,ls),
(220,5,o),
(215,0,o),
(206,0,cs),
(64,0,ls)
);
},
{
closed = 1;
nodes = (
(200,20,l),
(200,292,l),
(689,292,l),
(689,388,l),
(200,388,l),
(200,554,l),
(774,554,l),
(774,660,l),
(70,660,l),
(70,20,l)
);
}
);
width = 844;
},
{
anchors = (
{
name = top;
pos = (422,680);
}
);
hints = (
{
horizontal = 1;
origin = (1,30);
target = (0,30);
type = Stem;
},
{
horizontal = 1;
origin = (0,4);
target = (1,25);
type = Stem;
},
{
horizontal = 1;
origin = (1,16);
target = (0,13);
type = Stem;
},
{
horizontal = 1;
origin = (0,14);
target = (1,15);
type = Stem;
},
{
horizontal = 1;
origin = (1,6);
target = (0,23);
type = Stem;
},
{
origin = (0,27);
target = (1,2);
type = Stem;
},
{
origin = (1,26);
target = (0,3);
type = Stem;
},
{
origin = (1,21);
target = (0,8);
type = Stem;
},
{
origin = (1,11);
target = (0,18);
type = Stem;
}
);
layerId = m003;
shapes = (
{
closed = 1;
nodes = (
(206,-20,ls),
(226,-20,o),
(240,-6,o),
(240,14,cs),
(240,252,l),
(696,252,ls),
(715,252,o),
(729,266,o),
(729,286,cs),
(729,394,ls),
(729,414,o),
(715,428,o),
(696,428,cs),
(240,428,l),
(240,514,l),
(781,514,ls),
(800,514,o),
(814,528,o),
(814,547,cs),
(814,666,ls),
(814,686,o),
(800,700,o),
(781,700,cs),
(64,700,ls),
(44,700,o),
(30,686,o),
(30,666,cs),
(30,14,ls),
(30,-6,o),
(44,-20,o),
(64,-20,cs)
);
},
{
closed = 1;
nodes = (
(55,0,o),
(50,5,o),
(50,14,cs),
(50,666,ls),
(50,675,o),
(55,680,o),
(64,680,cs),
(781,680,ls),
(789,680,o),
(794,675,o),
(794,666,cs),
(794,547,ls),
(794,539,o),
(789,534,o),
(781,534,cs),
(220,534,l),
(220,408,l),
(696,408,ls),
(704,408,o),
(709,403,o),
(709,394,cs),
(709,286,ls),
(709,277,o),
(704,272,o),
(696,272,cs),
(220,272,l),
(220,14,ls),
(220,5,o),
(215,0,o),
(206,0,cs),
(64,0,ls)
);
}
);
width = 844;
},
{
anchors = (
{
name = top;
pos = (422,680);
}
);
hints = (
{
horizontal = 1;
origin = (0,1);
target = (0,4);
type = Stem;
},
{
horizontal = 1;
origin = (0,5);
target = (0,8);
type = Stem;
},
{
origin = (0,9);
target = (0,0);
type = Stem;
}
);
layerId = m004;
shapes = (
{
closed = 1;
nodes = (
(200,20,l),
(200,292,l),
(689,292,l),
(689,388,l),
(200,388,l),
(200,554,l),
(774,554,l),
(774,660,l),
(70,660,l),
(70,20,l)
);
}
);
width = 844;
}
);
unicode = (70,102);
},
{
glyphname = G;
kernLeft = O;
kernRight = O;
lastChange = "2023-04-05 05:14:12 +0000";
layers = (
{
anchors = (
{
name = bottom;
pos = (485,0);
},
{
name = top;
pos = (485,680);
}
);
hints = (
{
horizontal = 1;
origin = (0,51);
target = (0,22);
type = Stem;
},
{
horizontal = 1;
origin = (0,15);
target = (0,8);
type = Stem;
},
{
horizontal = 1;
origin = (0,44);
target = (0,29);
type = Stem;
},
{
origin = (0,48);
target = (0,25);
type = Stem;
},
{
origin = (0,18);
target = (0,3);
type = Stem;
}
);
layerId = m01;
shapes = (
{
closed = 1;
nodes = (
(710,0,ls),
(852,0,o),
(920,69,o),
(920,211,cs),
(920,381,ls),
(920,390,o),
(916,395,o),
(907,395,cs),
(489,395,ls),
(480,395,o),
(475,390,o),
(475,381,cs),
(475,258,ls),
(475,250,o),
(480,245,o),
(489,245,cs),
(781,245,l),
(750,275,l),
(750,211,ls),
(750,188,o),
(733,170,o),
(710,170,cs),
(261,170,ls),
(238,170,o),
(220,188,o),
(220,211,cs),
(220,469,ls),
(220,492,o),
(238,510,o),
(261,510,cs),
(710,510,ls),
(729,510,o),
(744,498,o),
(748,481,cs),
(751,473,o),
(755,469,o),
(763,469,cs),
(907,469,ls),
(916,469,o),
(920,474,o),
(920,483,cs),
(916,616,o),
(847,680,o),
(710,680,cs),
(261,680,ls),
(119,680,o),
(50,611,o),
(50,469,cs),
(50,211,ls),
(50,69,o),
(119,0,o),
(261,0,cs)
);
}
);
width = 970;
},
{
anchors = (
{
name = bottom;
pos = (485,0);
},
{
name = top;
pos = (485,680);
}
);
hints = (
{
horizontal = 1;
origin = (1,50);
target = (0,50);
type = Stem;
},
{
horizontal = 1;
origin = (1,28);
target = (0,21);
type = Stem;
},
{
horizontal = 1;
origin = (0,15);
target = (1,34);
type = Stem;
},
{
horizontal = 1;
origin = (1,41);
target = (0,8);
type = Stem;
},
{
horizontal = 1;
origin = (0,28);
target = (1,21);
type = Stem;
},
{
horizontal = 1;
origin = (1,6);
target = (0,43);
type = Stem;
},
{
horizontal = 1;
origin = (0,35);
target = (0,46);
type = Stem;
},
{
horizontal = 1;
origin = (2,35);
target = (2,12);
type = Stem;
},
{
horizontal = 1;
origin = (2,6);
target = (2,5);
type = Stem;
},
{
horizontal = 1;
origin = (2,19);
target = (2,28);
type = Stem;
},
{
horizontal = 1;
origin = (2,23);
target = (1,21);
type = Stem;
},
{
origin = (0,47);
target = (1,2);
type = Stem;
},
{
origin = (1,25);
target = (0,24);
type = Stem;
},
{
origin = (0,12);
target = (1,37);
type = Stem;
},
{
origin = (0,17);
target = (1,32);
type = Stem;
},
{
origin = (1,46);
target = (0,3);
type = Stem;
},
{
origin = (2,32);
target = (2,15);
type = Stem;
},
{
origin = (2,8);
target = (2,3);
type = Stem;
}
);
layerId = "E09D4F69-3ABD-4349-AFCF-7CB4B65C8749";
shapes = (
{
closed = 1;
nodes = (
(710,-20,ls),
(863,-20,o),
(940,58,o),
(940,211,cs),
(940,381,ls),
(940,401,o),
(927,415,o),
(907,415,cs),
(489,415,ls),
(469,415,o),
(455,401,o),
(455,381,cs),
(455,258,ls),
(455,239,o),
(469,225,o),
(489,225,cs),
(730,225,l),
(730,211,ls),
(730,196,o),
(724,190,o),
(710,190,cs),
(261,190,ls),
(246,190,o),
(240,196,o),
(240,211,cs),
(240,469,ls),
(240,484,o),
(246,490,o),
(261,490,cs),
(710,490,ls),
(722,490,o),
(726,486,o),
(729,475,cs),
(734,459,o),
(746,449,o),
(763,449,cs),
(907,449,ls),
(927,449,o),
(940,463,o),
(940,483,cs),
(936,628,o),
(857,700,o),
(710,700,cs),
(261,700,ls),
(108,700,o),
(30,622,o),
(30,469,cs),
(30,211,ls),
(30,58,o),
(108,-20,o),
(261,-20,cs)
);
},
{
closed = 1;
nodes = (
(119,0,o),
(50,69,o),
(50,211,cs),
(50,469,ls),
(50,611,o),
(119,680,o),
(261,680,cs),
(710,680,ls),
(847,680,o),
(916,616,o),
(920,483,cs),
(920,474,o),
(916,469,o),
(907,469,cs),
(763,469,ls),
(755,469,o),
(751,473,o),
(748,481,c),
(744,498,o),
(729,510,o),
(710,510,cs),
(261,510,ls),
(238,510,o),
(220,492,o),
(220,469,cs),
(220,211,ls),
(220,188,o),
(238,170,o),
(261,170,cs),
(710,170,ls),
(733,170,o),
(750,188,o),
(750,211,cs),
(750,245,l),
(489,245,ls),
(480,245,o),
(475,250,o),
(475,258,cs),
(475,381,ls),
(475,390,o),
(480,395,o),
(489,395,cs),
(907,395,ls),
(916,395,o),
(920,390,o),
(920,381,cs),
(920,211,ls),
(920,69,o),
(852,0,o),
(710,0,cs),
(261,0,ls)
);
},
{
closed = 1;
nodes = (
(710,20,ls),
(844,20,o),
(900,77,o),
(900,211,cs),
(900,375,l),
(495,375,l),
(495,265,l),
(770,265,l),
(770,211,ls),
(770,177,o),
(744,150,o),
(710,150,cs),
(261,150,ls),
(227,150,o),
(200,177,o),
(200,211,cs),
(200,469,ls),
(200,503,o),
(227,530,o),
(261,530,cs),
(710,530,ls),
(737,530,o),
(759,513,o),
(766,489,c),
(900,489,l),
(894,609,o),
(837,660,o),
(710,660,cs),
(261,660,ls),
(127,660,o),
(70,603,o),
(70,469,cs),
(70,211,ls),
(70,77,o),
(127,20,o),
(261,20,cs)
);
}
);
width = 970;
},
{
anchors = (
{
name = bottom;
pos = (485,0);
},
{
name = top;
pos = (485,680);
}
);
hints = (
{
horizontal = 1;
origin = (1,50);
target = (0,50);
type = Stem;
},
{
horizontal = 1;
origin = (1,28);
target = (0,21);
type = Stem;
},
{
horizontal = 1;
origin = (0,15);
target = (1,34);
type = Stem;
},
{
horizontal = 1;
origin = (1,41);
target = (0,8);
type = Stem;
},
{
horizontal = 1;
origin = (0,28);
target = (1,21);
type = Stem;
},
{
horizontal = 1;
origin = (1,6);
target = (0,43);
type = Stem;
},
{
horizontal = 1;
origin = (0,35);
target = (0,46);
type = Stem;
},
{
origin = (0,47);
target = (1,2);
type = Stem;
},
{
origin = (1,25);
target = (0,24);
type = Stem;
},
{
origin = (0,12);
target = (1,37);
type = Stem;
},
{
origin = (0,17);
target = (1,32);
type = Stem;
},
{
origin = (1,46);
target = (0,3);
type = Stem;
}
);
layerId = m003;
shapes = (
{
closed = 1;
nodes = (
(710,-20,ls),
(863,-20,o),
(940,58,o),
(940,211,cs),
(940,381,ls),
(940,401,o),
(927,415,o),
(907,415,cs),
(489,415,ls),
(469,415,o),
(455,401,o),
(455,381,cs),
(455,258,ls),
(455,239,o),
(469,225,o),
(489,225,cs),
(730,225,l),
(730,211,ls),
(730,196,o),
(724,190,o),
(710,190,cs),
(261,190,ls),
(246,190,o),
(240,196,o),
(240,211,cs),
(240,469,ls),
(240,484,o),
(246,490,o),
(261,490,cs),
(710,490,ls),
(722,490,o),
(726,486,o),
(729,475,cs),
(734,459,o),
(746,449,o),
(763,449,cs),
(907,449,ls),
(927,449,o),
(940,463,o),
(940,483,cs),
(936,628,o),
(857,700,o),
(710,700,cs),
(261,700,ls),
(108,700,o),
(30,622,o),
(30,469,cs),
(30,211,ls),
(30,58,o),
(108,-20,o),
(261,-20,cs)
);
},
{
closed = 1;
nodes = (
(119,0,o),
(50,69,o),
(50,211,cs),
(50,469,ls),
(50,611,o),
(119,680,o),
(261,680,cs),
(710,680,ls),
(847,680,o),
(916,616,o),
(920,483,cs),
(920,474,o),
(916,469,o),
(907,469,cs),
(763,469,ls),
(755,469,o),
(751,473,o),
(748,481,c),
(744,498,o),
(729,510,o),
(710,510,cs),
(261,510,ls),
(238,510,o),
(220,492,o),
(220,469,cs),
(220,211,ls),
(220,188,o),
(238,170,o),
(261,170,cs),
(710,170,ls),
(733,170,o),
(750,188,o),
(750,211,cs),
(750,245,l),
(489,245,ls),
(480,245,o),
(475,250,o),
(475,258,cs),
(475,381,ls),
(475,390,o),
(480,395,o),
(489,395,cs),
(907,395,ls),
(916,395,o),
(920,390,o),
(920,381,cs),
(920,211,ls),
(920,69,o),
(852,0,o),
(710,0,cs),
(261,0,ls)
);
}
);
width = 970;
},
{
anchors = (
{
name = bottom;
pos = (485,0);
},
{
name = top;
pos = (485,680);
}
);
hints = (
{
horizontal = 1;
origin = (0,35);
target = (0,12);
type = Stem;
},
{
horizontal = 1;
origin = (0,6);
target = (0,5);
type = Stem;
},
{
horizontal = 1;
origin = (0,19);
target = (0,28);
type = Stem;
},
{
origin = (0,32);
target = (0,15);
type = Stem;
},
{
origin = (0,8);
target = (0,3);
type = Stem;
}
);
layerId = m004;
shapes = (
{
closed = 1;
nodes = (
(710,20,ls),
(844,20,o),
(900,77,o),
(900,211,cs),
(900,375,l),
(495,375,l),
(495,265,l),
(770,265,l),
(770,211,ls),
(770,177,o),
(744,150,o),
(710,150,cs),
(261,150,ls),
(227,150,o),
(200,177,o),
(200,211,cs),
(200,469,ls),
(200,503,o),
(227,530,o),
(261,530,cs),
(710,530,ls),
(737,530,o),
(759,513,o),
(766,489,c),
(900,489,l),
(894,609,o),
(837,660,o),
(710,660,cs),
(261,660,ls),
(127,660,o),
(70,603,o),
(70,469,cs),
(70,211,ls),
(70,77,o),
(127,20,o),
(261,20,cs)
);
}
);
width = 970;
}
);
unicode = (71,103);
},
{
glyphname = H;
kernLeft = I;
kernRight = I;
lastChange = "2023-04-05 18:43:09 +0000";
layers = (
{
anchors = (
{
name = top;
pos = (457,680);
}
);
hints = (
{
horizontal = 1;
origin = (2,15);
target = (2,8);
type = Stem;
},
{
horizontal = 1;
origin = (1,8);
target = down;
type = TopGhost;
},
{
origin = (1,12);
target = (1,3);
type = Stem;
},
{
origin = (0,12);
target = (0,3);
type = Stem;
}
);
layerId = m01;
shapes = (
{
closed = 1;
nodes = (
(849,0,ls),
(858,0,o),
(863,5,o),
(863,14,cs),
(863,666,ls),
(863,675,o),
(858,680,o),
(849,680,cs),
(706,680,ls),
(697,680,o),
(693,675,o),
(693,666,cs),
(693,14,ls),
(693,5,o),
(697,0,o),
(706,0,cs)
);
},
{
closed = 1;
nodes = (
(206,0,ls),
(215,0,o),
(220,5,o),
(220,14,cs),
(220,666,ls),
(220,675,o),
(215,680,o),
(206,680,cs),
(64,680,ls),
(55,680,o),
(50,675,o),
(50,666,cs),
(50,14,ls),
(50,5,o),
(55,0,o),
(64,0,cs)
);
},
{
closed = 1;
nodes = (
(764,261,ls),
(773,261,o),
(778,266,o),
(778,275,cs),
(778,404,ls),
(778,413,o),
(773,418,o),
(764,418,cs),
(149,418,ls),
(140,418,o),
(135,413,o),
(135,404,cs),
(135,275,ls),
(135,266,o),
(140,261,o),
(149,261,cs)
);
}
);
width = 913;
},
{
anchors = (
{
name = top;
pos = (457,680);
}
);
hints = (
{
horizontal = 1;
origin = (1,35);
target = (0,35);
type = Stem;
},
{
horizontal = 1;
origin = (0,4);
target = (1,30);
type = Stem;
},
{
horizontal = 1;
origin = (1,11);
target = (0,23);
type = Stem;
},
{
horizontal = 1;
origin = (1,6);
target = (0,28);
type = Stem;
},
{
horizontal = 1;
origin = (2,1);
target = (2,8);
type = Stem;
},
{
origin = (0,32);
target = (1,2);
type = Stem;
},
{
origin = (1,31);
target = (0,3);
type = Stem;
},
{
origin = (0,6);
target = (1,28);
type = Stem;
},
{
origin = (1,21);
target = (0,13);
type = Stem;
},
{
origin = (2,11);
target = (2,0);
type = Stem;
},
{
origin = (2,3);
target = (2,4);
type = Stem;
}
);
layerId = "E09D4F69-3ABD-4349-AFCF-7CB4B65C8749";
shapes = (
{
closed = 1;
nodes = (
(206,-21,ls),
(226,-21,o),
(240,-7,o),
(240,13,cs),
(240,241,l),
(673,241,l),
(673,13,ls),
(673,-7,o),
(686,-21,o),
(706,-21,cs),
(849,-21,ls),
(869,-21,o),
(883,-7,o),
(883,13,cs),
(883,666,ls),
(883,686,o),
(869,700,o),
(849,700,cs),
(706,700,ls),
(686,700,o),
(673,686,o),
(673,666,cs),
(673,438,l),
(240,438,l),
(240,666,ls),
(240,686,o),
(226,700,o),
(206,700,cs),
(64,700,ls),
(44,700,o),
(30,686,o),
(30,666,cs),
(30,13,ls),
(30,-7,o),
(44,-21,o),
(64,-21,cs)
);
},
{
closed = 1;
nodes = (
(55,-1,o),
(50,4,o),
(50,13,cs),
(50,666,ls),
(50,675,o),
(55,680,o),
(64,680,cs),
(206,680,ls),
(215,680,o),
(220,675,o),
(220,666,cs),
(220,418,l),
(693,418,l),
(693,666,ls),
(693,675,o),
(697,680,o),
(706,680,cs),
(849,680,ls),
(858,680,o),
(863,675,o),
(863,666,cs),
(863,13,ls),
(863,4,o),
(858,-1,o),
(849,-1,cs),
(706,-1,ls),
(697,-1,o),
(693,4,o),
(693,13,cs),
(693,261,l),
(220,261,l),
(220,13,ls),
(220,4,o),
(215,-1,o),
(206,-1,cs),
(64,-1,ls)
);
},
{
closed = 1;
nodes = (
(200,19,l),
(200,281,l),
(713,281,l),
(713,19,l),
(843,19,l),
(843,660,l),
(713,660,l),
(713,398,l),
(200,398,l),
(200,660,l),
(70,660,l),
(70,19,l)
);
}
);
width = 913;
},
{
anchors = (
{
name = top;
pos = (457,680);
}
);
hints = (
{
horizontal = 1;
origin = (1,35);
target = (0,35);
type = Stem;
},
{
horizontal = 1;
origin = (0,4);
target = (1,30);
type = Stem;
},
{
horizontal = 1;
origin = (1,11);
target = (0,23);
type = Stem;
},
{
horizontal = 1;
origin = (1,6);
target = (0,28);
type = Stem;
},
{
origin = (0,32);
target = (1,2);
type = Stem;
},
{
origin = (1,31);
target = (0,3);
type = Stem;
},
{
origin = (0,6);
target = (1,28);
type = Stem;
},
{
origin = (1,21);
target = (0,13);
type = Stem;
}
);
layerId = m003;
shapes = (
{
closed = 1;
nodes = (
(206,-21,ls),
(226,-21,o),
(240,-7,o),
(240,13,cs),
(240,241,l),
(673,241,l),
(673,13,ls),
(673,-7,o),
(686,-21,o),
(706,-21,cs),
(849,-21,ls),
(869,-21,o),
(883,-7,o),
(883,13,cs),
(883,666,ls),
(883,686,o),
(869,700,o),
(849,700,cs),
(706,700,ls),
(686,700,o),
(673,686,o),
(673,666,cs),
(673,438,l),
(240,438,l),
(240,666,ls),
(240,686,o),
(226,700,o),
(206,700,cs),
(64,700,ls),
(44,700,o),
(30,686,o),
(30,666,cs),
(30,13,ls),
(30,-7,o),
(44,-21,o),
(64,-21,cs)
);
},
{
closed = 1;
nodes = (
(55,-1,o),
(50,4,o),
(50,13,cs),
(50,666,ls),
(50,675,o),
(55,680,o),
(64,680,cs),
(206,680,ls),
(215,680,o),
(220,675,o),
(220,666,cs),
(220,418,l),
(693,418,l),
(693,666,ls),
(693,675,o),
(697,680,o),
(706,680,cs),
(849,680,ls),
(858,680,o),
(863,675,o),
(863,666,cs),
(863,13,ls),
(863,4,o),
(858,-1,o),
(849,-1,cs),
(706,-1,ls),
(697,-1,o),
(693,4,o),
(693,13,cs),
(693,261,l),
(220,261,l),
(220,13,ls),
(220,4,o),
(215,-1,o),
(206,-1,cs),
(64,-1,ls)
);
}
);
width = 913;
},
{
anchors = (
{
name = top;
pos = (457,680);
}
);
hints = (
{
horizontal = 1;
origin = (0,1);
target = (0,8);
type = Stem;
},
{
origin = (0,11);
target = (0,0);
type = Stem;
},
{
origin = (0,3);
target = (0,4);
type = Stem;
}
);
layerId = m004;
shapes = (
{
closed = 1;
nodes = (
(200,19,l),
(200,281,l),
(713,281,l),
(713,19,l),
(843,19,l),
(843,660,l),
(713,660,l),
(713,398,l),
(200,398,l),
(200,660,l),
(70,660,l),
(70,19,l)
);
}
);
width = 913;
}
);
unicode = (72,104);
},
{
glyphname = Hbar;
lastChange = "2023-04-05 05:14:12 +0000";
layers = (
{
hints = (
{
horizontal = 1;
origin = (0,15);
target = (0,8);
type = Stem;
},
{
origin = (0,12);
target = (0,3);
type = Stem;
}
);
layerId = m01;
shapes = (
{
closed = 1;
nodes = (
(1046,522,ls),
(1055,522,o),
(1060,527,o),
(1060,535,cs),
(1060,597,ls),
(1060,605,o),
(1055,610,o),
(1046,610,cs),
(64,610,ls),
(55,610,o),
(50,605,o),
(50,597,cs),
(50,535,ls),
(50,527,o),
(55,522,o),
(64,522,cs)
);
},
{
pos = (98,0);
ref = H;
}
);
width = 1110;
},
{
anchors = (
{
name = top;
pos = (556,680);
}
);
hints = (
{
horizontal = 1;
origin = (1,55);
target = (0,55);
type = Stem;
},
{
horizontal = 1;
origin = (0,4);
target = (1,50);
type = Stem;
},
{
horizontal = 1;
origin = (4,3);
target = (5,3);
type = Stem;
},
{
horizontal = 1;
origin = (0,50);
target = (1,4);
type = Stem;
},
{
horizontal = 1;
origin = (1,11);
target = (0,43);
type = Stem;
},
{
horizontal = 1;
origin = (1,16);
target = (0,38);
type = Stem;
},
{
horizontal = 1;
origin = (2,17);
target = (2,16);
type = Stem;
},
{
horizontal = 1;
origin = (2,1);
target = (3,3);
type = Stem;
},
{
horizontal = 1;
origin = (1,11);
target = (2,14);
type = Stem;
},
{
origin = (0,47);
target = (1,7);
type = Stem;
},
{
origin = (0,52);
target = (1,2);
type = Stem;
},
{
origin = (1,51);
target = (0,3);
type = Stem;
},
{
origin = (0,6);
target = (1,48);
type = Stem;
},
{
origin = (1,41);
target = (0,13);
type = Stem;
},
{
origin = (1,36);
target = (0,18);
type = Stem;
},
{
origin = (2,17);
target = (1,2);
type = Stem;
},
{
origin = (2,19);
target = (2,0);
type = Stem;
},
{
origin = (2,3);
target = (2,4);
type = Stem;
},
{
origin = (1,41);
target = (2,6);
type = Stem;
}
);
layerId = "E09D4F69-3ABD-4349-AFCF-7CB4B65C8749";
shapes = (
{
closed = 1;
nodes = (
(305,-21,ls),
(325,-21,o),
(339,-7,o),
(339,13,cs),
(339,241,l),
(772,241,l),
(772,13,ls),
(772,-7,o),
(785,-21,o),
(805,-21,cs),
(948,-21,ls),
(968,-21,o),
(982,-7,o),
(982,13,cs),
(982,502,l),
(1033,502,ls),
(1053,502,o),
(1067,516,o),
(1067,535,cs),
(1067,597,ls),
(1067,616,o),
(1053,630,o),
(1033,630,cs),
(982,630,l),
(982,666,ls),
(982,686,o),
(968,700,o),
(948,700,cs),
(805,700,ls),
(785,700,o),
(772,686,o),
(772,666,cs),
(772,630,l),
(339,630,l),
(339,666,ls),
(339,686,o),
(325,700,o),
(305,700,cs),
(163,700,ls),
(143,700,o),
(129,686,o),
(129,666,cs),
(129,630,l),
(78,630,ls),
(58,630,o),
(44,616,o),
(44,597,cs),
(44,535,ls),
(44,516,o),
(58,502,o),
(78,502,cs),
(129,502,l),
(129,13,ls),
(129,-7,o),
(143,-21,o),
(163,-21,cs)
);
},
{
closed = 1;
nodes = (
(154,-1,o),
(149,4,o),
(149,13,cs),
(149,522,l),
(78,522,ls),
(69,522,o),
(64,527,o),
(64,535,cs),
(64,597,ls),
(64,605,o),
(69,610,o),
(78,610,cs),
(149,610,l),
(149,666,ls),
(149,675,o),
(154,680,o),
(163,680,cs),
(305,680,ls),
(314,680,o),
(319,675,o),
(319,666,cs),
(319,610,l),
(792,610,l),
(792,666,ls),
(792,675,o),
(796,680,o),
(805,680,cs),
(948,680,ls),
(957,680,o),
(962,675,o),
(962,666,cs),
(962,610,l),
(1033,610,ls),
(1042,610,o),
(1047,605,o),
(1047,597,cs),
(1047,535,ls),
(1047,527,o),
(1042,522,o),
(1033,522,cs),
(962,522,l),
(962,13,ls),
(962,4,o),
(957,-1,o),
(948,-1,cs),
(805,-1,ls),
(796,-1,o),
(792,4,o),
(792,13,cs),
(792,261,l),
(319,261,l),
(319,13,ls),
(319,4,o),
(314,-1,o),
(305,-1,cs),
(163,-1,ls)
);
},
{
closed = 1;
nodes = (
(299,19,l),
(299,281,l),
(812,281,l),
(812,19,l),
(942,19,l),
(942,542,l),
(1027,542,l),
(1027,590,l),
(942,590,l),
(942,660,l),
(812,660,l),
(812,590,l),
(299,590,l),
(299,660,l),
(169,660,l),
(169,590,l),
(84,590,l),
(84,542,l),
(169,542,l),
(169,19,l)
);
},
{
closed = 1;
nodes = (
(299,542,l),
(812,542,l),
(812,398,l),
(299,398,l)
);
},
{
closed = 1;
nodes = (
(792,418,l),
(792,522,l),
(319,522,l),
(319,418,l)
);
},
{
closed = 1;
nodes = (
(339,502,l),
(772,502,l),
(772,438,l),
(339,438,l)
);
}
);
width = 1110;
},
{
anchors = (
{
name = top;
pos = (556,680);
}
);
hints = (
{
horizontal = 1;
origin = (1,55);
target = (0,55);
type = Stem;
},
{
horizontal = 1;
origin = (0,4);
target = (1,50);
type = Stem;
},
{
horizontal = 1;
origin = (2,3);
target = (3,3);
type = Stem;
},
{
horizontal = 1;
origin = (0,50);
target = (1,4);
type = Stem;
},
{
horizontal = 1;
origin = (1,11);
target = (0,43);
type = Stem;
},
{
horizontal = 1;
origin = (1,16);
target = (0,38);
type = Stem;
},
{
origin = (0,47);
target = (1,7);
type = Stem;
},
{
origin = (0,52);
target = (1,2);
type = Stem;
},
{
origin = (1,51);
target = (0,3);
type = Stem;
},
{
origin = (0,6);
target = (1,48);
type = Stem;
},
{
origin = (1,41);
target = (0,13);
type = Stem;
},
{
origin = (1,36);
target = (0,18);
type = Stem;
}
);
layerId = m003;
shapes = (
{
closed = 1;
nodes = (
(305,-21,ls),
(325,-21,o),
(339,-7,o),
(339,13,cs),
(339,241,l),
(772,241,l),
(772,13,ls),
(772,-7,o),
(785,-21,o),
(805,-21,cs),
(948,-21,ls),
(968,-21,o),
(982,-7,o),
(982,13,cs),
(982,502,l),
(1033,502,ls),
(1053,502,o),
(1067,516,o),
(1067,535,cs),
(1067,597,ls),
(1067,616,o),
(1053,630,o),
(1033,630,cs),
(982,630,l),
(982,666,ls),
(982,686,o),
(968,700,o),
(948,700,cs),
(805,700,ls),
(785,700,o),
(772,686,o),
(772,666,cs),
(772,630,l),
(339,630,l),
(339,666,ls),
(339,686,o),
(325,700,o),
(305,700,cs),
(163,700,ls),
(143,700,o),
(129,686,o),
(129,666,cs),
(129,630,l),
(78,630,ls),
(58,630,o),
(44,616,o),
(44,597,cs),
(44,535,ls),
(44,516,o),
(58,502,o),
(78,502,cs),
(129,502,l),
(129,13,ls),
(129,-7,o),
(143,-21,o),
(163,-21,cs)
);
},
{
closed = 1;
nodes = (
(154,-1,o),
(149,4,o),
(149,13,cs),
(149,522,l),
(78,522,ls),
(69,522,o),
(64,527,o),
(64,535,cs),
(64,597,ls),
(64,605,o),
(69,610,o),
(78,610,cs),
(149,610,l),
(149,666,ls),
(149,675,o),
(154,680,o),
(163,680,cs),
(305,680,ls),
(314,680,o),
(319,675,o),
(319,666,cs),
(319,610,l),
(792,610,l),
(792,666,ls),
(792,675,o),
(796,680,o),
(805,680,cs),
(948,680,ls),
(957,680,o),
(962,675,o),
(962,666,cs),
(962,610,l),
(1033,610,ls),
(1042,610,o),
(1047,605,o),
(1047,597,cs),
(1047,535,ls),
(1047,527,o),
(1042,522,o),
(1033,522,cs),
(962,522,l),
(962,13,ls),
(962,4,o),
(957,-1,o),
(948,-1,cs),
(805,-1,ls),
(796,-1,o),
(792,4,o),
(792,13,cs),
(792,261,l),
(319,261,l),
(319,13,ls),
(319,4,o),
(314,-1,o),
(305,-1,cs),
(163,-1,ls)
);
},
{
closed = 1;
nodes = (
(792,418,l),
(792,522,l),
(319,522,l),
(319,418,l)
);
},
{
closed = 1;
nodes = (
(339,502,l),
(772,502,l),
(772,438,l),
(339,438,l)
);
}
);
width = 1110;
},
{
anchors = (
{
name = top;
pos = (556,680);
}
);
hints = (
{
horizontal = 1;
origin = (0,1);
target = (1,3);
type = Stem;
},
{
horizontal = 1;
origin = (0,17);
target = (0,16);
type = Stem;
},
{
origin = (0,19);
target = (0,0);
type = Stem;
},
{
origin = (0,3);
target = (0,4);
type = Stem;
}
);
layerId = m004;
shapes = (
{
closed = 1;
nodes = (
(299,19,l),
(299,281,l),
(812,281,l),
(812,19,l),
(942,19,l),
(942,542,l),
(1027,542,l),
(1027,590,l),
(942,590,l),
(942,660,l),
(812,660,l),
(812,590,l),
(299,590,l),
(299,660,l),
(169,660,l),
(169,590,l),
(84,590,l),
(84,542,l),
(169,542,l),
(169,19,l)
);
},
{
closed = 1;
nodes = (
(299,542,l),
(812,542,l),
(812,398,l),
(299,398,l)
);
}
);
width = 1110;
}
);
unicode = (294,295);
},
{
glyphname = I.ss01;
kernLeft = I;
kernRight = I;
lastChange = "2023-04-05 05:14:12 +0000";
layers = (
{
anchors = (
{
name = bottom;
pos = (225,0);
},
{
name = top;
pos = (225,680);
}
);
hints = (
{
horizontal = 1;
origin = (1,15);
target = (1,8);
type = Stem;
},
{
horizontal = 1;
origin = (2,8);
target = (2,15);
type = Stem;
},
{
origin = (0,12);
target = (0,3);
type = Stem;
}
);
layerId = m01;
shapes = (
{
closed = 1;
nodes = (
(296,0,ls),
(305,0,o),
(310,5,o),
(310,14,cs),
(310,666,ls),
(310,675,o),
(305,680,o),
(296,680,cs),
(154,680,ls),
(145,680,o),
(140,675,o),
(140,666,cs),
(140,14,ls),
(140,5,o),
(145,0,o),
(154,0,cs)
);
},
{
closed = 1;
nodes = (
(386,0,ls),
(395,0,o),
(400,5,o),
(400,14,cs),
(400,136,ls),
(400,145,o),
(395,150,o),
(386,150,cs),
(64,150,ls),
(55,150,o),
(50,145,o),
(50,136,cs),
(50,14,ls),
(50,5,o),
(55,0,o),
(64,0,cs)
);
},
{
closed = 1;
nodes = (
(386,530,ls),
(395,530,o),
(400,535,o),
(400,544,cs),
(400,666,ls),
(400,675,o),
(395,680,o),
(386,680,cs),
(64,680,ls),
(55,680,o),
(50,675,o),
(50,666,cs),
(50,544,ls),
(50,535,o),
(55,530,o),
(64,530,cs)
);
}
);
width = 450;
},
{
anchors = (
{
name = bottom;
pos = (225,0);
},
{
name = top;
pos = (225,680);
}
);
hints = (
{
horizontal = 1;
origin = (1,35);
target = (0,35);
type = Stem;
},
{
horizontal = 1;
origin = (1,6);
target = (0,28);
type = Stem;
},
{
horizontal = 1;
origin = (0,25);
target = (1,9);
type = Stem;
},
{
horizontal = 1;
origin = (1,16);
target = (0,18);
type = Stem;
},
{
horizontal = 1;
origin = (2,11);
target = (2,10);
type = Stem;
},
{
horizontal = 1;
origin = (2,7);
target = (2,6);
type = Stem;
},
{
origin = (0,32);
target = (1,2);
type = Stem;
},
{
origin = (0,27);
target = (1,7);
type = Stem;
},
{
origin = (1,26);
target = (0,8);
type = Stem;
},
{
origin = (1,31);
target = (0,3);
type = Stem;
},
{
origin = (2,11);
target = (1,7);
type = Stem;
},
{
origin = (1,26);
target = (2,0);
type = Stem;
},
{
origin = (2,9);
target = (2,2);
type = Stem;
}
);
layerId = "E09D4F69-3ABD-4349-AFCF-7CB4B65C8749";
shapes = (
{
closed = 1;
nodes = (
(386,-20,ls),
(406,-20,o),
(420,-6,o),
(420,14,cs),
(420,136,ls),
(420,156,o),
(406,170,o),
(386,170,cs),
(330,170,l),
(330,510,l),
(386,510,ls),
(406,510,o),
(420,524,o),
(420,544,cs),
(420,666,ls),
(420,686,o),
(406,700,o),
(386,700,cs),
(64,700,ls),
(44,700,o),
(30,686,o),
(30,666,cs),
(30,544,ls),
(30,524,o),
(44,510,o),
(64,510,cs),
(120,510,l),
(120,170,l),
(64,170,ls),
(44,170,o),
(30,156,o),
(30,136,cs),
(30,14,ls),
(30,-6,o),
(44,-20,o),
(64,-20,cs)
);
},
{
closed = 1;
nodes = (
(55,0,o),
(50,5,o),
(50,14,cs),
(50,136,ls),
(50,145,o),
(55,150,o),
(64,150,cs),
(140,150,l),
(140,530,l),
(64,530,ls),
(55,530,o),
(50,535,o),
(50,544,cs),
(50,666,ls),
(50,675,o),
(55,680,o),
(64,680,cs),
(386,680,ls),
(395,680,o),
(400,675,o),
(400,666,cs),
(400,544,ls),
(400,535,o),
(395,530,o),
(386,530,cs),
(310,530,l),
(310,150,l),
(386,150,ls),
(395,150,o),
(400,145,o),
(400,136,cs),
(400,14,ls),
(400,5,o),
(395,0,o),
(386,0,cs),
(64,0,ls)
);
},
{
closed = 1;
nodes = (
(380,20,l),
(380,130,l),
(290,130,l),
(290,550,l),
(380,550,l),
(380,660,l),
(70,660,l),
(70,550,l),
(160,550,l),
(160,130,l),
(70,130,l),
(70,20,l)
);
}
);
width = 450;
},
{
anchors = (
{
name = bottom;
pos = (225,0);
},
{
name = top;
pos = (225,680);
}
);
hints = (
{
horizontal = 1;
origin = (1,35);
target = (0,35);
type = Stem;
},
{
horizontal = 1;
origin = (1,6);
target = (0,28);
type = Stem;
},
{
horizontal = 1;
origin = (0,25);
target = (1,9);
type = Stem;
},
{
horizontal = 1;
origin = (1,16);
target = (0,18);
type = Stem;
},
{
origin = (0,32);
target = (1,2);
type = Stem;
},
{
origin = (0,27);
target = (1,7);
type = Stem;
},
{
origin = (1,26);
target = (0,8);
type = Stem;
},
{
origin = (1,31);
target = (0,3);
type = Stem;
}
);
layerId = m003;
shapes = (
{
closed = 1;
nodes = (
(386,-20,ls),
(406,-20,o),
(420,-6,o),
(420,14,cs),
(420,136,ls),
(420,156,o),
(406,170,o),
(386,170,cs),
(330,170,l),
(330,510,l),
(386,510,ls),
(406,510,o),
(420,524,o),
(420,544,cs),
(420,666,ls),
(420,686,o),
(406,700,o),
(386,700,cs),
(64,700,ls),
(44,700,o),
(30,686,o),
(30,666,cs),
(30,544,ls),
(30,524,o),
(44,510,o),
(64,510,cs),
(120,510,l),
(120,170,l),
(64,170,ls),
(44,170,o),
(30,156,o),
(30,136,cs),
(30,14,ls),
(30,-6,o),
(44,-20,o),
(64,-20,cs)
);
},
{
closed = 1;
nodes = (
(55,0,o),
(50,5,o),
(50,14,cs),
(50,136,ls),
(50,145,o),
(55,150,o),
(64,150,cs),
(140,150,l),
(140,530,l),
(64,530,ls),
(55,530,o),
(50,535,o),
(50,544,cs),
(50,666,ls),
(50,675,o),
(55,680,o),
(64,680,cs),
(386,680,ls),
(395,680,o),
(400,675,o),
(400,666,cs),
(400,544,ls),
(400,535,o),
(395,530,o),
(386,530,cs),
(310,530,l),
(310,150,l),
(386,150,ls),
(395,150,o),
(400,145,o),
(400,136,cs),
(400,14,ls),
(400,5,o),
(395,0,o),
(386,0,cs),
(64,0,ls)
);
}
);
width = 450;
},
{
anchors = (
{
name = bottom;
pos = (225,0);
},
{
name = top;
pos = (225,680);
}
);
hints = (
{
horizontal = 1;
origin = (0,11);
target = (0,10);
type = Stem;
},
{
horizontal = 1;
origin = (0,7);
target = (0,6);
type = Stem;
},
{
origin = (0,9);
target = (0,2);
type = Stem;
}
);
layerId = m004;
shapes = (
{
closed = 1;
nodes = (
(380,20,l),
(380,130,l),
(290,130,l),
(290,550,l),
(380,550,l),
(380,660,l),
(70,660,l),
(70,550,l),
(160,550,l),
(160,130,l),
(70,130,l),
(70,20,l)
);
}
);
width = 450;
}
);
},
{
glyphname = IJ;
kernLeft = O;
kernRight = O;
lastChange = "2023-04-05 05:14:12 +0000";
layers = (
{
hints = (
{
horizontal = 1;
origin = (0,29);
target = (0,15);
type = Stem;
},
{
horizontal = 1;
origin = (1,8);
target = down;
type = TopGhost;
},
{
origin = (0,25);
target = (0,18);
type = Stem;
},
{
origin = (0,11);
target = (0,2);
type = Stem;
}
);
layerId = m01;
shapes = (
{
closed = 1;
nodes = (
(746,-1,o),
(815,68,o),
(815,210,cs),
(815,666,ls),
(815,675,o),
(810,680,o),
(801,680,cs),
(659,680,ls),
(650,680,o),
(645,675,o),
(645,666,cs),
(645,210,ls),
(645,187,o),
(627,169,o),
(604,169,c),
(261,170,l),
(238,170,o),
(220,187,o),
(220,210,cs),
(220,217,o),
(215,224,o),
(206,224,cs),
(64,224,ls),
(55,224,o),
(50,219,o),
(50,210,cs),
(50,68,o),
(119,0,o),
(261,0,c),
(604,-1,l)
);
},
{
closed = 1;
nodes = (
(206,309,ls),
(215,309,o),
(220,314,o),
(220,323,cs),
(220,666,ls),
(220,675,o),
(215,680,o),
(206,680,cs),
(64,680,ls),
(55,680,o),
(50,675,o),
(50,666,cs),
(50,323,ls),
(50,314,o),
(55,309,o),
(64,309,cs)
);
}
);
width = 865;
},
{
hints = (
{
horizontal = 1;
origin = (4,0);
target = (0,29);
type = Stem;
},
{
horizontal = 1;
origin = (4,14);
target = (0,15);
type = Stem;
},
{
horizontal = 1;
origin = (4,6);
target = (0,22);
type = Stem;
},
{
horizontal = 1;
origin = (1,15);
target = (2,15);
type = Stem;
},
{
horizontal = 1;
origin = (2,6);
target = (1,8);
type = Stem;
},
{
horizontal = 1;
origin = (4,14);
target = (5,13);
type = Stem;
},
{
horizontal = 1;
origin = (5,17);
target = (5,8);
type = Stem;
},
{
horizontal = 1;
origin = (3,3);
target = (3,2);
type = Stem;
},
{
origin = (0,25);
target = (4,3);
type = Stem;
},
{
origin = (4,10);
target = (0,18);
type = Stem;
},
{
origin = (0,11);
target = (4,17);
type = Stem;
},
{
origin = (4,26);
target = (0,2);
type = Stem;
},
{
origin = (5,13);
target = (5,12);
type = Stem;
},
{
origin = (5,5);
target = (5,2);
type = Stem;
}
);
layerId = "E09D4F69-3ABD-4349-AFCF-7CB4B65C8749";
shapes = (
{
closed = 1;
nodes = (
(757,-21,o),
(835,57,o),
(835,210,cs),
(835,666,ls),
(835,686,o),
(821,700,o),
(801,700,cs),
(659,700,ls),
(639,700,o),
(625,686,o),
(625,666,cs),
(625,210,ls),
(625,195,o),
(619,189,o),
(604,189,cs),
(261,190,ls),
(246,190,o),
(240,196,o),
(240,210,cs),
(240,228,o),
(226,244,o),
(206,244,cs),
(64,244,ls),
(44,244,o),
(30,230,o),
(30,210,cs),
(30,57,o),
(108,-20,o),
(261,-20,cs),
(604,-21,ls)
);
},
{
closed = 1;
nodes = (
(206,289,ls),
(226,289,o),
(240,303,o),
(240,323,cs),
(240,666,ls),
(240,686,o),
(226,700,o),
(206,700,cs),
(64,700,ls),
(44,700,o),
(30,686,o),
(30,666,cs),
(30,323,ls),
(30,303,o),
(44,289,o),
(64,289,cs)
);
},
{
closed = 1;
nodes = (
(55,309,o),
(50,314,o),
(50,323,cs),
(50,666,ls),
(50,675,o),
(55,680,o),
(64,680,cs),
(206,680,ls),
(215,680,o),
(220,675,o),
(220,666,cs),
(220,323,ls),
(220,314,o),
(215,309,o),
(206,309,cs),
(64,309,ls)
);
},
{
closed = 1;
nodes = (
(200,329,l),
(200,660,l),
(70,660,l),
(70,329,l)
);
},
{
closed = 1;
nodes = (
(261,0,l),
(119,0,o),
(50,68,o),
(50,210,cs),
(50,219,o),
(55,224,o),
(64,224,cs),
(206,224,ls),
(215,224,o),
(220,217,o),
(220,210,cs),
(220,187,o),
(238,170,o),
(261,170,c),
(604,169,l),
(627,169,o),
(645,187,o),
(645,210,cs),
(645,666,ls),
(645,675,o),
(650,680,o),
(659,680,cs),
(801,680,ls),
(810,680,o),
(815,675,o),
(815,666,cs),
(815,210,ls),
(815,68,o),
(746,-1,o),
(604,-1,c)
);
},
{
closed = 1;
nodes = (
(738,19,o),
(795,76,o),
(795,210,cs),
(795,660,l),
(665,660,l),
(665,210,ls),
(665,176,o),
(638,149,o),
(604,149,cs),
(261,150,ls),
(229,150,o),
(203,173,o),
(200,204,c),
(70,204,l),
(72,74,o),
(129,20,o),
(261,20,cs),
(604,19,ls)
);
}
);
width = 865;
},
{
hints = (
{
horizontal = 1;
origin = (3,0);
target = (0,29);
type = Stem;
},
{
horizontal = 1;
origin = (3,14);
target = (0,15);
type = Stem;
},
{
horizontal = 1;
origin = (3,6);
target = (0,22);
type = Stem;
},
{
horizontal = 1;
origin = (1,15);
target = (2,15);
type = Stem;
},
{
horizontal = 1;
origin = (2,6);
target = (1,8);
type = Stem;
},
{
origin = (0,25);
target = (3,3);
type = Stem;
},
{
origin = (3,10);
target = (0,18);
type = Stem;
},
{
origin = (0,11);
target = (3,17);
type = Stem;
},
{
origin = (3,26);
target = (0,2);
type = Stem;
}
);
layerId = m003;
shapes = (
{
closed = 1;
nodes = (
(757,-21,o),
(835,57,o),
(835,210,cs),
(835,666,ls),
(835,686,o),
(821,700,o),
(801,700,cs),
(659,700,ls),
(639,700,o),
(625,686,o),
(625,666,cs),
(625,210,ls),
(625,195,o),
(619,189,o),
(604,189,cs),
(261,190,ls),
(246,190,o),
(240,196,o),
(240,210,cs),
(240,228,o),
(226,244,o),
(206,244,cs),
(64,244,ls),
(44,244,o),
(30,230,o),
(30,210,cs),
(30,57,o),
(108,-20,o),
(261,-20,cs),
(604,-21,ls)
);
},
{
closed = 1;
nodes = (
(206,289,ls),
(226,289,o),
(240,303,o),
(240,323,cs),
(240,666,ls),
(240,686,o),
(226,700,o),
(206,700,cs),
(64,700,ls),
(44,700,o),
(30,686,o),
(30,666,cs),
(30,323,ls),
(30,303,o),
(44,289,o),
(64,289,cs)
);
},
{
closed = 1;
nodes = (
(55,309,o),
(50,314,o),
(50,323,cs),
(50,666,ls),
(50,675,o),
(55,680,o),
(64,680,cs),
(206,680,ls),
(215,680,o),
(220,675,o),
(220,666,cs),
(220,323,ls),
(220,314,o),
(215,309,o),
(206,309,cs),
(64,309,ls)
);
},
{
closed = 1;
nodes = (
(261,0,l),
(119,0,o),
(50,68,o),
(50,210,cs),
(50,219,o),
(55,224,o),
(64,224,cs),
(206,224,ls),
(215,224,o),
(220,217,o),
(220,210,cs),
(220,187,o),
(238,170,o),
(261,170,c),
(604,169,l),
(627,169,o),
(645,187,o),
(645,210,cs),
(645,666,ls),
(645,675,o),
(650,680,o),
(659,680,cs),
(801,680,ls),
(810,680,o),
(815,675,o),
(815,666,cs),
(815,210,ls),
(815,68,o),
(746,-1,o),
(604,-1,c)
);
}
);
width = 865;
},
{
hints = (
{
horizontal = 1;
origin = (0,17);
target = (0,8);
type = Stem;
},
{
horizontal = 1;
origin = (1,3);
target = (1,2);
type = Stem;
},
{
origin = (0,13);
target = (0,12);
type = Stem;
},
{
origin = (0,5);
target = (0,2);
type = Stem;
}
);
layerId = m004;
shapes = (
{
closed = 1;
nodes = (
(738,19,o),
(795,76,o),
(795,210,cs),
(795,660,l),
(665,660,l),
(665,210,ls),
(665,176,o),
(638,149,o),
(604,149,cs),
(261,150,ls),
(229,150,o),
(203,173,o),
(200,204,c),
(70,204,l),
(72,74,o),
(129,20,o),
(261,20,cs),
(604,19,ls)
);
},
{
closed = 1;
nodes = (
(200,329,l),
(200,660,l),
(70,660,l),
(70,329,l)
);
}
);
width = 865;
}
);
unicode = (306,307);
},
{
glyphname = Iogonek;
kernLeft = I;
kernRight = I;
lastChange = "2023-04-05 05:14:12 +0000";
layers = (
{
layerId = m01;
shapes = (
{
ref = I;
},
{
pos = (-34,0);
ref = ogonekcomb;
}
);
width = 310;
},
{
anchors = (
{
name = bottom;
pos = (135,0);
},
{
name = top;
pos = (135,680);
}
);
hints = (
{
horizontal = 1;
origin = (0,38);
target = (1,39);
type = Stem;
},
{
horizontal = 1;
origin = (1,30);
target = (0,8);
type = Stem;
},
{
horizontal = 1;
origin = (1,7);
target = (0,15);
type = Stem;
},
{
horizontal = 1;
origin = (1,14);
target = (0,24);
type = Stem;
},
{
horizontal = 1;
origin = (0,31);
target = (1,7);
type = Stem;
},
{
horizontal = 1;
origin = (2,21);
target = (2,2);
type = Stem;
},
{
place = (-32, 20);
place = (-32, 20);
type = Stem;
},
{
origin = (0,28);
target = (1,10);
type = Stem;
},
{
origin = (1,19);
target = (0,19);
type = Stem;
},
{
place = (69, 19);
place = (69, 19);
type = Stem;
},
{
origin = (1,35);
target = (0,3);
type = Stem;
},
{
place = (7, 43);
place = (7, 43);
type = Stem;
},
{
origin = (2,13);
target = (2,10);
type = Stem;
}
);
layerId = "E09D4F69-3ABD-4349-AFCF-7CB4B65C8749";
shapes = (
{
closed = 1;
nodes = (
(214,-324,ls),
(234,-324,o),
(248,-310,o),
(248,-290,cs),
(248,-218,ls),
(248,-198,o),
(234,-184,o),
(214,-184,cs),
(139,-184,ls),
(124,-184,o),
(111,-182,o),
(101,-173,c),
(82,-152,o),
(83,-121,o),
(105,-99,cs),
(184,-20,l),
(206,-20,ls),
(226,-20,o),
(240,-6,o),
(240,14,cs),
(240,666,ls),
(240,686,o),
(226,700,o),
(206,700,cs),
(64,700,ls),
(44,700,o),
(30,686,o),
(30,666,cs),
(30,14,ls),
(30,2,o),
(35,-8,o),
(44,-14,c),
(17,-41,ls),
(-48,-106,o),
(-48,-211,o),
(17,-276,cs),
(51,-308,o),
(92,-324,o),
(134,-324,cs)
);
},
{
closed = 1;
nodes = (
(97,-304,o),
(61,-290,o),
(31,-262,cs),
(-26,-205,o),
(-26,-112,o),
(31,-55,cs),
(86,0,l),
(64,0,ls),
(55,0,o),
(50,5,o),
(50,14,cs),
(50,666,ls),
(50,675,o),
(55,680,o),
(64,680,cs),
(206,680,ls),
(215,680,o),
(220,675,o),
(220,666,cs),
(220,14,ls),
(220,5,o),
(215,0,o),
(206,0,cs),
(176,0,l),
(91,-85,ls),
(64,-112,o),
(61,-160,o),
(87,-187,cs),
(102,-201,o),
(122,-204,o),
(139,-204,cs),
(214,-204,ls),
(223,-204,o),
(228,-209,o),
(228,-218,cs),
(228,-290,ls),
(228,-299,o),
(223,-304,o),
(214,-304,cs),
(134,-304,ls)
);
},
{
closed = 1;
nodes = (
(208,-284,l),
(208,-224,l),
(139,-224,ls),
(120,-224,o),
(93,-220,o),
(73,-201,cs),
(39,-166,o),
(43,-105,o),
(77,-71,cs),
(167,20,l),
(200,20,l),
(200,660,l),
(70,660,l),
(70,20,l),
(133,20,l),
(45,-69,ls),
(-6,-120,o),
(-6,-197,o),
(45,-248,cs),
(72,-273,o),
(101,-284,o),
(134,-284,cs)
);
}
);
width = 310;
},
{
anchors = (
{
name = bottom;
pos = (135,0);
},
{
name = top;
pos = (135,680);
}
);
hints = (
{
horizontal = 1;
origin = (0,38);
target = (1,39);
type = Stem;
},
{
horizontal = 1;
origin = (1,30);
target = (0,8);
type = Stem;
},
{
horizontal = 1;
origin = (1,7);
target = (0,15);
type = Stem;
},
{
horizontal = 1;
origin = (1,14);
target = (0,24);
type = Stem;
},
{
horizontal = 1;
origin = (0,31);
target = (1,7);
type = Stem;
},
{
place = (-32, 20);
place = (-32, 20);
type = Stem;
},
{
origin = (0,28);
target = (1,10);
type = Stem;
},
{
origin = (1,19);
target = (0,19);
type = Stem;
},
{
place = (69, 19);
place = (69, 19);
type = Stem;
},
{
origin = (1,35);
target = (0,3);
type = Stem;
}
);
layerId = m003;
shapes = (
{
closed = 1;
nodes = (
(214,-324,ls),
(234,-324,o),
(248,-310,o),
(248,-290,cs),
(248,-218,ls),
(248,-198,o),
(234,-184,o),
(214,-184,cs),
(139,-184,ls),
(124,-184,o),
(111,-182,o),
(101,-173,c),
(82,-152,o),
(83,-121,o),
(105,-99,cs),
(184,-20,l),
(206,-20,ls),
(226,-20,o),
(240,-6,o),
(240,14,cs),
(240,666,ls),
(240,686,o),
(226,700,o),
(206,700,cs),
(64,700,ls),
(44,700,o),
(30,686,o),
(30,666,cs),
(30,14,ls),
(30,2,o),
(35,-8,o),
(44,-14,c),
(17,-41,ls),
(-48,-106,o),
(-48,-211,o),
(17,-276,cs),
(51,-308,o),
(92,-324,o),
(134,-324,cs)
);
},
{
closed = 1;
nodes = (
(97,-304,o),
(61,-290,o),
(31,-262,cs),
(-26,-205,o),
(-26,-112,o),
(31,-55,cs),
(86,0,l),
(64,0,ls),
(55,0,o),
(50,5,o),
(50,14,cs),
(50,666,ls),
(50,675,o),
(55,680,o),
(64,680,cs),
(206,680,ls),
(215,680,o),
(220,675,o),
(220,666,cs),
(220,14,ls),
(220,5,o),
(215,0,o),
(206,0,cs),
(176,0,l),
(91,-85,ls),
(64,-112,o),
(61,-160,o),
(87,-187,cs),
(102,-201,o),
(122,-204,o),
(139,-204,cs),
(214,-204,ls),
(223,-204,o),
(228,-209,o),
(228,-218,cs),
(228,-290,ls),
(228,-299,o),
(223,-304,o),
(214,-304,cs),
(134,-304,ls)
);
}
);
width = 310;
},
{
anchors = (
{
name = bottom;
pos = (135,0);
},
{
name = top;
pos = (135,680);
}
);
hints = (
{
horizontal = 1;
origin = (0,21);
target = (0,2);
type = Stem;
},
{
origin = (0,13);
target = (0,10);
type = Stem;
},
{
place = (7, 43);
place = (7, 43);
type = Stem;
}
);
layerId = m004;
shapes = (
{
closed = 1;
nodes = (
(208,-284,l),
(208,-224,l),
(139,-224,ls),
(120,-224,o),
(93,-220,o),
(73,-201,cs),
(39,-166,o),
(43,-105,o),
(77,-71,cs),
(167,20,l),
(200,20,l),
(200,660,l),
(70,660,l),
(70,20,l),
(133,20,l),
(45,-69,ls),
(-6,-120,o),
(-6,-197,o),
(45,-248,cs),
(72,-273,o),
(101,-284,o),
(134,-284,cs)
);
}
);
width = 310;
}
);
unicode = (302,303);
},
{
glyphname = Iogonek.ss01;
lastChange = "2023-04-05 05:14:12 +0000";
layers = (
{
layerId = m01;
shapes = (
{
ref = I.ss01;
},
{
pos = (36,0);
ref = ogonekcomb;
}
);
width = 450;
},
{
anchors = (
{
name = bottom;
pos = (225,0);
},
{
name = top;
pos = (225,680);
}
);
hints = (
{
horizontal = 1;
origin = (0,59);
target = (1,59);
type = Stem;
},
{
horizontal = 1;
origin = (1,50);
target = (0,8);
type = Stem;
},
{
horizontal = 1;
origin = (1,7);
target = (0,51);
type = Stem;
},
{
horizontal = 1;
origin = (1,14);
target = (0,44);
type = Stem;
},
{
horizontal = 1;
origin = (0,41);
target = (1,17);
type = Stem;
},
{
horizontal = 1;
origin = (1,24);
target = (0,34);
type = Stem;
},
{
horizontal = 1;
origin = (2,21);
target = (2,20);
type = Stem;
},
{
horizontal = 1;
origin = (2,29);
target = (2,2);
type = Stem;
},
{
horizontal = 1;
origin = (2,17);
target = (2,16);
type = Stem;
},
{
origin = (0,48);
target = (1,10);
type = Stem;
},
{
origin = (0,43);
target = (1,15);
type = Stem;
},
{
origin = (1,34);
target = (0,24);
type = Stem;
},
{
origin = (1,39);
target = (0,19);
type = Stem;
},
{
place = (170, 19);
place = (170, 19);
type = Stem;
},
{
origin = (1,55);
target = (0,3);
type = Stem;
},
{
place = (69, 20);
place = (69, 20);
type = Stem;
},
{
origin = (2,21);
target = (1,15);
type = Stem;
},
{
place = (108, 43);
place = (108, 43);
type = Stem;
},
{
origin = (1,34);
target = (2,10);
type = Stem;
},
{
origin = (2,19);
target = (2,12);
type = Stem;
}
);
layerId = "E09D4F69-3ABD-4349-AFCF-7CB4B65C8749";
shapes = (
{
closed = 1;
nodes = (
(315,-324,ls),
(335,-324,o),
(349,-310,o),
(349,-290,cs),
(349,-218,ls),
(349,-198,o),
(335,-184,o),
(315,-184,cs),
(240,-184,ls),
(225,-184,o),
(212,-182,o),
(202,-173,c),
(183,-152,o),
(184,-121,o),
(206,-99,cs),
(285,-20,l),
(386,-20,ls),
(406,-20,o),
(420,-6,o),
(420,14,cs),
(420,136,ls),
(420,156,o),
(406,170,o),
(386,170,cs),
(330,170,l),
(330,510,l),
(386,510,ls),
(406,510,o),
(420,524,o),
(420,544,cs),
(420,666,ls),
(420,686,o),
(406,700,o),
(386,700,cs),
(64,700,ls),
(44,700,o),
(30,686,o),
(30,666,cs),
(30,544,ls),
(30,524,o),
(44,510,o),
(64,510,cs),
(120,510,l),
(120,170,l),
(64,170,ls),
(44,170,o),
(30,156,o),
(30,136,cs),
(30,14,ls),
(30,-6,o),
(44,-20,o),
(64,-20,cs),
(139,-20,l),
(118,-41,ls),
(53,-106,o),
(53,-211,o),
(118,-276,cs),
(152,-308,o),
(193,-324,o),
(235,-324,cs)
);
},
{
closed = 1;
nodes = (
(198,-304,o),
(162,-290,o),
(132,-262,cs),
(75,-205,o),
(75,-112,o),
(132,-55,cs),
(187,0,l),
(64,0,ls),
(55,0,o),
(50,5,o),
(50,14,cs),
(50,136,ls),
(50,145,o),
(55,150,o),
(64,150,cs),
(140,150,l),
(140,530,l),
(64,530,ls),
(55,530,o),
(50,535,o),
(50,544,cs),
(50,666,ls),
(50,675,o),
(55,680,o),
(64,680,cs),
(386,680,ls),
(395,680,o),
(400,675,o),
(400,666,cs),
(400,544,ls),
(400,535,o),
(395,530,o),
(386,530,cs),
(310,530,l),
(310,150,l),
(386,150,ls),
(395,150,o),
(400,145,o),
(400,136,cs),
(400,14,ls),
(400,5,o),
(395,0,o),
(386,0,cs),
(277,0,l),
(192,-85,ls),
(165,-112,o),
(162,-160,o),
(188,-187,cs),
(203,-201,o),
(223,-204,o),
(240,-204,cs),
(315,-204,ls),
(324,-204,o),
(329,-209,o),
(329,-218,cs),
(329,-290,ls),
(329,-299,o),
(324,-304,o),
(315,-304,cs),
(235,-304,ls)
);
},
{
closed = 1;
nodes = (
(309,-284,l),
(309,-224,l),
(240,-224,ls),
(221,-224,o),
(194,-220,o),
(174,-201,cs),
(140,-166,o),
(144,-105,o),
(178,-71,cs),
(269,20,l),
(380,20,l),
(380,130,l),
(290,130,l),
(290,550,l),
(380,550,l),
(380,660,l),
(70,660,l),
(70,550,l),
(160,550,l),
(160,130,l),
(70,130,l),
(70,20,l),
(235,20,l),
(146,-69,ls),
(95,-120,o),
(95,-197,o),
(146,-248,cs),
(173,-273,o),
(202,-284,o),
(235,-284,cs)
);
}
);
width = 450;
},
{
anchors = (
{
name = bottom;
pos = (225,0);
},
{
name = top;
pos = (225,680);
}
);
hints = (
{
horizontal = 1;
origin = (0,59);
target = (1,59);
type = Stem;
},
{
horizontal = 1;
origin = (1,50);
target = (0,8);
type = Stem;
},
{
horizontal = 1;
origin = (1,7);
target = (0,51);
type = Stem;
},
{
horizontal = 1;
origin = (1,14);
target = (0,44);
type = Stem;
},
{
horizontal = 1;
origin = (0,41);
target = (1,17);
type = Stem;
},
{
horizontal = 1;
origin = (1,24);
target = (0,34);
type = Stem;
},
{
origin = (0,48);
target = (1,10);
type = Stem;
},
{
origin = (0,43);
target = (1,15);
type = Stem;
},
{
origin = (1,34);
target = (0,24);
type = Stem;
},
{
origin = (1,39);
target = (0,19);
type = Stem;
},
{
place = (170, 19);
place = (170, 19);
type = Stem;
},
{
origin = (1,55);
target = (0,3);
type = Stem;
},
{
place = (69, 20);
place = (69, 20);
type = Stem;
}
);
layerId = m003;
shapes = (
{
closed = 1;
nodes = (
(315,-324,ls),
(335,-324,o),
(349,-310,o),
(349,-290,cs),
(349,-218,ls),
(349,-198,o),
(335,-184,o),
(315,-184,cs),
(240,-184,ls),
(225,-184,o),
(212,-182,o),
(202,-173,c),
(183,-152,o),
(184,-121,o),
(206,-99,cs),
(285,-20,l),
(386,-20,ls),
(406,-20,o),
(420,-6,o),
(420,14,cs),
(420,136,ls),
(420,156,o),
(406,170,o),
(386,170,cs),
(330,170,l),
(330,510,l),
(386,510,ls),
(406,510,o),
(420,524,o),
(420,544,cs),
(420,666,ls),
(420,686,o),
(406,700,o),
(386,700,cs),
(64,700,ls),
(44,700,o),
(30,686,o),
(30,666,cs),
(30,544,ls),
(30,524,o),
(44,510,o),
(64,510,cs),
(120,510,l),
(120,170,l),
(64,170,ls),
(44,170,o),
(30,156,o),
(30,136,cs),
(30,14,ls),
(30,-6,o),
(44,-20,o),
(64,-20,cs),
(139,-20,l),
(118,-41,ls),
(53,-106,o),
(53,-211,o),
(118,-276,cs),
(152,-308,o),
(193,-324,o),
(235,-324,cs)
);
},
{
closed = 1;
nodes = (
(198,-304,o),
(162,-290,o),
(132,-262,cs),
(75,-205,o),
(75,-112,o),
(132,-55,cs),
(187,0,l),
(64,0,ls),
(55,0,o),
(50,5,o),
(50,14,cs),
(50,136,ls),
(50,145,o),
(55,150,o),
(64,150,cs),
(140,150,l),
(140,530,l),
(64,530,ls),
(55,530,o),
(50,535,o),
(50,544,cs),
(50,666,ls),
(50,675,o),
(55,680,o),
(64,680,cs),
(386,680,ls),
(395,680,o),
(400,675,o),
(400,666,cs),
(400,544,ls),
(400,535,o),
(395,530,o),
(386,530,cs),
(310,530,l),
(310,150,l),
(386,150,ls),
(395,150,o),
(400,145,o),
(400,136,cs),
(400,14,ls),
(400,5,o),
(395,0,o),
(386,0,cs),
(277,0,l),
(192,-85,ls),
(165,-112,o),
(162,-160,o),
(188,-187,cs),
(203,-201,o),
(223,-204,o),
(240,-204,cs),
(315,-204,ls),
(324,-204,o),
(329,-209,o),
(329,-218,cs),
(329,-290,ls),
(329,-299,o),
(324,-304,o),
(315,-304,cs),
(235,-304,ls)
);
}
);
width = 450;
},
{
anchors = (
{
name = bottom;
pos = (225,0);
},
{
name = top;
pos = (225,680);
}
);
hints = (
{
horizontal = 1;
origin = (0,29);
target = (0,2);
type = Stem;
},
{
horizontal = 1;
origin = (0,21);
target = (0,20);
type = Stem;
},
{
horizontal = 1;
origin = (0,17);
target = (0,16);
type = Stem;
},
{
origin = (0,19);
target = (0,12);
type = Stem;
},
{
place = (108, 43);
place = (108, 43);
type = Stem;
}
);
layerId = m004;
shapes = (
{
closed = 1;
nodes = (
(309,-284,l),
(309,-224,l),
(240,-224,ls),
(221,-224,o),
(194,-220,o),
(174,-201,cs),
(140,-166,o),
(144,-105,o),
(178,-71,cs),
(269,20,l),
(380,20,l),
(380,130,l),
(290,130,l),
(290,550,l),
(380,550,l),
(380,660,l),
(70,660,l),
(70,550,l),
(160,550,l),
(160,130,l),
(70,130,l),
(70,20,l),
(235,20,l),
(146,-69,ls),
(95,-120,o),
(95,-197,o),
(146,-248,cs),
(173,-273,o),
(202,-284,o),
(235,-284,cs)
);
}
);
width = 450;
}
);
},
{
glyphname = J;
kernLeft = J;
kernRight = U;
lastChange = "2023-04-05 05:14:12 +0000";
layers = (
{
anchors = (
{
name = top;
pos = (670,680);
}
);
hints = (
{
horizontal = 1;
origin = (0,31);
target = (0,15);
type = Stem;
},
{
horizontal = 1;
origin = (0,7);
target = down;
type = TopGhost;
},
{
origin = (0,27);
target = (0,18);
type = Stem;
},
{
origin = (0,11);
target = (0,2);
type = Stem;
}
);
layerId = m01;
shapes = (
{
closed = 1;
nodes = (
(686,-1,o),
(755,68,o),
(755,210,cs),
(755,666,ls),
(755,675,o),
(750,680,o),
(741,680,cs),
(599,680,ls),
(590,680,o),
(585,675,o),
(585,666,cs),
(585,210,ls),
(585,187,o),
(567,169,o),
(544,169,c),
(261,170,l),
(238,170,o),
(220,187,o),
(220,210,cs),
(220,278,ls),
(220,284,o),
(215,291,o),
(206,291,cs),
(64,291,ls),
(55,291,o),
(50,287,o),
(50,278,cs),
(50,210,ls),
(50,68,o),
(119,0,o),
(261,0,c),
(544,-1,l)
);
}
);
width = 805;
},
{
anchors = (
{
name = top;
pos = (670,680);
}
);
hints = (
{
horizontal = 1;
origin = (1,0);
target = (0,30);
type = Stem;
},
{
horizontal = 1;
origin = (1,16);
target = (0,15);
type = Stem;
},
{
horizontal = 1;
origin = (1,7);
target = (0,23);
type = Stem;
},
{
horizontal = 1;
origin = (1,23);
target = (0,7);
type = Stem;
},
{
horizontal = 1;
origin = (2,19);
target = (2,9);
type = Stem;
},
{
horizontal = 1;
origin = (1,16);
target = (2,14);
type = Stem;
},
{
origin = (0,27);
target = (1,3);
type = Stem;
},
{
origin = (1,12);
target = (0,18);
type = Stem;
},
{
origin = (0,11);
target = (1,19);
type = Stem;
},
{
origin = (1,28);
target = (0,2);
type = Stem;
},
{
origin = (2,15);
target = (2,12);
type = Stem;
},
{
origin = (2,5);
target = (2,2);
type = Stem;
}
);
layerId = "E09D4F69-3ABD-4349-AFCF-7CB4B65C8749";
shapes = (
{
closed = 1;
nodes = (
(697,-22,o),
(775,57,o),
(775,210,cs),
(775,666,ls),
(775,686,o),
(761,700,o),
(741,700,cs),
(599,700,ls),
(579,700,o),
(565,686,o),
(565,666,cs),
(565,210,ls),
(565,195,o),
(559,189,o),
(544,189,cs),
(261,190,ls),
(246,190,o),
(240,196,o),
(240,210,cs),
(240,278,ls),
(240,295,o),
(226,311,o),
(206,311,cs),
(64,311,ls),
(44,311,o),
(30,298,o),
(30,278,cs),
(30,210,ls),
(30,57,o),
(108,-19,o),
(261,-20,cs),
(544,-21,ls)
);
},
{
closed = 1;
nodes = (
(261,0,l),
(119,0,o),
(50,68,o),
(50,210,cs),
(50,278,ls),
(50,287,o),
(55,291,o),
(64,291,cs),
(206,291,ls),
(215,291,o),
(220,284,o),
(220,278,cs),
(220,210,ls),
(220,187,o),
(238,170,o),
(261,170,c),
(544,169,l),
(567,169,o),
(585,187,o),
(585,210,cs),
(585,666,ls),
(585,675,o),
(590,680,o),
(599,680,cs),
(741,680,ls),
(750,680,o),
(755,675,o),
(755,666,cs),
(755,210,ls),
(755,68,o),
(686,-1,o),
(544,-1,c)
);
},
{
closed = 1;
nodes = (
(678,19,o),
(735,76,o),
(735,210,cs),
(735,660,l),
(605,660,l),
(605,210,ls),
(605,176,o),
(578,149,o),
(544,149,cs),
(261,150,ls),
(227,150,o),
(200,176,o),
(200,210,cs),
(200,271,l),
(70,271,l),
(70,210,ls),
(70,76,o),
(127,20,o),
(261,20,cs),
(544,19,ls)
);
}
);
width = 805;
},
{
anchors = (
{
name = top;
pos = (670,680);
}
);
hints = (
{
horizontal = 1;
origin = (1,0);
target = (0,30);
type = Stem;
},
{
horizontal = 1;
origin = (1,16);
target = (0,15);
type = Stem;
},
{
horizontal = 1;
origin = (1,7);
target = (0,23);
type = Stem;
},
{
horizontal = 1;
origin = (1,23);
target = (0,7);
type = Stem;
},
{
origin = (0,27);
target = (1,3);
type = Stem;
},
{
origin = (1,12);
target = (0,18);
type = Stem;
},
{
origin = (0,11);
target = (1,19);
type = Stem;
},
{
origin = (1,28);
target = (0,2);
type = Stem;
}
);
layerId = m003;
shapes = (
{
closed = 1;
nodes = (
(697,-22,o),
(775,57,o),
(775,210,cs),
(775,666,ls),
(775,686,o),
(761,700,o),
(741,700,cs),
(599,700,ls),
(579,700,o),
(565,686,o),
(565,666,cs),
(565,210,ls),
(565,195,o),
(559,189,o),
(544,189,cs),
(261,190,ls),
(246,190,o),
(240,196,o),
(240,210,cs),
(240,278,ls),
(240,295,o),
(226,311,o),
(206,311,cs),
(64,311,ls),
(44,311,o),
(30,298,o),
(30,278,cs),
(30,210,ls),
(30,57,o),
(108,-19,o),
(261,-20,cs),
(544,-21,ls)
);
},
{
closed = 1;
nodes = (
(261,0,l),
(119,0,o),
(50,68,o),
(50,210,cs),
(50,278,ls),
(50,287,o),
(55,291,o),
(64,291,cs),
(206,291,ls),
(215,291,o),
(220,284,o),
(220,278,cs),
(220,210,ls),
(220,187,o),
(238,170,o),
(261,170,c),
(544,169,l),
(567,169,o),
(585,187,o),
(585,210,cs),
(585,666,ls),
(585,675,o),
(590,680,o),
(599,680,cs),
(741,680,ls),
(750,680,o),
(755,675,o),
(755,666,cs),
(755,210,ls),
(755,68,o),
(686,-1,o),
(544,-1,c)
);
}
);
width = 805;
},
{
anchors = (
{
name = top;
pos = (670,680);
}
);
hints = (
{
horizontal = 1;
origin = (0,19);
target = (0,9);
type = Stem;
},
{
origin = (0,15);
target = (0,12);
type = Stem;
},
{
origin = (0,5);
target = (0,2);
type = Stem;
}
);
layerId = m004;
shapes = (
{
closed = 1;
nodes = (
(678,19,o),
(735,76,o),
(735,210,cs),
(735,660,l),
(605,660,l),
(605,210,ls),
(605,176,o),
(578,149,o),
(544,149,cs),
(261,150,ls),
(227,150,o),
(200,176,o),
(200,210,cs),
(200,271,l),
(70,271,l),
(70,210,ls),
(70,76,o),
(127,20,o),
(261,20,cs),
(544,19,ls)
);
}
);
width = 805;
}
);
unicode = (74,106);
},
{
glyphname = K;
kernLeft = I;
kernRight = K;
lastChange = "2023-04-05 16:25:19 +0000";
layers = (
{
anchors = (
{
name = after;
pos = (966,606);
},
{
name = bottom;
pos = (421,0);
},
{
name = top;
pos = (421,680);
}
);
hints = (
{
horizontal = 1;
origin = (0,15);
target = (0,8);
type = Stem;
},
{
horizontal = 1;
origin = (1,8);
target = down;
type = TopGhost;
},
{
origin = (1,12);
target = (1,3);
type = Stem;
}
);
layerId = m01;
shapes = (
{
closed = 1;
nodes = (
(829,0,ls),
(840,0,o),
(844,8,o),
(835,17,cs),
(453,411,ls),
(448,417,o),
(442,418,o),
(436,418,cs),
(149,418,ls),
(140,418,o),
(135,413,o),
(135,405,cs),
(135,275,ls),
(135,267,o),
(140,262,o),
(149,262,cs),
(410,262,l),
(358,284,l),
(627,7,ls),
(632,1,o),
(638,0,o),
(644,0,cs)
);
},
{
closed = 1;
nodes = (
(206,0,ls),
(215,0,o),
(220,5,o),
(220,14,cs),
(220,666,ls),
(220,675,o),
(215,680,o),
(206,680,cs),
(64,680,ls),
(55,680,o),
(50,675,o),
(50,666,cs),
(50,14,ls),
(50,5,o),
(55,0,o),
(64,0,cs)
);
},
{
closed = 1;
nodes = (
(466,290,o),
(473,289,o),
(479,296,cs),
(835,663,ls),
(844,672,o),
(840,680,o),
(829,680,cs),
(644,680,ls),
(638,680,o),
(632,679,o),
(627,673,cs),
(366,404,ls),
(360,397,o),
(361,391,o),
(367,385,cs),
(460,296,ls)
);
}
);
width = 890;
},
{
anchors = (
{
name = after;
pos = (966,606);
},
{
name = bottom;
pos = (421,0);
},
{
name = top;
pos = (421,680);
}
);
hints = (
{
horizontal = 1;
origin = (2,36);
target = (0,36);
type = Stem;
},
{
horizontal = 1;
origin = (0,4);
target = (2,31);
type = Stem;
},
{
horizontal = 1;
origin = (2,11);
target = (0,24);
type = Stem;
},
{
horizontal = 1;
origin = (2,6);
target = (0,29);
type = Stem;
},
{
horizontal = 1;
origin = (1,1);
target = (1,9);
type = Stem;
},
{
origin = (0,33);
target = (2,2);
type = Stem;
},
{
origin = (2,32);
target = (0,3);
type = Stem;
},
{
place = (840, 20);
place = (840, 20);
type = Stem;
},
{
origin = (1,12);
target = (1,0);
type = Stem;
}
);
layerId = "E09D4F69-3ABD-4349-AFCF-7CB4B65C8749";
shapes = (
{
closed = 1;
nodes = (
(206,-20,ls),
(226,-20,o),
(240,-6,o),
(240,14,cs),
(240,242,l),
(371,242,l),
(612,-6,l),
(620,-16,o),
(632,-20,o),
(644,-20,cs),
(829,-20,ls),
(858,-20,o),
(871,9,o),
(849,31,cs),
(550,340,l),
(849,649,ls),
(871,671,o),
(858,700,o),
(829,700,cs),
(644,700,ls),
(632,700,o),
(620,696,o),
(612,686,c),
(372,438,l),
(240,438,l),
(240,666,ls),
(240,686,o),
(226,700,o),
(206,700,cs),
(64,700,ls),
(44,700,o),
(30,686,o),
(30,666,cs),
(30,14,ls),
(30,-6,o),
(44,-20,o),
(64,-20,cs)
);
},
{
closed = 1;
nodes = (
(200,20,l),
(200,282,l),
(387,282,l),
(642,20,l),
(805,20,l),
(494,340,l),
(805,660,l),
(642,660,l),
(388,398,l),
(200,398,l),
(200,660,l),
(70,660,l),
(70,20,l)
);
},
{
closed = 1;
nodes = (
(55,0,o),
(50,5,o),
(50,14,cs),
(50,666,ls),
(50,675,o),
(55,680,o),
(64,680,cs),
(206,680,ls),
(215,680,o),
(220,675,o),
(220,666,cs),
(220,418,l),
(380,418,l),
(627,673,ls),
(632,679,o),
(638,680,o),
(644,680,cs),
(829,680,ls),
(840,680,o),
(844,672,o),
(835,663,cs),
(522,340,l),
(835,17,ls),
(844,8,o),
(840,0,o),
(829,0,cs),
(644,0,ls),
(638,0,o),
(632,1,o),
(627,7,cs),
(379,262,l),
(220,262,l),
(220,14,ls),
(220,5,o),
(215,0,o),
(206,0,cs),
(64,0,ls)
);
}
);
width = 890;
},
{
anchors = (
{
name = after;
pos = (966,606);
},
{
name = bottom;
pos = (421,0);
},
{
name = top;
pos = (421,680);
}
);
hints = (
{
horizontal = 1;
origin = (1,36);
target = (0,36);
type = Stem;
},
{
horizontal = 1;
origin = (0,4);
target = (1,31);
type = Stem;
},
{
horizontal = 1;
origin = (1,11);
target = (0,24);
type = Stem;
},
{
horizontal = 1;
origin = (1,6);
target = (0,29);
type = Stem;
},
{
origin = (0,33);
target = (1,2);
type = Stem;
},
{
origin = (1,32);
target = (0,3);
type = Stem;
},
{
place = (840, 20);
place = (840, 20);
type = Stem;
}
);
layerId = m003;
shapes = (
{
closed = 1;
nodes = (
(206,-20,ls),
(226,-20,o),
(240,-6,o),
(240,14,cs),
(240,242,l),
(371,242,l),
(612,-6,l),
(620,-16,o),
(632,-20,o),
(644,-20,cs),
(829,-20,ls),
(858,-20,o),
(871,9,o),
(849,31,cs),
(550,340,l),
(849,649,ls),
(871,671,o),
(858,700,o),
(829,700,cs),
(644,700,ls),
(632,700,o),
(620,696,o),
(612,686,c),
(372,438,l),
(240,438,l),
(240,666,ls),
(240,686,o),
(226,700,o),
(206,700,cs),
(64,700,ls),
(44,700,o),
(30,686,o),
(30,666,cs),
(30,14,ls),
(30,-6,o),
(44,-20,o),
(64,-20,cs)
);
},
{
closed = 1;
nodes = (
(55,0,o),
(50,5,o),
(50,14,cs),
(50,666,ls),
(50,675,o),
(55,680,o),
(64,680,cs),
(206,680,ls),
(215,680,o),
(220,675,o),
(220,666,cs),
(220,418,l),
(380,418,l),
(627,673,ls),
(632,679,o),
(638,680,o),
(644,680,cs),
(829,680,ls),
(840,680,o),
(844,672,o),
(835,663,cs),
(522,340,l),
(835,17,ls),
(844,8,o),
(840,0,o),
(829,0,cs),
(644,0,ls),
(638,0,o),
(632,1,o),
(627,7,cs),
(379,262,l),
(220,262,l),
(220,14,ls),
(220,5,o),
(215,0,o),
(206,0,cs),
(64,0,ls)
);
}
);
width = 890;
},
{
anchors = (
{
name = after;
pos = (966,606);
},
{
name = bottom;
pos = (421,0);
},
{
name = top;
pos = (421,680);
}
);
hints = (
{
horizontal = 1;
origin = (0,1);
target = (0,9);
type = Stem;
},
{
origin = (0,12);
target = (0,0);
type = Stem;
}
);
layerId = m004;
shapes = (
{
closed = 1;
nodes = (
(200,20,l),
(200,282,l),
(387,282,l),
(642,20,l),
(805,20,l),
(494,340,l),
(805,660,l),
(642,660,l),
(388,398,l),
(200,398,l),
(200,660,l),
(70,660,l),
(70,20,l)
);
}
);
width = 890;
}
);
unicode = (75,107);
},
{
glyphname = L;
kernLeft = I;
kernRight = L;
lastChange = "2023-04-05 05:14:12 +0000";
layers = (
{
anchors = (
{
name = bottom;
pos = (368,0);
},
{
name = top;
pos = (135,680);
},
{
name = top_2;
pos = (390,360);
}
);
hints = (
{
horizontal = 1;
origin = (0,21);
target = (0,8);
type = Stem;
},
{
horizontal = 1;
origin = (0,14);
target = down;
type = TopGhost;
},
{
origin = (0,18);
target = (0,9);
type = Stem;
}
);
layerId = m01;
shapes = (
{
closed = 1;
nodes = (
(673,0,ls),
(682,0,o),
(686,5,o),
(686,14,cs),
(686,143,ls),
(686,152,o),
(682,156,o),
(673,156,cs),
(189,156,l),
(220,126,l),
(220,666,ls),
(220,675,o),
(215,680,o),
(206,680,cs),
(64,680,ls),
(55,680,o),
(50,675,o),
(50,666,cs),
(50,14,ls),
(50,5,o),
(55,0,o),
(64,0,cs)
);
}
);
width = 736;
},
{
anchors = (
{
name = bottom;
pos = (368,0);
},
{
name = top;
pos = (135,680);
},
{
name = top_2;
pos = (390,360);
}
);
hints = (
{
horizontal = 1;
origin = (1,20);
target = (0,20);
type = Stem;
},
{
horizontal = 1;
origin = (1,11);
target = (0,8);
type = Stem;
},
{
horizontal = 1;
origin = (1,6);
target = (0,13);
type = Stem;
},
{
horizontal = 1;
origin = (2,5);
target = (2,2);
type = Stem;
},
{
origin = (0,17);
target = (1,2);
type = Stem;
},
{
origin = (1,11);
target = (0,8);
type = Stem;
},
{
origin = (1,16);
target = (0,3);
type = Stem;
},
{
origin = (2,5);
target = (2,2);
type = Stem;
}
);
layerId = "E09D4F69-3ABD-4349-AFCF-7CB4B65C8749";
shapes = (
{
closed = 1;
nodes = (
(673,-20,ls),
(693,-20,o),
(706,-6,o),
(706,14,cs),
(706,143,ls),
(706,163,o),
(693,176,o),
(673,176,cs),
(240,176,l),
(240,666,ls),
(240,686,o),
(226,700,o),
(206,700,cs),
(64,700,ls),
(44,700,o),
(30,686,o),
(30,666,cs),
(30,14,ls),
(30,-6,o),
(44,-20,o),
(64,-20,cs)
);
},
{
closed = 1;
nodes = (
(55,0,o),
(50,5,o),
(50,14,cs),
(50,666,ls),
(50,675,o),
(55,680,o),
(64,680,cs),
(206,680,ls),
(215,680,o),
(220,675,o),
(220,666,cs),
(220,156,l),
(673,156,ls),
(682,156,o),
(686,152,o),
(686,143,cs),
(686,14,ls),
(686,5,o),
(682,0,o),
(673,0,cs),
(64,0,ls)
);
},
{
closed = 1;
nodes = (
(666,20,l),
(666,136,l),
(200,136,l),
(200,660,l),
(70,660,l),
(70,20,l)
);
}
);
width = 736;
},
{
anchors = (
{
name = bottom;
pos = (368,0);
},
{
name = top;
pos = (135,680);
},
{
name = top_2;
pos = (390,360);
}
);
hints = (
{
horizontal = 1;
origin = (1,20);
target = (0,20);
type = Stem;
},
{
horizontal = 1;
origin = (1,11);
target = (0,8);
type = Stem;
},
{
horizontal = 1;
origin = (1,6);
target = (0,13);
type = Stem;
},
{
origin = (0,17);
target = (1,2);
type = Stem;
},
{
origin = (1,11);
target = (0,8);
type = Stem;
},
{
origin = (1,16);
target = (0,3);
type = Stem;
}
);
layerId = m003;
shapes = (
{
closed = 1;
nodes = (
(673,-20,ls),
(693,-20,o),
(706,-6,o),
(706,14,cs),
(706,143,ls),
(706,163,o),
(693,176,o),
(673,176,cs),
(240,176,l),
(240,666,ls),
(240,686,o),
(226,700,o),
(206,700,cs),
(64,700,ls),
(44,700,o),
(30,686,o),
(30,666,cs),
(30,14,ls),
(30,-6,o),
(44,-20,o),
(64,-20,cs)
);
},
{
closed = 1;
nodes = (
(55,0,o),
(50,5,o),
(50,14,cs),
(50,666,ls),
(50,675,o),
(55,680,o),
(64,680,cs),
(206,680,ls),
(215,680,o),
(220,675,o),
(220,666,cs),
(220,156,l),
(673,156,ls),
(682,156,o),
(686,152,o),
(686,143,cs),
(686,14,ls),
(686,5,o),
(682,0,o),
(673,0,cs),
(64,0,ls)
);
}
);
width = 736;
},
{
anchors = (
{
name = bottom;
pos = (368,0);
},
{
name = top;
pos = (135,680);
},
{
name = top_2;
pos = (390,360);
}
);
hints = (
{
horizontal = 1;
origin = (0,5);
target = (0,2);
type = Stem;
},
{
origin = (0,5);
target = (0,2);
type = Stem;
}
);
layerId = m004;
shapes = (
{
closed = 1;
nodes = (
(666,20,l),
(666,136,l),
(200,136,l),
(200,660,l),
(70,660,l),
(70,20,l)
);
}
);
width = 736;
}
);
unicode = (76,108);
},
{
glyphname = Lslash;
kernLeft = I;
kernRight = L;
lastChange = "2023-04-05 05:14:12 +0000";
layers = (
{
hints = (
{
horizontal = 1;
place = (251, 196);
place = (251, 196);
type = Stem;
},
{
origin = (0,12);
target = (0,3);
type = Stem;
}
);
layerId = m01;
shapes = (
{
closed = 1;
nodes = (
(419,360,ls),
(426,363,o),
(430,368,o),
(430,376,cs),
(430,435,ls),
(430,445,o),
(424,450,o),
(414,446,cs),
(101,338,ls),
(94,335,o),
(90,330,o),
(90,322,cs),
(90,263,ls),
(90,253,o),
(96,248,o),
(106,252,cs)
);
},
{
pos = (125,0);
ref = L;
}
);
width = 861;
},
{
anchors = (
{
name = bottom;
pos = (493,0);
},
{
name = top;
pos = (260,680);
},
{
name = top_2;
pos = (515,360);
}
);
hints = (
{
horizontal = 1;
origin = (1,40);
target = (0,40);
type = Stem;
},
{
horizontal = 1;
origin = (1,31);
target = (0,8);
type = Stem;
},
{
horizontal = 1;
origin = (1,16);
target = (0,23);
type = Stem;
},
{
horizontal = 1;
origin = (2,13);
target = (2,2);
type = Stem;
},
{
origin = (0,32);
target = (1,7);
type = Stem;
},
{
origin = (0,37);
target = (1,2);
type = Stem;
},
{
origin = (1,31);
target = (0,8);
type = Stem;
},
{
origin = (1,26);
target = (0,13);
type = Stem;
},
{
origin = (1,36);
target = (0,3);
type = Stem;
},
{
origin = (2,11);
target = (1,2);
type = Stem;
},
{
origin = (2,13);
target = (2,2);
type = Stem;
},
{
origin = (1,31);
target = (2,4);
type = Stem;
}
);
layerId = "E09D4F69-3ABD-4349-AFCF-7CB4B65C8749";
shapes = (
{
closed = 1;
nodes = (
(798,-20,ls),
(818,-20,o),
(831,-6,o),
(831,14,cs),
(831,143,ls),
(831,163,o),
(818,176,o),
(798,176,cs),
(365,176,l),
(365,320,l),
(426,341,ls),
(441,347,o),
(450,360,o),
(450,376,cs),
(450,435,ls),
(450,459,o),
(430,474,o),
(407,465,cs),
(365,451,l),
(365,666,ls),
(365,686,o),
(351,700,o),
(331,700,cs),
(189,700,ls),
(169,700,o),
(155,686,o),
(155,666,cs),
(155,378,l),
(94,357,ls),
(79,351,o),
(70,338,o),
(70,322,cs),
(70,263,ls),
(70,239,o),
(90,224,o),
(113,233,cs),
(155,247,l),
(155,14,ls),
(155,-6,o),
(169,-20,o),
(189,-20,cs)
);
},
{
closed = 1;
nodes = (
(180,0,o),
(175,5,o),
(175,14,cs),
(175,276,l),
(106,252,ls),
(96,248,o),
(90,253,o),
(90,263,cs),
(90,322,ls),
(90,330,o),
(94,335,o),
(101,338,cs),
(175,364,l),
(175,666,ls),
(175,675,o),
(180,680,o),
(189,680,cs),
(331,680,ls),
(340,680,o),
(345,675,o),
(345,666,cs),
(345,422,l),
(414,446,ls),
(424,450,o),
(430,445,o),
(430,435,cs),
(430,376,ls),
(430,368,o),
(426,363,o),
(419,360,cs),
(345,334,l),
(345,156,l),
(798,156,ls),
(807,156,o),
(811,152,o),
(811,143,cs),
(811,14,ls),
(811,5,o),
(807,0,o),
(798,0,cs),
(189,0,ls)
);
},
{
closed = 1;
nodes = (
(791,20,l),
(791,136,l),
(325,136,l),
(325,349,l),
(410,378,l),
(410,423,l),
(325,394,l),
(325,660,l),
(195,660,l),
(195,349,l),
(110,320,l),
(110,275,l),
(195,304,l),
(195,20,l)
);
}
);
width = 861;
},
{
anchors = (
{
name = bottom;
pos = (493,0);
},
{
name = top;
pos = (260,680);
},
{
name = top_2;
pos = (515,360);
}
);
hints = (
{
horizontal = 1;
origin = (1,40);
target = (0,40);
type = Stem;
},
{
horizontal = 1;
origin = (1,31);
target = (0,8);
type = Stem;
},
{
horizontal = 1;
origin = (1,16);
target = (0,23);
type = Stem;
},
{
origin = (0,32);
target = (1,7);
type = Stem;
},
{
origin = (0,37);
target = (1,2);
type = Stem;
},
{
origin = (1,31);
target = (0,8);
type = Stem;
},
{
origin = (1,26);
target = (0,13);
type = Stem;
},
{
origin = (1,36);
target = (0,3);
type = Stem;
}
);
layerId = m003;
shapes = (
{
closed = 1;
nodes = (
(798,-20,ls),
(818,-20,o),
(831,-6,o),
(831,14,cs),
(831,143,ls),
(831,163,o),
(818,176,o),
(798,176,cs),
(365,176,l),
(365,320,l),
(426,341,ls),
(441,347,o),
(450,360,o),
(450,376,cs),
(450,435,ls),
(450,459,o),
(430,474,o),
(407,465,cs),
(365,451,l),
(365,666,ls),
(365,686,o),
(351,700,o),
(331,700,cs),
(189,700,ls),
(169,700,o),
(155,686,o),
(155,666,cs),
(155,378,l),
(94,357,ls),
(79,351,o),
(70,338,o),
(70,322,cs),
(70,263,ls),
(70,239,o),
(90,224,o),
(113,233,cs),
(155,247,l),
(155,14,ls),
(155,-6,o),
(169,-20,o),
(189,-20,cs)
);
},
{
closed = 1;
nodes = (
(180,0,o),
(175,5,o),
(175,14,cs),
(175,276,l),
(106,252,ls),
(96,248,o),
(90,253,o),
(90,263,cs),
(90,322,ls),
(90,330,o),
(94,335,o),
(101,338,cs),
(175,364,l),
(175,666,ls),
(175,675,o),
(180,680,o),
(189,680,cs),
(331,680,ls),
(340,680,o),
(345,675,o),
(345,666,cs),
(345,422,l),
(414,446,ls),
(424,450,o),
(430,445,o),
(430,435,cs),
(430,376,ls),
(430,368,o),
(426,363,o),
(419,360,cs),
(345,334,l),
(345,156,l),
(798,156,ls),
(807,156,o),
(811,152,o),
(811,143,cs),
(811,14,ls),
(811,5,o),
(807,0,o),
(798,0,cs),
(189,0,ls)
);
}
);
width = 861;
},
{
anchors = (
{
name = bottom;
pos = (493,0);
},
{
name = top;
pos = (260,680);
},
{
name = top_2;
pos = (515,360);
}
);
hints = (
{
horizontal = 1;
origin = (0,13);
target = (0,2);
type = Stem;
},
{
origin = (0,13);
target = (0,2);
type = Stem;
}
);
layerId = m004;
shapes = (
{
closed = 1;
nodes = (
(791,20,l),
(791,136,l),
(325,136,l),
(325,349,l),
(410,378,l),
(410,423,l),
(325,394,l),
(325,660,l),
(195,660,l),
(195,349,l),
(110,320,l),
(110,275,l),
(195,304,l),
(195,20,l)
);
}
);
width = 861;
}
);
unicode = (321,322);
},
{
glyphname = M;
kernLeft = I;
kernRight = I;
lastChange = "2023-04-05 05:14:12 +0000";
layers = (
{
anchors = (
{
name = top;
pos = (602,680);
}
);
hints = (
{
horizontal = 1;
origin = (0,42);
target = (0,5);
type = Stem;
},
{
origin = (0,46);
target = (0,3);
type = Stem;
},
{
origin = (0,20);
target = (0,27);
type = Stem;
}
);
layerId = m01;
shapes = (
{
closed = 1;
nodes = (
(206,0,ls),
(215,0,o),
(220,5,o),
(220,14,cs),
(220,541,l),
(189,510,l),
(277,510,l),
(233,537,l),
(502,10,ls),
(506,3,o),
(510,0,o),
(518,0,cs),
(686,0,ls),
(694,0,o),
(699,3,o),
(702,10,cs),
(971,537,l),
(927,510,l),
(1015,510,l),
(984,541,l),
(984,14,ls),
(984,5,o),
(989,0,o),
(998,0,cs),
(1141,0,ls),
(1150,0,o),
(1154,5,o),
(1154,14,cs),
(1154,666,ls),
(1154,675,o),
(1150,680,o),
(1141,680,cs),
(864,680,ls),
(856,680,o),
(852,677,o),
(848,670,cs),
(589,160,l),
(616,160,l),
(356,670,ls),
(353,677,o),
(348,680,o),
(340,680,cs),
(64,680,ls),
(55,680,o),
(50,675,o),
(50,666,cs),
(50,14,ls),
(50,5,o),
(55,0,o),
(64,0,cs)
);
}
);
width = 1204;
},
{
anchors = (
{
name = top;
pos = (602,680);
}
);
hints = (
{
horizontal = 1;
origin = (1,44);
target = (0,44);
type = Stem;
},
{
horizontal = 1;
place = (480, 30);
place = (480, 30);
type = Stem;
},
{
horizontal = 1;
origin = (1,6);
target = (0,37);
type = Stem;
},
{
horizontal = 1;
origin = (2,1);
target = (2,13);
type = Stem;
},
{
origin = (0,41);
target = (1,2);
type = Stem;
},
{
origin = (1,40);
target = (0,3);
type = Stem;
},
{
origin = (0,16);
target = (1,27);
type = Stem;
},
{
origin = (1,20);
target = (0,23);
type = Stem;
},
{
origin = (2,14);
target = (2,0);
type = Stem;
},
{
origin = (2,7);
target = (2,8);
type = Stem;
}
);
layerId = "E09D4F69-3ABD-4349-AFCF-7CB4B65C8749";
shapes = (
{
closed = 1;
nodes = (
(206,-20,ls),
(226,-20,o),
(240,-6,o),
(240,14,cs),
(240,490,l),
(235,490,l),
(484,0,l),
(492,-13,o),
(503,-20,o),
(518,-20,cs),
(686,-20,ls),
(702,-20,o),
(714,-12,o),
(720,1,cs),
(969,490,l),
(964,490,l),
(964,14,ls),
(964,-6,o),
(978,-20,o),
(998,-20,cs),
(1141,-20,ls),
(1161,-20,o),
(1174,-6,o),
(1174,14,cs),
(1174,666,ls),
(1174,686,o),
(1161,700,o),
(1141,700,cs),
(864,700,ls),
(849,700,o),
(838,693,o),
(830,679,cs),
(602,231,l),
(374,679,ls),
(368,692,o),
(356,700,o),
(340,700,cs),
(64,700,ls),
(44,700,o),
(30,686,o),
(30,666,cs),
(30,14,ls),
(30,-6,o),
(44,-20,o),
(64,-20,cs)
);
},
{
closed = 1;
nodes = (
(55,0,o),
(50,5,o),
(50,14,cs),
(50,666,ls),
(50,675,o),
(55,680,o),
(64,680,cs),
(340,680,ls),
(348,680,o),
(353,677,o),
(356,670,cs),
(602,187,l),
(848,670,ls),
(852,677,o),
(856,680,o),
(864,680,cs),
(1141,680,ls),
(1150,680,o),
(1154,675,o),
(1154,666,cs),
(1154,14,ls),
(1154,5,o),
(1150,0,o),
(1141,0,cs),
(998,0,ls),
(989,0,o),
(984,5,o),
(984,14,cs),
(984,510,l),
(957,510,l),
(702,10,ls),
(699,3,o),
(694,0,o),
(686,0,cs),
(518,0,ls),
(510,0,o),
(506,3,o),
(502,10,cs),
(247,510,l),
(220,510,l),
(220,14,ls),
(220,5,o),
(215,0,o),
(206,0,cs),
(64,0,ls)
);
},
{
closed = 1;
nodes = (
(200,20,l),
(200,530,l),
(259,530,l),
(520,20,l),
(685,20,l),
(945,530,l),
(1004,530,l),
(1004,20,l),
(1134,20,l),
(1134,660,l),
(865,660,l),
(602,143,l),
(339,660,l),
(70,660,l),
(70,20,l)
);
}
);
width = 1204;
},
{
anchors = (
{
name = top;
pos = (602,680);
}
);
hints = (
{
horizontal = 1;
origin = (1,44);
target = (0,44);
type = Stem;
},
{
horizontal = 1;
place = (480, 30);
place = (480, 30);
type = Stem;
},
{
horizontal = 1;
origin = (1,6);
target = (0,37);
type = Stem;
},
{
origin = (0,41);
target = (1,2);
type = Stem;
},
{
origin = (1,40);
target = (0,3);
type = Stem;
},
{
origin = (0,16);
target = (1,27);
type = Stem;
},
{
origin = (1,20);
target = (0,23);
type = Stem;
}
);
layerId = m003;
shapes = (
{
closed = 1;
nodes = (
(206,-20,ls),
(226,-20,o),
(240,-6,o),
(240,14,cs),
(240,490,l),
(235,490,l),
(484,0,l),
(492,-13,o),
(503,-20,o),
(518,-20,cs),
(686,-20,ls),
(702,-20,o),
(714,-12,o),
(720,1,cs),
(969,490,l),
(964,490,l),
(964,14,ls),
(964,-6,o),
(978,-20,o),
(998,-20,cs),
(1141,-20,ls),
(1161,-20,o),
(1174,-6,o),
(1174,14,cs),
(1174,666,ls),
(1174,686,o),
(1161,700,o),
(1141,700,cs),
(864,700,ls),
(849,700,o),
(838,693,o),
(830,679,cs),
(602,231,l),
(374,679,ls),
(368,692,o),
(356,700,o),
(340,700,cs),
(64,700,ls),
(44,700,o),
(30,686,o),
(30,666,cs),
(30,14,ls),
(30,-6,o),
(44,-20,o),
(64,-20,cs)
);
},
{
closed = 1;
nodes = (
(55,0,o),
(50,5,o),
(50,14,cs),
(50,666,ls),
(50,675,o),
(55,680,o),
(64,680,cs),
(340,680,ls),
(348,680,o),
(353,677,o),
(356,670,cs),
(602,187,l),
(848,670,ls),
(852,677,o),
(856,680,o),
(864,680,cs),
(1141,680,ls),
(1150,680,o),
(1154,675,o),
(1154,666,cs),
(1154,14,ls),
(1154,5,o),
(1150,0,o),
(1141,0,cs),
(998,0,ls),
(989,0,o),
(984,5,o),
(984,14,cs),
(984,510,l),
(957,510,l),
(702,10,ls),
(699,3,o),
(694,0,o),
(686,0,cs),
(518,0,ls),
(510,0,o),
(506,3,o),
(502,10,cs),
(247,510,l),
(220,510,l),
(220,14,ls),
(220,5,o),
(215,0,o),
(206,0,cs),
(64,0,ls)
);
}
);
width = 1204;
},
{
anchors = (
{
name = top;
pos = (602,680);
}
);
hints = (
{
horizontal = 1;
origin = (0,1);
target = (0,13);
type = Stem;
},
{
origin = (0,14);
target = (0,0);
type = Stem;
},
{
origin = (0,7);
target = (0,8);
type = Stem;
}
);
layerId = m004;
shapes = (
{
closed = 1;
nodes = (
(200,20,l),
(200,530,l),
(259,530,l),
(520,20,l),
(685,20,l),
(945,530,l),
(1004,530,l),
(1004,20,l),
(1134,20,l),
(1134,660,l),
(865,660,l),
(602,143,l),
(339,660,l),
(70,660,l),
(70,20,l)
);
}
);
width = 1204;
}
);
unicode = (77,109);
},
{
glyphname = N;
kernLeft = I;
kernRight = I;
lastChange = "2023-04-05 05:14:12 +0000";
layers = (
{
anchors = (
{
name = before;
pos = (-92,606);
},
{
name = bottom;
pos = (494,0);
},
{
name = top;
pos = (494,680);
}
);
hints = (
{
horizontal = 1;
origin = (0,39);
target = (0,26);
type = Stem;
},
{
horizontal = 1;
origin = (0,32);
target = (0,5);
type = Stem;
},
{
origin = (0,36);
target = (0,3);
type = Stem;
},
{
origin = (0,24);
target = (0,15);
type = Stem;
}
);
layerId = m01;
shapes = (
{
closed = 1;
nodes = (
(206,0,ls),
(215,0,o),
(220,5,o),
(220,14,cs),
(220,541,l),
(189,510,l),
(287,510,l),
(238,534,l),
(640,8,ls),
(644,3,o),
(650,0,o),
(657,0,cs),
(924,0,ls),
(933,0,o),
(937,5,o),
(937,14,cs),
(937,666,ls),
(937,675,o),
(933,680,o),
(924,680,cs),
(781,680,ls),
(772,680,o),
(767,675,o),
(767,666,cs),
(767,139,l),
(798,170,l),
(700,170,l),
(749,146,l),
(347,672,l),
(343,677,o),
(338,680,o),
(331,680,cs),
(64,680,ls),
(55,680,o),
(50,675,o),
(50,666,cs),
(50,14,ls),
(50,5,o),
(55,0,o),
(64,0,cs)
);
}
);
width = 987;
},
{
anchors = (
{
name = before;
pos = (-92,606);
},
{
name = bottom;
pos = (494,0);
},
{
name = top;
pos = (494,680);
}
);
hints = (
{
horizontal = 1;
origin = (1,35);
target = (0,35);
type = Stem;
},
{
horizontal = 1;
origin = (1,11);
target = (0,23);
type = Stem;
},
{
horizontal = 1;
origin = (0,4);
target = (1,30);
type = Stem;
},
{
horizontal = 1;
origin = (1,6);
target = (0,28);
type = Stem;
},
{
horizontal = 1;
origin = (2,11);
target = (2,8);
type = Stem;
},
{
horizontal = 1;
origin = (2,1);
target = (2,10);
type = Stem;
},
{
origin = (0,32);
target = (1,2);
type = Stem;
},
{
origin = (1,31);
target = (0,3);
type = Stem;
},
{
origin = (0,22);
target = (1,12);
type = Stem;
},
{
origin = (1,21);
target = (0,13);
type = Stem;
},
{
origin = (2,11);
target = (2,0);
type = Stem;
},
{
origin = (2,7);
target = (2,4);
type = Stem;
}
);
layerId = "E09D4F69-3ABD-4349-AFCF-7CB4B65C8749";
shapes = (
{
closed = 1;
nodes = (
(206,-20,ls),
(226,-20,o),
(240,-6,o),
(240,14,cs),
(240,490,l),
(246,490,l),
(624,-4,ls),
(632,-14,o),
(644,-20,o),
(657,-20,cs),
(924,-20,ls),
(944,-20,o),
(957,-6,o),
(957,14,cs),
(957,666,ls),
(957,686,o),
(944,700,o),
(924,700,cs),
(781,700,ls),
(761,700,o),
(747,686,o),
(747,666,cs),
(747,190,l),
(741,190,l),
(363,684,ls),
(355,694,o),
(344,700,o),
(331,700,cs),
(64,700,ls),
(44,700,o),
(30,686,o),
(30,666,cs),
(30,14,ls),
(30,-6,o),
(44,-20,o),
(64,-20,cs)
);
},
{
closed = 1;
nodes = (
(55,0,o),
(50,5,o),
(50,14,cs),
(50,666,ls),
(50,675,o),
(55,680,o),
(64,680,cs),
(331,680,ls),
(338,680,o),
(343,677,o),
(347,672,cs),
(731,170,l),
(767,170,l),
(767,666,ls),
(767,675,o),
(772,680,o),
(781,680,cs),
(924,680,ls),
(933,680,o),
(937,675,o),
(937,666,cs),
(937,14,ls),
(937,5,o),
(933,0,o),
(924,0,cs),
(657,0,ls),
(650,0,o),
(644,3,o),
(640,8,cs),
(256,510,l),
(220,510,l),
(220,14,ls),
(220,5,o),
(215,0,o),
(206,0,cs),
(64,0,ls)
);
},
{
closed = 1;
nodes = (
(200,20,l),
(200,530,l),
(266,530,l),
(656,20,l),
(917,20,l),
(917,660,l),
(787,660,l),
(787,150,l),
(721,150,l),
(331,660,l),
(70,660,l),
(70,20,l)
);
}
);
width = 987;
},
{
anchors = (
{
name = before;
pos = (-92,606);
},
{
name = bottom;
pos = (494,0);
},
{
name = top;
pos = (494,680);
}
);
hints = (
{
horizontal = 1;
origin = (1,35);
target = (0,35);
type = Stem;
},
{
horizontal = 1;
origin = (1,11);
target = (0,23);
type = Stem;
},
{
horizontal = 1;
origin = (0,4);
target = (1,30);
type = Stem;
},
{
horizontal = 1;
origin = (1,6);
target = (0,28);
type = Stem;
},
{
origin = (0,32);
target = (1,2);
type = Stem;
},
{
origin = (1,31);
target = (0,3);
type = Stem;
},
{
origin = (0,22);
target = (1,12);
type = Stem;
},
{
origin = (1,21);
target = (0,13);
type = Stem;
}
);
layerId = m003;
shapes = (
{
closed = 1;
nodes = (
(206,-20,ls),
(226,-20,o),
(240,-6,o),
(240,14,cs),
(240,490,l),
(246,490,l),
(624,-4,ls),
(632,-14,o),
(644,-20,o),
(657,-20,cs),
(924,-20,ls),
(944,-20,o),
(957,-6,o),
(957,14,cs),
(957,666,ls),
(957,686,o),
(944,700,o),
(924,700,cs),
(781,700,ls),
(761,700,o),
(747,686,o),
(747,666,cs),
(747,190,l),
(741,190,l),
(363,684,ls),
(355,694,o),
(344,700,o),
(331,700,cs),
(64,700,ls),
(44,700,o),
(30,686,o),
(30,666,cs),
(30,14,ls),
(30,-6,o),
(44,-20,o),
(64,-20,cs)
);
},
{
closed = 1;
nodes = (
(55,0,o),
(50,5,o),
(50,14,cs),
(50,666,ls),
(50,675,o),
(55,680,o),
(64,680,cs),
(331,680,ls),
(338,680,o),
(343,677,o),
(347,672,cs),
(731,170,l),
(767,170,l),
(767,666,ls),
(767,675,o),
(772,680,o),
(781,680,cs),
(924,680,ls),
(933,680,o),
(937,675,o),
(937,666,cs),
(937,14,ls),
(937,5,o),
(933,0,o),
(924,0,cs),
(657,0,ls),
(650,0,o),
(644,3,o),
(640,8,cs),
(256,510,l),
(220,510,l),
(220,14,ls),
(220,5,o),
(215,0,o),
(206,0,cs),
(64,0,ls)
);
}
);
width = 987;
},
{
anchors = (
{
name = before;
pos = (-92,606);
},
{
name = bottom;
pos = (494,0);
},
{
name = top;
pos = (494,680);
}
);
hints = (
{
horizontal = 1;
origin = (0,11);
target = (0,8);
type = Stem;
},
{
horizontal = 1;
origin = (0,1);
target = (0,10);
type = Stem;
},
{
origin = (0,11);
target = (0,0);
type = Stem;
},
{
origin = (0,7);
target = (0,4);
type = Stem;
}
);
layerId = m004;
shapes = (
{
closed = 1;
nodes = (
(200,20,l),
(200,530,l),
(266,530,l),
(656,20,l),
(917,20,l),
(917,660,l),
(787,660,l),
(787,150,l),
(721,150,l),
(331,660,l),
(70,660,l),
(70,20,l)
);
}
);
width = 987;
}
);
unicode = (78,110);
},
{
glyphname = Eng;
lastChange = "2023-04-05 05:14:12 +0000";
layers = (
{
anchors = (
{
name = before;
pos = (-92,606);
},
{
name = top;
pos = (494,680);
}
);
hints = (
{
horizontal = 1;
origin = (1,29);
target = (1,15);
type = Stem;
},
{
horizontal = 1;
origin = (0,33);
target = (0,20);
type = Stem;
},
{
horizontal = 1;
origin = (0,26);
target = (0,5);
type = Stem;
},
{
origin = (0,30);
target = (0,3);
type = Stem;
},
{
origin = (1,25);
target = (1,18);
type = Stem;
},
{
origin = (1,11);
target = (1,2);
type = Stem;
}
);
layerId = m01;
shapes = (
{
closed = 1;
nodes = (
(206,0,ls),
(215,0,o),
(220,5,o),
(220,14,cs),
(220,541,l),
(189,510,l),
(287,510,l),
(238,534,l),
(640,8,ls),
(644,3,o),
(650,0,o),
(657,0,cs),
(924,0,ls),
(933,0,o),
(937,5,o),
(937,14,cs),
(937,156,ls),
(937,164,o),
(931,170,o),
(923,170,cs),
(700,170,l),
(749,146,l),
(347,672,ls),
(343,677,o),
(338,680,o),
(331,680,cs),
(64,680,ls),
(55,680,o),
(50,675,o),
(50,666,cs),
(50,14,ls),
(50,5,o),
(55,0,o),
(64,0,cs)
);
},
{
closed = 1;
nodes = (
(868,-261,o),
(937,-192,o),
(937,-50,cs),
(937,666,ls),
(937,675,o),
(932,680,o),
(923,680,cs),
(781,680,ls),
(772,680,o),
(767,675,o),
(767,666,cs),
(767,-50,ls),
(767,-73,o),
(749,-91,o),
(726,-91,c),
(571,-90,l),
(548,-90,o),
(530,-73,o),
(530,-50,cs),
(530,-44,o),
(525,-37,o),
(516,-37,cs),
(374,-37,ls),
(365,-37,o),
(360,-41,o),
(360,-50,cs),
(360,-192,o),
(429,-260,o),
(571,-260,c),
(726,-261,l)
);
}
);
width = 987;
},
{
anchors = (
{
name = before;
pos = (-92,606);
},
{
name = top;
pos = (494,680);
}
);
hints = (
{
horizontal = 1;
origin = (0,54);
target = (1,0);
type = Stem;
},
{
horizontal = 1;
origin = (1,14);
target = (0,40);
type = Stem;
},
{
horizontal = 1;
origin = (1,29);
target = (0,24);
type = Stem;
},
{
horizontal = 1;
origin = (1,41);
target = (0,12);
type = Stem;
},
{
horizontal = 1;
origin = (0,29);
target = (1,24);
type = Stem;
},
{
horizontal = 1;
origin = (1,36);
target = (0,17);
type = Stem;
},
{
horizontal = 1;
origin = (1,6);
target = (0,47);
type = Stem;
},
{
horizontal = 1;
origin = (2,27);
target = (2,18);
type = Stem;
},
{
horizontal = 1;
origin = (2,9);
target = (2,6);
type = Stem;
},
{
horizontal = 1;
origin = (2,11);
target = (2,8);
type = Stem;
},
{
horizontal = 1;
origin = (1,14);
target = (2,23);
type = Stem;
},
{
origin = (0,21);
target = (1,32);
type = Stem;
},
{
origin = (1,25);
target = (0,28);
type = Stem;
},
{
origin = (0,50);
target = (1,3);
type = Stem;
},
{
origin = (1,10);
target = (0,43);
type = Stem;
},
{
origin = (0,36);
target = (1,17);
type = Stem;
},
{
origin = (1,51);
target = (0,2);
type = Stem;
},
{
origin = (2,9);
target = (2,10);
type = Stem;
},
{
origin = (2,15);
target = (2,2);
type = Stem;
}
);
layerId = "E09D4F69-3ABD-4349-AFCF-7CB4B65C8749";
shapes = (
{
closed = 1;
nodes = (
(879,-281,o),
(957,-203,o),
(957,-50,cs),
(957,666,ls),
(957,686,o),
(943,700,o),
(923,700,cs),
(781,700,ls),
(761,700,o),
(747,686,o),
(747,666,cs),
(747,190,l),
(741,190,l),
(363,684,ls),
(355,694,o),
(344,700,o),
(331,700,cs),
(64,700,ls),
(44,700,o),
(30,686,o),
(30,666,cs),
(30,14,ls),
(30,-6,o),
(44,-20,o),
(64,-20,cs),
(206,-20,ls),
(226,-20,o),
(240,-6,o),
(240,14,cs),
(240,490,l),
(246,490,l),
(624,-4,ls),
(632,-14,o),
(644,-20,o),
(657,-20,cs),
(747,-20,l),
(747,-50,ls),
(747,-65,o),
(741,-71,o),
(726,-71,cs),
(571,-70,ls),
(556,-70,o),
(550,-64,o),
(550,-50,cs),
(550,-33,o),
(536,-17,o),
(516,-17,cs),
(374,-17,ls),
(354,-17,o),
(340,-30,o),
(340,-50,cs),
(340,-203,o),
(418,-280,o),
(571,-280,cs),
(726,-281,ls)
);
},
{
closed = 1;
nodes = (
(571,-260,ls),
(429,-260,o),
(360,-192,o),
(360,-50,cs),
(360,-41,o),
(365,-37,o),
(374,-37,cs),
(516,-37,ls),
(525,-37,o),
(530,-44,o),
(530,-50,cs),
(530,-73,o),
(548,-90,o),
(571,-90,cs),
(726,-91,ls),
(749,-91,o),
(767,-73,o),
(767,-50,cs),
(767,0,l),
(657,0,ls),
(650,0,o),
(644,3,o),
(640,8,cs),
(256,510,l),
(220,510,l),
(220,14,ls),
(220,5,o),
(215,0,o),
(206,0,cs),
(64,0,ls),
(55,0,o),
(50,5,o),
(50,14,cs),
(50,666,ls),
(50,675,o),
(55,680,o),
(64,680,cs),
(331,680,ls),
(338,680,o),
(343,677,o),
(347,672,cs),
(731,170,l),
(767,170,l),
(767,666,ls),
(767,675,o),
(772,680,o),
(781,680,cs),
(923,680,ls),
(932,680,o),
(937,675,o),
(937,666,cs),
(937,-50,ls),
(937,-192,o),
(868,-261,o),
(726,-261,cs)
);
},
{
closed = 1;
nodes = (
(860,-241,o),
(917,-184,o),
(917,-50,cs),
(917,660,l),
(787,660,l),
(787,150,l),
(721,150,l),
(331,660,l),
(70,660,l),
(70,20,l),
(200,20,l),
(200,530,l),
(266,530,l),
(656,20,l),
(787,20,l),
(787,-50,ls),
(787,-84,o),
(760,-111,o),
(726,-111,cs),
(571,-110,ls),
(539,-110,o),
(514,-88,o),
(510,-57,c),
(380,-57,l),
(382,-186,o),
(439,-240,o),
(571,-240,cs),
(726,-241,ls)
);
}
);
width = 987;
},
{
anchors = (
{
name = before;
pos = (-92,606);
},
{
name = top;
pos = (494,680);
}
);
hints = (
{
horizontal = 1;
origin = (0,54);
target = (1,0);
type = Stem;
},
{
horizontal = 1;
origin = (1,14);
target = (0,40);
type = Stem;
},
{
horizontal = 1;
origin = (1,29);
target = (0,24);
type = Stem;
},
{
horizontal = 1;
origin = (1,41);
target = (0,12);
type = Stem;
},
{
horizontal = 1;
origin = (0,29);
target = (1,24);
type = Stem;
},
{
horizontal = 1;
origin = (1,36);
target = (0,17);
type = Stem;
},
{
horizontal = 1;
origin = (1,6);
target = (0,47);
type = Stem;
},
{
origin = (0,21);
target = (1,32);
type = Stem;
},
{
origin = (1,25);
target = (0,28);
type = Stem;
},
{
origin = (0,50);
target = (1,3);
type = Stem;
},
{
origin = (1,10);
target = (0,43);
type = Stem;
},
{
origin = (0,36);
target = (1,17);
type = Stem;
},
{
origin = (1,51);
target = (0,2);
type = Stem;
}
);
layerId = m003;
shapes = (
{
closed = 1;
nodes = (
(879,-281,o),
(957,-203,o),
(957,-50,cs),
(957,666,ls),
(957,686,o),
(943,700,o),
(923,700,cs),
(781,700,ls),
(761,700,o),
(747,686,o),
(747,666,cs),
(747,190,l),
(741,190,l),
(363,684,ls),
(355,694,o),
(344,700,o),
(331,700,cs),
(64,700,ls),
(44,700,o),
(30,686,o),
(30,666,cs),
(30,14,ls),
(30,-6,o),
(44,-20,o),
(64,-20,cs),
(206,-20,ls),
(226,-20,o),
(240,-6,o),
(240,14,cs),
(240,490,l),
(246,490,l),
(624,-4,ls),
(632,-14,o),
(644,-20,o),
(657,-20,cs),
(747,-20,l),
(747,-50,ls),
(747,-65,o),
(741,-71,o),
(726,-71,cs),
(571,-70,ls),
(556,-70,o),
(550,-64,o),
(550,-50,cs),
(550,-33,o),
(536,-17,o),
(516,-17,cs),
(374,-17,ls),
(354,-17,o),
(340,-30,o),
(340,-50,cs),
(340,-203,o),
(418,-280,o),
(571,-280,cs),
(726,-281,ls)
);
},
{
closed = 1;
nodes = (
(571,-260,ls),
(429,-260,o),
(360,-192,o),
(360,-50,cs),
(360,-41,o),
(365,-37,o),
(374,-37,cs),
(516,-37,ls),
(525,-37,o),
(530,-44,o),
(530,-50,cs),
(530,-73,o),
(548,-90,o),
(571,-90,cs),
(726,-91,ls),
(749,-91,o),
(767,-73,o),
(767,-50,cs),
(767,0,l),
(657,0,ls),
(650,0,o),
(644,3,o),
(640,8,cs),
(256,510,l),
(220,510,l),
(220,14,ls),
(220,5,o),
(215,0,o),
(206,0,cs),
(64,0,ls),
(55,0,o),
(50,5,o),
(50,14,cs),
(50,666,ls),
(50,675,o),
(55,680,o),
(64,680,cs),
(331,680,ls),
(338,680,o),
(343,677,o),
(347,672,cs),
(731,170,l),
(767,170,l),
(767,666,ls),
(767,675,o),
(772,680,o),
(781,680,cs),
(923,680,ls),
(932,680,o),
(937,675,o),
(937,666,cs),
(937,-50,ls),
(937,-192,o),
(868,-261,o),
(726,-261,cs)
);
}
);
width = 987;
},
{
anchors = (
{
name = before;
pos = (-92,606);
},
{
name = top;
pos = (494,680);
}
);
hints = (
{
horizontal = 1;
origin = (0,27);
target = (0,18);
type = Stem;
},
{
horizontal = 1;
origin = (0,9);
target = (0,6);
type = Stem;
},
{
horizontal = 1;
origin = (0,11);
target = (0,8);
type = Stem;
},
{
origin = (0,9);
target = (0,10);
type = Stem;
},
{
origin = (0,15);
target = (0,2);
type = Stem;
}
);
layerId = m004;
shapes = (
{
closed = 1;
nodes = (
(860,-241,o),
(917,-184,o),
(917,-50,cs),
(917,660,l),
(787,660,l),
(787,150,l),
(721,150,l),
(331,660,l),
(70,660,l),
(70,20,l),
(200,20,l),
(200,530,l),
(266,530,l),
(656,20,l),
(787,20,l),
(787,-50,ls),
(787,-84,o),
(760,-111,o),
(726,-111,cs),
(571,-110,ls),
(539,-110,o),
(514,-88,o),
(510,-57,c),
(380,-57,l),
(382,-186,o),
(439,-240,o),
(571,-240,cs),
(726,-241,ls)
);
}
);
width = 987;
}
);
unicode = (330,331);
},
{
glyphname = O;
kernLeft = O;
kernRight = O;
lastChange = "2023-04-05 05:14:12 +0000";
layers = (
{
anchors = (
{
name = center;
pos = (485,340);
},
{
name = top;
pos = (485,680);
}
);
hints = (
{
horizontal = 1;
origin = (0,15);
target = (1,15);
type = Stem;
},
{
horizontal = 1;
origin = (0,8);
target = (1,6);
type = Stem;
},
{
origin = (0,12);
target = (1,2);
type = Stem;
},
{
origin = (1,11);
target = (0,3);
type = Stem;
}
);
layerId = m01;
shapes = (
{
closed = 1;
nodes = (
(710,0,l),
(852,0,o),
(920,69,o),
(920,211,c),
(920,469,l),
(920,611,o),
(852,680,o),
(710,680,c),
(261,680,l),
(119,680,o),
(50,611,o),
(50,469,c),
(50,211,l),
(50,69,o),
(119,0,o),
(261,0,c)
);
},
{
closed = 1;
nodes = (
(238,170,o),
(220,188,o),
(220,211,c),
(220,469,l),
(220,492,o),
(238,510,o),
(261,510,c),
(710,510,l),
(733,510,o),
(750,492,o),
(750,469,c),
(750,211,l),
(750,188,o),
(733,170,o),
(710,170,c),
(261,170,l)
);
}
);
width = 970;
},
{
anchors = (
{
name = center;
pos = (485,340);
},
{
name = top;
pos = (485,680);
}
);
hints = (
{
horizontal = 1;
origin = (1,15);
target = (0,15);
type = Stem;
},
{
horizontal = 1;
origin = (4,15);
target = (5,15);
type = Stem;
},
{
horizontal = 1;
origin = (5,6);
target = (4,8);
type = Stem;
},
{
horizontal = 1;
origin = (1,6);
target = (0,8);
type = Stem;
},
{
horizontal = 1;
origin = (2,15);
target = (3,15);
type = Stem;
},
{
horizontal = 1;
origin = (3,6);
target = (2,8);
type = Stem;
},
{
origin = (0,12);
target = (1,2);
type = Stem;
},
{
origin = (4,12);
target = (5,2);
type = Stem;
},
{
origin = (5,11);
target = (4,3);
type = Stem;
},
{
origin = (1,11);
target = (0,3);
type = Stem;
},
{
origin = (2,12);
target = (3,2);
type = Stem;
},
{
origin = (3,11);
target = (2,3);
type = Stem;
}
);
layerId = "E09D4F69-3ABD-4349-AFCF-7CB4B65C8749";
shapes = (
{
closed = 1;
nodes = (
(710,-20,ls),
(863,-20,o),
(940,58,o),
(940,211,cs),
(940,469,ls),
(940,622,o),
(863,700,o),
(710,700,cs),
(261,700,ls),
(108,700,o),
(30,622,o),
(30,469,cs),
(30,211,ls),
(30,58,o),
(108,-20,o),
(261,-20,cs)
);
},
{
closed = 1;
nodes = (
(119,0,o),
(50,69,o),
(50,211,c),
(50,469,l),
(50,611,o),
(119,680,o),
(261,680,c),
(710,680,l),
(852,680,o),
(920,611,o),
(920,469,c),
(920,211,l),
(920,69,o),
(852,0,o),
(710,0,c),
(261,0,l)
);
},
{
closed = 1;
nodes = (
(710,20,ls),
(844,20,o),
(900,77,o),
(900,211,cs),
(900,469,ls),
(900,603,o),
(844,660,o),
(710,660,cs),
(261,660,ls),
(127,660,o),
(70,603,o),
(70,469,cs),
(70,211,ls),
(70,77,o),
(127,20,o),
(261,20,cs)
);
},
{
closed = 1;
nodes = (
(227,150,o),
(200,177,o),
(200,211,cs),
(200,469,ls),
(200,503,o),
(227,530,o),
(261,530,cs),
(710,530,ls),
(744,530,o),
(770,503,o),
(770,469,cs),
(770,211,ls),
(770,177,o),
(744,150,o),
(710,150,cs),
(261,150,ls)
);
},
{
closed = 1;
nodes = (
(710,170,l),
(733,170,o),
(750,188,o),
(750,211,c),
(750,469,l),
(750,492,o),
(733,510,o),
(710,510,c),
(261,510,l),
(238,510,o),
(220,492,o),
(220,469,c),
(220,211,l),
(220,188,o),
(238,170,o),
(261,170,c)
);
},
{
closed = 1;
nodes = (
(246,190,o),
(240,196,o),
(240,211,cs),
(240,469,ls),
(240,484,o),
(246,490,o),
(261,490,cs),
(710,490,ls),
(724,490,o),
(730,484,o),
(730,469,cs),
(730,211,ls),
(730,196,o),
(724,190,o),
(710,190,cs),
(261,190,ls)
);
}
);
width = 970;
},
{
anchors = (
{
name = center;
pos = (485,340);
},
{
name = top;
pos = (485,680);
}
);
hints = (
{
horizontal = 1;
origin = (1,15);
target = (0,15);
type = Stem;
},
{
horizontal = 1;
origin = (2,15);
target = (3,15);
type = Stem;
},
{
horizontal = 1;
origin = (3,6);
target = (2,8);
type = Stem;
},
{
horizontal = 1;
origin = (1,6);
target = (0,8);
type = Stem;
},
{
origin = (0,12);
target = (1,2);
type = Stem;
},
{
origin = (2,12);
target = (3,2);
type = Stem;
},
{
origin = (3,11);
target = (2,3);
type = Stem;
},
{
origin = (1,11);
target = (0,3);
type = Stem;
}
);
layerId = m003;
shapes = (
{
closed = 1;
nodes = (
(710,-20,ls),
(863,-20,o),
(940,58,o),
(940,211,cs),
(940,469,ls),
(940,622,o),
(863,700,o),
(710,700,cs),
(261,700,ls),
(108,700,o),
(30,622,o),
(30,469,cs),
(30,211,ls),
(30,58,o),
(108,-20,o),
(261,-20,cs)
);
},
{
closed = 1;
nodes = (
(119,0,o),
(50,69,o),
(50,211,c),
(50,469,l),
(50,611,o),
(119,680,o),
(261,680,c),
(710,680,l),
(852,680,o),
(920,611,o),
(920,469,c),
(920,211,l),
(920,69,o),
(852,0,o),
(710,0,c),
(261,0,l)
);
},
{
closed = 1;
nodes = (
(710,170,l),
(733,170,o),
(750,188,o),
(750,211,c),
(750,469,l),
(750,492,o),
(733,510,o),
(710,510,c),
(261,510,l),
(238,510,o),
(220,492,o),
(220,469,c),
(220,211,l),
(220,188,o),
(238,170,o),
(261,170,c)
);
},
{
closed = 1;
nodes = (
(246,190,o),
(240,196,o),
(240,211,cs),
(240,469,ls),
(240,484,o),
(246,490,o),
(261,490,cs),
(710,490,ls),
(724,490,o),
(730,484,o),
(730,469,cs),
(730,211,ls),
(730,196,o),
(724,190,o),
(710,190,cs),
(261,190,ls)
);
}
);
width = 970;
},
{
anchors = (
{
name = center;
pos = (485,340);
},
{
name = top;
pos = (485,680);
}
);
hints = (
{
horizontal = 1;
origin = (0,15);
target = (1,15);
type = Stem;
},
{
horizontal = 1;
origin = (1,6);
target = (0,8);
type = Stem;
},
{
origin = (0,12);
target = (1,2);
type = Stem;
},
{
origin = (1,11);
target = (0,3);
type = Stem;
}
);
layerId = m004;
shapes = (
{
closed = 1;
nodes = (
(710,20,ls),
(844,20,o),
(900,77,o),
(900,211,cs),
(900,469,ls),
(900,603,o),
(844,660,o),
(710,660,cs),
(261,660,ls),
(127,660,o),
(70,603,o),
(70,469,cs),
(70,211,ls),
(70,77,o),
(127,20,o),
(261,20,cs)
);
},
{
closed = 1;
nodes = (
(227,150,o),
(200,177,o),
(200,211,cs),
(200,469,ls),
(200,503,o),
(227,530,o),
(261,530,cs),
(710,530,ls),
(744,530,o),
(770,503,o),
(770,469,cs),
(770,211,ls),
(770,177,o),
(744,150,o),
(710,150,cs),
(261,150,ls)
);
}
);
width = 970;
}
);
unicode = (79,111);
},
{
glyphname = Oslash;
kernLeft = O;
kernRight = O;
lastChange = "2023-04-05 05:14:12 +0000";
layers = (
{
hints = (
{
horizontal = 1;
origin = (0,15);
target = (0,8);
type = Stem;
},
{
place = (259, 453);
place = (259, 453);
type = Stem;
}
);
layerId = m01;
shapes = (
{
closed = 1;
nodes = (
(333,-85,ls),
(341,-85,o),
(347,-82,o),
(350,-75,cs),
(710,749,ls),
(714,759,o),
(710,765,o),
(699,765,cs),
(637,765,ls),
(629,765,o),
(623,762,o),
(620,755,cs),
(260,-69,ls),
(256,-79,o),
(261,-85,o),
(271,-85,cs)
);
},
{
ref = O;
}
);
width = 970;
},
{
anchors = (
{
name = top;
pos = (485,680);
}
);
hints = (
{
horizontal = 1;
origin = (0,33);
target = (4,35);
type = Stem;
},
{
horizontal = 1;
origin = (4,4);
target = (0,29);
type = Stem;
},
{
horizontal = 1;
origin = (2,9);
target = (1,9);
type = Stem;
},
{
horizontal = 1;
origin = (1,6);
target = (2,2);
type = Stem;
},
{
horizontal = 1;
origin = (4,11);
target = (0,22);
type = Stem;
},
{
horizontal = 1;
origin = (4,16);
target = (0,17);
type = Stem;
},
{
horizontal = 1;
origin = (5,21);
target = (3,9);
type = Stem;
},
{
horizontal = 1;
origin = (4,4);
target = (5,23);
type = Stem;
},
{
horizontal = 1;
origin = (3,6);
target = (5,14);
type = Stem;
},
{
horizontal = 1;
origin = (4,11);
target = (5,12);
type = Stem;
},
{
origin = (0,26);
target = (4,7);
type = Stem;
},
{
origin = (2,6);
target = (1,2);
type = Stem;
},
{
origin = (8,5);
target = (7,3);
type = Stem;
},
{
origin = (4,26);
target = (0,8);
type = Stem;
},
{
origin = (5,18);
target = (3,2);
type = Stem;
},
{
origin = (6,5);
target = (5,5);
type = Stem;
}
);
layerId = "E09D4F69-3ABD-4349-AFCF-7CB4B65C8749";
shapes = (
{
closed = 1;
nodes = (
(333,-105,ls),
(349,-105,o),
(362,-97,o),
(368,-83,cs),
(396,-20,l),
(710,-20,ls),
(863,-20,o),
(940,58,o),
(940,211,cs),
(940,469,ls),
(940,622,o),
(863,700,o),
(710,700,c),
(728,741,ls),
(738,765,o),
(724,785,o),
(699,785,cs),
(637,785,ls),
(621,785,o),
(608,777,o),
(602,763,cs),
(574,700,l),
(261,700,ls),
(108,700,o),
(30,622,o),
(30,469,cs),
(30,211,ls),
(30,58,o),
(108,-20,o),
(260,-20,c),
(242,-61,ls),
(232,-85,o),
(247,-105,o),
(271,-105,cs)
);
},
{
closed = 1;
nodes = (
(246,190,o),
(240,196,o),
(240,211,cs),
(240,469,ls),
(240,484,o),
(246,490,o),
(261,490,cs),
(483,490,l),
(352,190,l),
(261,190,ls)
);
},
{
closed = 1;
nodes = (
(364,170,l),
(513,510,l),
(261,510,ls),
(238,510,o),
(220,492,o),
(220,469,cs),
(220,211,ls),
(220,188,o),
(238,170,o),
(261,170,cs)
);
},
{
closed = 1;
nodes = (
(227,150,o),
(200,177,o),
(200,211,cs),
(200,469,ls),
(200,503,o),
(227,530,o),
(261,530,cs),
(543,530,l),
(377,150,l),
(261,150,ls)
);
},
{
closed = 1;
nodes = (
(261,-85,o),
(256,-79,o),
(260,-69,cs),
(290,0,l),
(261,0,ls),
(119,0,o),
(50,69,o),
(50,211,cs),
(50,469,ls),
(50,611,o),
(119,680,o),
(261,680,cs),
(587,680,l),
(620,755,ls),
(623,762,o),
(629,765,o),
(637,765,cs),
(699,765,ls),
(710,765,o),
(714,759,o),
(710,749,cs),
(680,680,l),
(710,680,ls),
(852,680,o),
(920,611,o),
(920,469,cs),
(920,211,ls),
(920,69,o),
(852,0,o),
(710,0,cs),
(383,0,l),
(350,-75,ls),
(347,-82,o),
(341,-85,o),
(333,-85,cs),
(271,-85,ls)
);
},
{
closed = 1;
nodes = (
(333,-65,l),
(370,20,l),
(710,20,ls),
(844,20,o),
(900,77,o),
(900,211,cs),
(900,469,ls),
(900,603,o),
(844,660,o),
(710,660,cs),
(650,660,l),
(687,745,l),
(637,745,l),
(600,660,l),
(261,660,ls),
(127,660,o),
(70,603,o),
(70,469,cs),
(70,211,ls),
(70,77,o),
(127,20,o),
(261,20,cs),
(320,20,l),
(283,-65,l)
);
},
{
closed = 1;
nodes = (
(593,530,l),
(710,530,ls),
(744,530,o),
(770,503,o),
(770,469,cs),
(770,211,ls),
(770,177,o),
(744,150,o),
(710,150,cs),
(427,150,l)
);
},
{
closed = 1;
nodes = (
(710,170,ls),
(733,170,o),
(750,188,o),
(750,211,cs),
(750,469,ls),
(750,492,o),
(733,510,o),
(710,510,cs),
(606,510,l),
(457,170,l)
);
},
{
closed = 1;
nodes = (
(618,490,l),
(710,490,ls),
(724,490,o),
(730,484,o),
(730,469,cs),
(730,211,ls),
(730,196,o),
(724,190,o),
(710,190,cs),
(487,190,l)
);
}
);
width = 970;
},
{
anchors = (
{
name = top;
pos = (485,680);
}
);
hints = (
{
horizontal = 1;
origin = (0,33);
target = (3,35);
type = Stem;
},
{
horizontal = 1;
origin = (3,4);
target = (0,29);
type = Stem;
},
{
horizontal = 1;
origin = (2,9);
target = (1,9);
type = Stem;
},
{
horizontal = 1;
origin = (1,6);
target = (2,2);
type = Stem;
},
{
horizontal = 1;
origin = (3,11);
target = (0,22);
type = Stem;
},
{
horizontal = 1;
origin = (3,16);
target = (0,17);
type = Stem;
},
{
origin = (0,26);
target = (3,7);
type = Stem;
},
{
origin = (2,6);
target = (1,2);
type = Stem;
},
{
origin = (5,5);
target = (4,3);
type = Stem;
},
{
origin = (3,26);
target = (0,8);
type = Stem;
}
);
layerId = m003;
shapes = (
{
closed = 1;
nodes = (
(333,-105,ls),
(349,-105,o),
(362,-97,o),
(368,-83,cs),
(396,-20,l),
(710,-20,ls),
(863,-20,o),
(940,58,o),
(940,211,cs),
(940,469,ls),
(940,622,o),
(863,700,o),
(710,700,c),
(728,741,ls),
(738,765,o),
(724,785,o),
(699,785,cs),
(637,785,ls),
(621,785,o),
(608,777,o),
(602,763,cs),
(574,700,l),
(261,700,ls),
(108,700,o),
(30,622,o),
(30,469,cs),
(30,211,ls),
(30,58,o),
(108,-20,o),
(260,-20,c),
(242,-61,ls),
(232,-85,o),
(247,-105,o),
(271,-105,cs)
);
},
{
closed = 1;
nodes = (
(246,190,o),
(240,196,o),
(240,211,cs),
(240,469,ls),
(240,484,o),
(246,490,o),
(261,490,cs),
(483,490,l),
(352,190,l),
(261,190,ls)
);
},
{
closed = 1;
nodes = (
(364,170,l),
(513,510,l),
(261,510,ls),
(238,510,o),
(220,492,o),
(220,469,cs),
(220,211,ls),
(220,188,o),
(238,170,o),
(261,170,cs)
);
},
{
closed = 1;
nodes = (
(261,-85,o),
(256,-79,o),
(260,-69,cs),
(290,0,l),
(261,0,ls),
(119,0,o),
(50,69,o),
(50,211,cs),
(50,469,ls),
(50,611,o),
(119,680,o),
(261,680,cs),
(587,680,l),
(620,755,ls),
(623,762,o),
(629,765,o),
(637,765,cs),
(699,765,ls),
(710,765,o),
(714,759,o),
(710,749,cs),
(680,680,l),
(710,680,ls),
(852,680,o),
(920,611,o),
(920,469,cs),
(920,211,ls),
(920,69,o),
(852,0,o),
(710,0,cs),
(383,0,l),
(350,-75,ls),
(347,-82,o),
(341,-85,o),
(333,-85,cs),
(271,-85,ls)
);
},
{
closed = 1;
nodes = (
(710,170,ls),
(733,170,o),
(750,188,o),
(750,211,cs),
(750,469,ls),
(750,492,o),
(733,510,o),
(710,510,cs),
(606,510,l),
(457,170,l)
);
},
{
closed = 1;
nodes = (
(618,490,l),
(710,490,ls),
(724,490,o),
(730,484,o),
(730,469,cs),
(730,211,ls),
(730,196,o),
(724,190,o),
(710,190,cs),
(487,190,l)
);
}
);
width = 970;
},
{
anchors = (
{
name = top;
pos = (485,680);
}
);
hints = (
{
horizontal = 1;
origin = (0,21);
target = (1,9);
type = Stem;
},
{
horizontal = 1;
origin = (1,6);
target = (0,14);
type = Stem;
},
{
origin = (0,18);
target = (1,2);
type = Stem;
},
{
origin = (2,5);
target = (0,5);
type = Stem;
}
);
layerId = m004;
shapes = (
{
closed = 1;
nodes = (
(333,-65,l),
(370,20,l),
(710,20,ls),
(844,20,o),
(900,77,o),
(900,211,cs),
(900,469,ls),
(900,603,o),
(844,660,o),
(710,660,cs),
(650,660,l),
(687,745,l),
(637,745,l),
(600,660,l),
(261,660,ls),
(127,660,o),
(70,603,o),
(70,469,cs),
(70,211,ls),
(70,77,o),
(127,20,o),
(261,20,cs),
(320,20,l),
(283,-65,l)
);
},
{
closed = 1;
nodes = (
(227,150,o),
(200,177,o),
(200,211,cs),
(200,469,ls),
(200,503,o),
(227,530,o),
(261,530,cs),
(543,530,l),
(377,150,l),
(261,150,ls)
);
},
{
closed = 1;
nodes = (
(593,530,l),
(710,530,ls),
(744,530,o),
(770,503,o),
(770,469,cs),
(770,211,ls),
(770,177,o),
(744,150,o),
(710,150,cs),
(427,150,l)
);
}
);
width = 970;
}
);
unicode = (216,248);
},
